<?xml version="1.0" encoding="UTF-8" standalone="no"?>
<svg
   xmlns:dc="http://purl.org/dc/elements/1.1/"
   xmlns:cc="http://creativecommons.org/ns#"
   xmlns:rdf="http://www.w3.org/1999/02/22-rdf-syntax-ns#"
   xmlns:svg="http://www.w3.org/2000/svg"
   xmlns="http://www.w3.org/2000/svg"
   xmlns:sodipodi="http://sodipodi.sourceforge.net/DTD/sodipodi-0.dtd"
   xmlns:inkscape="http://www.inkscape.org/namespaces/inkscape"
   version="1.1"
   viewBox="0 0 24 24"
   id="svg4"
   sodipodi:docname="ChangeFilament.svg"
   inkscape:version="0.92.4 (5da689c313, 2019-01-14)">
  <metadata
     id="metadata10">
    <rdf:RDF>
      <cc:Work
         rdf:about="">
        <dc:format>image/svg+xml</dc:format>
        <dc:type
           rdf:resource="http://purl.org/dc/dcmitype/StillImage" />
      </cc:Work>
    </rdf:RDF>
  </metadata>
  <defs
     id="defs8" />
  <sodipodi:namedview
     pagecolor="#ffffff"
     bordercolor="#666666"
     borderopacity="1"
     objecttolerance="10"
     gridtolerance="10"
     guidetolerance="10"
     inkscape:pageopacity="0"
     inkscape:pageshadow="2"
     inkscape:window-width="1920"
     inkscape:window-height="972"
     id="namedview6"
     showgrid="false"
     inkscape:zoom="22.627417"
     inkscape:cx="12.435508"
     inkscape:cy="12.335481"
     inkscape:window-x="0"
     inkscape:window-y="33"
     inkscape:window-maximized="1"
     inkscape:current-layer="g357"
     inkscape:snap-intersection-paths="false" />
  <path
     style="fill:#000000;stroke-width:0.85619742"
     d="M 15.438028,-1.0058327e-6 C 11.202162,-1.0058327e-6 7.6693206,3.1211197 7,7.1749792 c 0.4528846,-0.074774 0.9137744,-0.123944 1.3869923,-0.123944 0.1249106,0 0.2462148,0.014308 0.3698646,0.019673 0.686532,-3.0555325 3.4264891,-5.3591022 6.6811711,-5.3591022 3.767268,0 6.850365,3.083097 6.850365,6.850365 0,3.254683 -2.303569,5.994641 -5.359102,6.681171 0.0053,0.12365 0.01967,0.244955 0.01967,0.369866 0,0.473218 -0.04917,0.934108 -0.123944,1.386992 C 20.878879,16.330679 24,12.797838 24,8.5619714 24,3.8528864 20.147112,-1.2072909e-6 15.438027,-1.2072909e-6 Z m 0,3.4251825058327 v 1.7116076 c 0.941817,0 1.796913,0.3439741 2.396251,1.0289319 L 19.034371,4.9675956 C 18.092555,3.9401589 16.807944,3.4251815 15.438028,3.4251815 Z m 0,2.5674114 c -1.382516,0 -2.445372,1.008766 -2.549705,2.3569032 1.118883,0.6976246 2.064555,1.6432979 2.762181,2.7621809 1.348135,-0.104333 2.356903,-1.167189 2.356903,-2.5497054 0,-1.4555354 -1.113843,-2.5693789 -2.569379,-2.5693787 z m 0,1.7135749 c 0.513719,0 0.855804,0.3420854 0.855804,0.8558038 0,0.5137183 -0.342085,0.8558038 -0.855804,0.8558038 -0.513718,0 -0.855803,-0.3420855 -0.855803,-0.8558038 0,-0.5137184 0.342085,-0.8558038 0.855803,-0.8558038 z"
     id="path152"
     inkscape:connector-curvature="0" />
  <path
     style="fill:#000000;stroke-width:0.85000002"
     d="M 8.5,7 C 3.825,7 0,10.825 0,15.5 V 22.9375 23.150553 24 H 1.6988933 V 23.150553 22.9375 20.599447 C 3.2288932,22.639447 5.695,24 8.5,24 13.175,24 17,20.175 17,15.5 17,10.825 13.175,7 8.5,7 Z m 0,1.6988938 c 3.74,0 6.801106,3.0611062 6.801106,6.8011062 0,3.74 -3.061106,6.801106 -6.801106,6.801106 C 4.76,22.301106 1.6988932,19.24 1.6988933,15.5 1.6988933,11.76 4.76,8.6988938 8.5,8.6988938 Z m 0,1.7016602 v 1.698893 c 0.935,0 1.784557,0.340995 2.379557,1.020995 l 1.189779,-1.189778 C 11.134336,10.910664 9.86,10.400554 8.5,10.400554 Z m 0,2.54834 c -1.445,0 -2.5511068,1.106106 -2.5511067,2.551106 0,1.445 1.1061067,2.551106 2.5511067,2.551106 1.445,0 2.551107,-1.106106 2.551107,-2.551106 0,-1.445 -1.106107,-2.551106 -2.551107,-2.551106 z m 0,1.701659 C 9.01,14.650553 9.3494466,14.99 9.3494466,15.5 9.3494466,16.01 9.01,16.349447 8.5,16.349447 7.99,16.349447 7.6505533,16.01 7.6505533,15.5 7.6505533,14.99 7.99,14.650553 8.5,14.650553 Z"
     id="path2"
     inkscape:connector-curvature="0" />
  <g
     id="g59"
     style="display:none">
    <polygon
       transform="matrix(-0.58394161,0,0,-0.58394161,25.927007,28.087591)"
       points="10,9 13.6,9 3.3,19.3 4.7,20.7 15,10.4 15,14 17,14 17,7 10,7 "
       id="polygon24" />
    <polygon
       transform="matrix(0.58394161,0,0,0.58394161,-1.9270073,-4.0875913)"
       points="15,14 17,14 17,7 10,7 10,9 13.6,9 3.3,19.3 4.7,20.7 15,10.4 "
       id="polygon24-3" />
  </g>
  <g
     id="g357"
     style="display:inline">
    <path
       inkscape:connector-curvature="0"
       id="path276"
       d="M 15.75,21.083497 18.666502,24 19.833105,22.833399 18.908202,21.908497 h 1.61455 1.002246 0.744433 0.02901 0.05156 H 24 v -0.825 -6.546826 -0.05317 h -1.648391 l -0.0016,0.0017 v 0.05155 5.721824 h -0.05155 -0.773437 -1.002245 -1.61455 l 0.924902,-0.9249 -1.166601,-1.166603 z"
       style="display:inline;stroke-width:0.87772495" />
    <path
       style="display:inline;stroke-width:0.87772506"
       d="M 8.25,2.916996 5.3334976,4.9245e-4 4.1668941,1.1670936 5.0917973,2.0919957 H 3.4772457 2.4749999 1.7305678 1.7015632 1.6500007 0 V 2.916996 9.4638229 9.517 H 1.648392 L 1.650042,9.51535 V 9.4637875 3.7419622 h 0.051562 0.7734366 1.0022458 1.6145505 l -0.924902,0.924902 1.1666011,1.1666011 z"
       id="path353"
       inkscape:connector-curvature="0" />
  </g>
</svg>
