<?xml version="1.0" encoding="UTF-8" standalone="no"?>
<svg
   xmlns:dc="http://purl.org/dc/elements/1.1/"
   xmlns:cc="http://creativecommons.org/ns#"
   xmlns:rdf="http://www.w3.org/1999/02/22-rdf-syntax-ns#"
   xmlns:svg="http://www.w3.org/2000/svg"
   xmlns="http://www.w3.org/2000/svg"
   xmlns:sodipodi="http://sodipodi.sourceforge.net/DTD/sodipodi-0.dtd"
   xmlns:inkscape="http://www.inkscape.org/namespaces/inkscape"
   version="1.1"
   viewBox="0 0 24 24"
   id="svg4"
   sodipodi:docname="InfillGyroid.svg"
   inkscape:version="0.92.4 (5da689c313, 2019-01-14)">
  <metadata
     id="metadata10">
    <rdf:RDF>
      <cc:Work
         rdf:about="">
        <dc:format>image/svg+xml</dc:format>
        <dc:type
           rdf:resource="http://purl.org/dc/dcmitype/StillImage" />
        <dc:title></dc:title>
      </cc:Work>
    </rdf:RDF>
  </metadata>
  <defs
     id="defs8">
    <inkscape:path-effect
       bendpath4="M 4.578125,4.84375 V 19.297069"
       bendpath3="M 4.578125,19.297069 H 19.474609"
       bendpath2="M 19.474609,4.84375 V 19.297069"
       bendpath1="M 4.578125,4.84375 H 19.474609"
       xx="true"
       yy="true"
       is_visible="true"
       id="path-effect4073"
       effect="envelope" />
    <inkscape:path-effect
       effect="envelope"
       id="path-effect4067"
       is_visible="true"
       yy="true"
       xx="true"
       bendpath1="M 4.578125,4.84375 H 19.474609"
       bendpath2="M 19.474609,4.84375 V 19.297069"
       bendpath3="M 4.578125,19.297069 H 19.474609"
       bendpath4="M 4.578125,4.84375 V 19.297069" />
    <inkscape:path-effect
       effect="bend_path"
       id="path-effect362"
       is_visible="true"
       bendpath="M 4.578125,12.07041 H 19.474609"
       prop_scale="1"
       scale_y_rel="false"
       vertical="false" />
  </defs>
  <sodipodi:namedview
     pagecolor="#ffffff"
     bordercolor="#666666"
     borderopacity="1"
     objecttolerance="10"
     gridtolerance="10"
     guidetolerance="10"
     inkscape:pageopacity="0"
     inkscape:pageshadow="2"
     inkscape:window-width="1920"
     inkscape:window-height="972"
     id="namedview6"
     showgrid="false"
     inkscape:zoom="27.812867"
     inkscape:cx="10.174221"
     inkscape:cy="11.981507"
     inkscape:window-x="0"
     inkscape:window-y="33"
     inkscape:window-maximized="1"
     inkscape:current-layer="svg4"
     inkscape:snap-object-midpoints="false"
     inkscape:snap-center="false"
     inkscape:object-nodes="false" />
  <path
     d="M 6,3 C 4.3,3 3,4.3 3,6 v 12 c 0,1.7 1.3,3 3,3 h 12 c 1.7,0 3,-1.3 3,-3 V 6 C 21,4.3 19.7,3 18,3 Z M 5,5 H 9.5996094 12.400391 17.599609 19 V 6.4003906 11.599609 14.400391 19 H 14.400391 11.599609 6.4003906 5 V 17.599609 12.400391 9.5996094 Z"
     id="path31"
     inkscape:connector-curvature="0"
     style="display:inline" />
  <path
     style="color:#000000;font-style:normal;font-variant:normal;font-weight:normal;font-stretch:normal;font-size:medium;line-height:normal;font-family:sans-serif;font-variant-ligatures:normal;font-variant-position:normal;font-variant-caps:normal;font-variant-numeric:normal;font-variant-alternates:normal;font-feature-settings:normal;text-indent:0;text-align:start;text-decoration:none;text-decoration-line:none;text-decoration-style:solid;text-decoration-color:#000000;letter-spacing:normal;word-spacing:normal;text-transform:none;writing-mode:lr-tb;direction:ltr;text-orientation:mixed;dominant-baseline:auto;baseline-shift:baseline;text-anchor:start;white-space:normal;shape-padding:0;clip-rule:nonzero;display:inline;overflow:visible;visibility:visible;opacity:1;isolation:auto;mix-blend-mode:normal;color-interpolation:sRGB;color-interpolation-filters:linearRGB;solid-color:#000000;solid-opacity:1;vector-effect:none;fill:#000000;fill-opacity:1;fill-rule:nonzero;stroke:none;stroke-width:1px;stroke-linecap:butt;stroke-linejoin:miter;stroke-miterlimit:4;stroke-dasharray:none;stroke-dashoffset:0;stroke-opacity:1;color-rendering:auto;image-rendering:auto;shape-rendering:auto;text-rendering:auto;enable-background:accumulate"
     d="M 18.126953 4.4101562 C 17.842939 5.2946589 17.369043 6.3307529 16.353516 6.5273438 C 15.240034 6.7352495 14.091001 7.1213837 13.357422 8.0390625 C 12.357727 9.1573212 12.641802 10.857337 11.732422 12.015625 C 11.108505 12.505277 10.215999 12.3876 9.4902344 12.652344 C 8.3981801 12.891525 7.4329193 13.708988 7.1953125 14.828125 C 6.9261471 15.697018 6.866797 16.846797 5.9335938 17.292969 C 5.479883 17.645513 4.792432 17.730447 4.359375 17.941406 L 4.1796875 18.841797 C 4.2512655 18.852517 4.321846 18.850696 4.3925781 18.853516 L 4.359375 19.021484 C 4.361995 19.021876 4.3645775 19.021103 4.3671875 19.021484 L 4.359375 19.056641 C 4.4283342 19.066968 4.4963181 19.065947 4.5644531 19.068359 L 4.5390625 19.201172 C 4.5416825 19.201564 4.544265 19.200791 4.546875 19.201172 L 4.5390625 19.236328 C 4.5535855 19.238528 4.5675422 19.236399 4.5820312 19.238281 L 4.5742188 19.271484 C 4.6320121 19.28014 4.6889961 19.279902 4.7460938 19.28125 L 4.71875 19.416016 C 4.7326142 19.418116 4.7459778 19.416499 4.7597656 19.417969 L 4.7539062 19.451172 C 4.8254979 19.461889 4.8960498 19.462053 4.9667969 19.464844 L 4.9335938 19.630859 C 5.8373412 19.766154 6.6744791 19.239843 7.4277344 18.810547 C 8.5069048 18.14739 8.6323977 16.804742 8.9804688 15.707031 C 9.2082843 14.785938 10.197142 14.431037 11.033203 14.283203 C 11.870622 14.109346 12.89736 14.073393 13.400391 13.263672 C 14.314265 12.103253 13.998106 10.382038 15.035156 9.3007812 C 15.693214 8.5498921 16.726655 8.4676992 17.625 8.203125 C 18.82943 7.837918 19.480073 6.6374756 19.830078 5.5117188 L 19.609375 5.4394531 C 19.621125 5.4035291 19.639251 5.3678331 19.650391 5.3320312 L 19.638672 5.328125 C 19.641972 5.317713 19.647171 5.307275 19.650391 5.296875 L 19.441406 5.2285156 C 19.451575 5.2030925 19.462796 5.1777541 19.470703 5.1523438 L 19.458984 5.1484375 C 19.462284 5.1380255 19.467483 5.1275875 19.470703 5.1171875 L 19.427734 5.1035156 C 19.430534 5.0963756 19.433347 5.0891543 19.435547 5.0820312 L 19.257812 5.0234375 C 19.268838 4.9947168 19.282098 4.9661849 19.291016 4.9375 L 19.248047 4.9238281 C 19.250847 4.9166881 19.253659 4.9094667 19.255859 4.9023438 L 19.035156 4.8300781 C 19.046906 4.7941541 19.065042 4.7584582 19.076172 4.7226562 L 18.126953 4.4101562 z "
     id="path4122" />
  <path
     style="color:#000000;font-style:normal;font-variant:normal;font-weight:normal;font-stretch:normal;font-size:medium;line-height:normal;font-family:sans-serif;font-variant-ligatures:normal;font-variant-position:normal;font-variant-caps:normal;font-variant-numeric:normal;font-variant-alternates:normal;font-feature-settings:normal;text-indent:0;text-align:start;text-decoration:none;text-decoration-line:none;text-decoration-style:solid;text-decoration-color:#000000;letter-spacing:normal;word-spacing:normal;text-transform:none;writing-mode:lr-tb;direction:ltr;text-orientation:mixed;dominant-baseline:auto;baseline-shift:baseline;text-anchor:start;white-space:normal;shape-padding:0;clip-rule:nonzero;display:inline;overflow:visible;visibility:visible;opacity:1;isolation:auto;mix-blend-mode:normal;color-interpolation:sRGB;color-interpolation-filters:linearRGB;solid-color:#000000;solid-opacity:1;vector-effect:none;fill:#000000;fill-opacity:1;fill-rule:nonzero;stroke:none;stroke-width:1px;stroke-linecap:butt;stroke-linejoin:miter;stroke-miterlimit:4;stroke-dasharray:none;stroke-dashoffset:0;stroke-opacity:1;color-rendering:auto;image-rendering:auto;shape-rendering:auto;text-rendering:auto;enable-background:accumulate"
     d="M 11.666016 3 C 11.006265 3.244463 10.392108 3.5924401 9.9414062 4.15625 C 8.9417114 5.2745087 9.2257863 6.9745245 8.3164062 8.1328125 C 7.6924893 8.6224645 6.7999833 8.5047874 6.0742188 8.7695312 C 4.9821644 9.0087123 4.0169037 9.8261761 3.7792969 10.945312 C 3.5677159 11.628318 3.4786357 12.479302 3 13.03125 L 3 15.462891 C 3.3504805 15.303348 3.6904212 15.110849 4.0117188 14.927734 C 5.0908891 14.264577 5.216382 12.92193 5.5644531 11.824219 C 5.7922686 10.903126 6.7811265 10.548225 7.6171875 10.400391 C 8.4546065 10.226534 9.481344 10.19058 9.984375 9.3808594 C 10.898249 8.2204404 10.582091 6.4992255 11.619141 5.4179688 C 12.277199 4.6670796 13.310639 4.5848867 14.208984 4.3203125 C 14.910717 4.1075334 15.409327 3.5998668 15.785156 3 L 11.666016 3 z M 21 9.2949219 C 20.723288 9.6662205 20.364134 9.9564703 19.876953 10.050781 C 18.763471 10.258687 17.614438 10.644821 16.880859 11.5625 C 15.881164 12.680758 16.165239 14.380775 15.255859 15.539062 C 14.631942 16.028714 13.739437 15.911037 13.013672 16.175781 C 11.921618 16.414962 10.956356 17.232425 10.71875 18.351562 C 10.449584 19.220455 10.390234 20.370234 9.4570312 20.816406 C 9.362478 20.889876 9.2530163 20.946212 9.1425781 21 L 11.978516 21 C 12.201894 20.42943 12.324009 19.797809 12.503906 19.230469 C 12.731721 18.309376 13.72058 17.954475 14.556641 17.806641 C 15.39406 17.632784 16.420797 17.59683 16.923828 16.787109 C 17.837702 15.62669 17.521544 13.905476 18.558594 12.824219 C 19.1814 12.113555 20.137467 11.999845 21 11.765625 L 21 9.2949219 z "
     id="path4130" />
</svg>
