<?xml version="1.0" encoding="UTF-8" standalone="no"?>
<svg
   xmlns:dc="http://purl.org/dc/elements/1.1/"
   xmlns:cc="http://creativecommons.org/ns#"
   xmlns:rdf="http://www.w3.org/1999/02/22-rdf-syntax-ns#"
   xmlns:svg="http://www.w3.org/2000/svg"
   xmlns="http://www.w3.org/2000/svg"
   xmlns:sodipodi="http://sodipodi.sourceforge.net/DTD/sodipodi-0.dtd"
   xmlns:inkscape="http://www.inkscape.org/namespaces/inkscape"
   version="1.1"
   viewBox="0 0 24 24"
   id="svg4"
   sodipodi:docname="Lulz_Simple.svg"
   inkscape:version="0.92.4 (5da689c313, 2019-01-14)">
  <metadata
     id="metadata10">
    <rdf:RDF>
      <cc:Work
         rdf:about="">
        <dc:format>image/svg+xml</dc:format>
        <dc:type
           rdf:resource="http://purl.org/dc/dcmitype/StillImage" />
        <dc:title></dc:title>
      </cc:Work>
    </rdf:RDF>
  </metadata>
  <defs
     id="defs8" />
  <sodipodi:namedview
     pagecolor="#ffffff"
     bordercolor="#666666"
     borderopacity="1"
     objecttolerance="10"
     gridtolerance="10"
     guidetolerance="10"
     inkscape:pageopacity="0"
     inkscape:pageshadow="2"
     inkscape:window-width="1920"
     inkscape:window-height="972"
     id="namedview6"
     showgrid="false"
     inkscape:zoom="32"
     inkscape:cx="10.755699"
     inkscape:cy="12.102786"
     inkscape:window-x="0"
     inkscape:window-y="33"
     inkscape:window-maximized="1"
     inkscape:current-layer="svg4"
     inkscape:snap-nodes="false" />
  <path
     style="display:inline;fill:#000000;stroke-width:0.0858506"
     d="m 11.930763,10.507861 c -1.155526,0.0082 -2.2427601,0.44224 -3.1199202,1.267269 -0.8987618,0.845314 -1.3637599,1.911685 -1.3637599,3.113488 0,1.176013 0.4033449,2.127301 1.2833482,3.007346 0.6505532,0.650553 1.2034741,0.967456 2.0778029,1.196505 0.345136,0.09041 0.843533,0.165479 1.10323,0.167254 2.767584,0.01892 4.9908,-2.442362 4.551225,-5.040119 -0.290483,-1.716671 -1.66228,-3.179417 -3.361152,-3.579868 -0.396032,-0.09334 -0.7856,-0.134577 -1.170774,-0.131876 z m 0.485679,0.784806 c 0.12687,-1.78e-4 0.259098,0.06984 0.411701,0.202634 0.231035,0.201049 0.235685,0.216413 0.109364,0.447081 -0.07244,0.132271 -0.20631,0.253379 -0.299127,0.27018 -0.15666,0.02836 -0.156825,0.01922 0.02251,-0.151177 0.220617,-0.209592 0.234261,-0.273947 0.09006,-0.418133 -0.132419,-0.13242 -0.433664,-0.13242 -0.566088,0 -0.195482,0.195482 -0.102629,0.39819 0.328074,0.70761 0.618525,0.444365 0.70484,0.783116 0.366671,1.45382 -0.149118,0.295772 -0.102102,0.360241 0.144738,0.209066 0.270706,-0.16579 0.499376,-0.578993 0.611119,-1.100014 0.115852,-0.540186 0.390035,-0.858781 0.742991,-0.858781 0.289477,0 0.620768,0.309869 0.620768,0.58217 10e-7,0.247964 -0.365164,0.481505 -0.643283,0.4117 -0.319686,-0.08023 -0.261203,-0.180119 0.106137,-0.180119 0.270851,0 0.327,-0.02974 0.350589,-0.1962 0.03814,-0.269066 -0.12659,-0.447082 -0.418133,-0.447082 -0.325252,0 -0.51141,0.284296 -0.51141,0.781589 0,0.490591 -0.125289,0.890476 -0.405268,1.267266 l -0.218717,0.289477 0.20585,-0.07076 c 0.112641,-0.03936 0.355914,-0.07592 0.543575,-0.07719 0.316475,-0.0021 0.362541,0.02966 0.617552,0.427784 0.505246,0.788788 0.49725,0.781698 0.771939,0.685097 0.194329,-0.06834 0.247663,-0.140769 0.247663,-0.334507 0,-0.333093 -0.235783,-0.480088 -0.453514,-0.283045 -0.224851,0.203484 -0.337496,0.186945 -0.147948,-0.02251 0.201264,-0.222411 0.609215,-0.226406 0.726909,-0.0064 0.235949,0.440884 -0.02498,0.865216 -0.533925,0.865216 -0.24822,0 -0.445629,-0.158373 -0.845917,-0.675447 -0.220629,-0.285005 -0.226765,-0.283526 -0.488894,-0.147948 -0.380713,0.196873 -0.401614,0.276883 -0.144737,0.582171 0.389466,0.462864 0.416714,0.633497 0.173687,1.164341 -0.240888,0.526174 -0.267754,0.710044 -0.115787,0.862 0.16854,0.168539 0.56901,0.124893 0.675446,-0.07398 0.123807,-0.231318 -0.02917,-0.424272 -0.337723,-0.427783 -0.187836,-0.0021 -0.203057,-0.01383 -0.08362,-0.08362 0.178142,-0.103963 0.541245,0.01859 0.614336,0.209067 0.07493,0.195279 -0.07511,0.539941 -0.286261,0.652931 -0.227819,0.121929 -0.620924,0.03582 -0.810537,-0.173685 -0.117582,-0.129933 -0.142481,-0.296025 -0.118998,-0.874864 l 0.03216,-0.714045 -0.257313,-0.02895 c -0.140802,-0.01597 -0.395793,0.01334 -0.566089,0.06432 -0.392965,0.11773 -1.026036,0.571999 -1.026036,0.736559 0,0.06895 0.176709,0.320415 0.389186,0.559656 0.434593,0.489335 0.479809,0.737678 0.186552,1.01317 -0.109282,0.102662 -0.304191,0.186551 -0.430999,0.186551 -0.250632,0 -0.572522,-0.263407 -0.572522,-0.469596 0,-0.07083 0.07926,-0.204691 0.173686,-0.299127 0.09443,-0.09443 0.2283,-0.173686 0.299127,-0.173685 0.194745,0 0.153614,0.08226 -0.08685,0.173685 -0.364729,0.138661 -0.225764,0.598253 0.180119,0.598255 0.250841,0 0.408666,-0.210885 0.340941,-0.450299 -0.03022,-0.106845 -0.244499,-0.336837 -0.479246,-0.514626 -0.473486,-0.358593 -0.543625,-0.617767 -0.295911,-1.096798 0.150238,-0.290506 0.104539,-0.309167 -0.350588,-0.118998 -0.253777,0.106021 -0.475042,0.126014 -0.961707,0.08041 -0.5067543,-0.04749 -0.6695392,-0.03416 -0.8394843,0.07719 -0.2891063,0.189378 -0.2903875,0.544676 0,0.617552 0.3607883,0.09056 0.5030243,-0.01449 0.4438646,-0.331291 -0.048449,-0.259248 -0.041615,-0.268153 0.077186,-0.112576 0.069989,0.09166 0.125437,0.218034 0.125437,0.279827 -1.7e-6,0.166492 -0.3210427,0.456731 -0.5049775,0.456731 -0.267762,0 -0.6079011,-0.334746 -0.6079011,-0.59182 0,-0.526515 0.5412319,-0.84583 1.2704823,-0.749424 0.42605,0.0563 0.9547,-0.134215 1.029252,-0.369887 0.03083,-0.09743 -0.06014,-0.111983 -0.479244,-0.07398 C 9.8909006,15.569833 9.7145411,15.47468 9.4316137,14.888644 9.2196865,14.449674 9.1866879,14.41583 8.9073373,14.41583 c -0.286199,0 -0.3023423,0.01614 -0.3023423,0.302343 0,0.242222 0.034283,0.303612 0.183336,0.324859 0.1152269,0.01647 0.2374296,-0.04382 0.3216405,-0.164038 0.1439307,-0.205493 0.2597224,-0.186921 0.176903,0.02895 -0.07824,0.203919 -0.4493584,0.341796 -0.6432825,0.238015 -0.4316585,-0.231012 -0.3600374,-0.812545 0.1190079,-0.981006 0.3316679,-0.116643 0.628109,0.06396 0.9134605,0.553222 0.168501,0.288925 0.28783,0.390824 0.4663796,0.411701 0.330878,0.03867 0.593029,-0.203578 0.469598,-0.434216 -0.05033,-0.0939 -0.07587,-0.286588 -0.05467,-0.431 0.02689,-0.18325 -0.02161,-0.358232 -0.167254,-0.572521 -0.209632,-0.308453 -0.223776,-0.524881 -0.06755,-1.132177 0.07387,-0.287099 -0.152725,-0.521677 -0.4631639,-0.485679 -0.1739452,0.02017 -0.2299036,0.07824 -0.250879,0.260531 -0.025213,0.219132 -0.00576,0.234798 0.2830444,0.234798 0.1856525,0 0.2889615,0.03564 0.2573135,0.08684 -0.07409,0.119871 -0.5861505,0.105428 -0.7108284,-0.0193 -0.056667,-0.05667 -0.1029252,-0.181728 -0.1029252,-0.279828 0,-0.584986 0.7445136,-0.77895 1.1482606,-0.299125 0.21086,0.2506 0.231507,0.454955 0.09327,0.91346 -0.01678,0.05602 0.04659,0.195403 0.138316,0.311992 0.15307,0.194588 0.204987,0.213128 0.675446,0.170471 0.396074,-0.03592 0.564137,-0.01647 0.736558,0.09649 0.262042,0.171701 0.390121,0.100504 0.559656,-0.308776 0.108672,-0.262382 0.106499,-0.271265 -0.376319,-0.704395 -0.55128,-0.49454 -0.607149,-0.708365 -0.273396,-1.042117 0.13321,-0.13321 0.252677,-0.202457 0.379537,-0.202635 z m -4.7152624,1.762595 v 0.0097 c 0.00126,-0.0031 0.00198,-0.0064 0.00321,-0.0097 z"
     id="path847"
     inkscape:connector-curvature="0"
     inkscape:label="circle" />
  <path
     style="display:inline;fill:#000000;stroke-width:0.05213166"
     d="M 12.021484 2.859375 C 11.992956 2.8288937 11.192446 4.1260706 9.8554688 6.3339844 L 9.8457031 6.328125 L 7.8222656 9.7109375 C 7.3059661 10.570382 7.1387126 10.840562 6.4882812 11.925781 C 3.4783534 16.947735 1.009597 21.073616 1 21.097656 C 0.9904 21.121696 5.9375484 21.142578 11.992188 21.142578 L 23 21.142578 L 22.896484 20.972656 C 22.839524 20.879466 20.382451 16.7806 17.4375 11.863281 C 14.492549 6.945975 12.054694 2.8948719 12.021484 2.859375 z M 11.984375 5.2949219 C 12.013635 5.2961819 12.71492 6.4827708 13.013672 7.0117188 L 13.019531 7.0078125 L 14.027344 8.6640625 L 9.9414062 8.6640625 L 10.703125 7.3925781 L 10.824219 7.1875 L 10.828125 7.1894531 C 11.149264 6.6355019 11.963405 5.2940164 11.984375 5.2949219 z M 9.1953125 9.9140625 L 14.779297 9.9140625 L 17.957031 15.244141 L 15.173828 19.933594 L 8.7636719 19.933594 L 5.9941406 15.265625 L 9.1953125 9.9140625 z M 18.6875 16.462891 L 19.582031 17.976562 L 19.578125 17.978516 L 19.8125 18.365234 L 19.798828 18.373047 C 20.100282 18.850444 20.580851 19.624809 20.734375 19.904297 C 20.746185 19.925797 20.176972 19.943359 19.470703 19.943359 C 19.095831 19.943359 18.924735 19.938394 18.732422 19.933594 L 16.626953 19.933594 L 18.6875 16.462891 z M 5.2636719 16.484375 L 7.3105469 19.933594 L 5.2597656 19.933594 L 5.2597656 19.929688 C 5.0258244 19.935388 4.9222265 19.943359 4.5097656 19.943359 C 3.8072916 19.943359 3.2324219 19.92669 3.2324219 19.90625 C 3.2324219 19.8858 3.5171624 19.390859 3.8652344 18.808594 L 4.2011719 18.246094 L 4.2070312 18.25 L 4.4042969 17.921875 L 4.4023438 17.919922 L 5.2636719 16.484375 z "
     id="path1012"
     inkscape:label="triangle" />
</svg>
