<?xml version="1.0" encoding="UTF-8" standalone="no"?>
<svg
   xmlns:dc="http://purl.org/dc/elements/1.1/"
   xmlns:cc="http://creativecommons.org/ns#"
   xmlns:rdf="http://www.w3.org/1999/02/22-rdf-syntax-ns#"
   xmlns:svg="http://www.w3.org/2000/svg"
   xmlns="http://www.w3.org/2000/svg"
   xmlns:sodipodi="http://sodipodi.sourceforge.net/DTD/sodipodi-0.dtd"
   xmlns:inkscape="http://www.inkscape.org/namespaces/inkscape"
   version="1.1"
   viewBox="0 0 24 24"
   id="svg4"
   sodipodi:docname="Lulz.svg"
   inkscape:version="0.92.4 (5da689c313, 2019-01-14)">
  <metadata
     id="metadata10">
    <rdf:RDF>
      <cc:Work
         rdf:about="">
        <dc:format>image/svg+xml</dc:format>
        <dc:type
           rdf:resource="http://purl.org/dc/dcmitype/StillImage" />
      </cc:Work>
    </rdf:RDF>
  </metadata>
  <defs
     id="defs8" />
  <sodipodi:namedview
     pagecolor="#ffffff"
     bordercolor="#666666"
     borderopacity="1"
     objecttolerance="10"
     gridtolerance="10"
     guidetolerance="10"
     inkscape:pageopacity="0"
     inkscape:pageshadow="2"
     inkscape:window-width="1920"
     inkscape:window-height="972"
     id="namedview6"
     showgrid="false"
     inkscape:zoom="16"
     inkscape:cx="3.8295417"
     inkscape:cy="15.233196"
     inkscape:window-x="0"
     inkscape:window-y="33"
     inkscape:window-maximized="1"
     inkscape:current-layer="svg4" />
  <path
     d="m 12,2.0996094 c -0.7,0 -1.399219,0.4 -1.699219,1 L 2,18 c -0.3,0.6 -0.3,1.4 0,2 0.4,0.6 0.9992187,1 1.6992188,1 H 20.300781 C 21.000781,21 21.7,20.6 22,20 c 0.4,-0.6 0.4,-1.3 0,-2 L 13.699219,3.0996094 c -0.4,-0.6 -0.999219,-1 -1.699219,-1 z m 0,2 L 20.300781,19 H 3.6992188 Z"
     id="path2"
     inkscape:connector-curvature="0"
     style="display:none" />
  <path
     style="fill:#000000;stroke-width:0.05213166"
     d="m 12.021992,2.8584279 c -0.04665,-0.049844 -1.30597,2.0139761 -5.5329731,9.0665771 -3.009928,5.021954 -5.479408,9.148985 -5.489005,9.173025 -0.0096,0.02404 4.937288,0.04397 10.9918941,0.04397 H 23 l -0.104134,-0.168931 c -0.05696,-0.09319 -2.51397,-4.193225 -5.458921,-9.110544 C 14.491994,6.9452056 12.055202,2.8939248 12.021992,2.8584279 Z m -0.04166,0.9672867 1.21258,2.0248225 c 0.667269,1.1131759 1.247605,2.0760137 1.288944,2.1405266 l 0.07637,0.1180178 h -2.564004 c -2.424396,0 -2.557676,-0.00393 -2.510781,-0.090249 0.02726,-0.050177 0.599352,-1.0153287 1.272746,-2.1428407 z m -0.0024,0.9071205 c -0.02162,0.0072 -0.437258,0.6756628 -0.923319,1.4856412 l -0.883979,1.4740708 h 1.795728 c 0.987879,0 1.798042,-0.013276 1.798042,-0.030083 0,-0.070736 -1.75062,-2.9415837 -1.786472,-2.929629 z m 0.007,0.5623221 c 0.03578,0.00154 1.256547,2.0406657 1.256547,2.0988731 0,0.020391 -0.575523,0.037025 -1.279689,0.037025 -0.704166,0 -1.270709,-0.017835 -1.258861,-0.039339 0.21087,-0.3838865 1.25878,-2.097561 1.282003,-2.0965591 z M 9.076128,8.6829746 h 2.911118 2.911115 l 2.098874,3.5058354 c 1.154211,1.928219 2.098977,3.528073 2.098873,3.556745 -8.1e-5,0.02867 -0.65199,1.1384 -1.448616,2.464499 l -1.448616,2.411274 H 11.964104 7.7270189 l -1.411591,-2.362679 c -0.776336,-1.299449 -1.424908,-2.397673 -1.441673,-2.441357 -0.01876,-0.04887 0.784688,-1.43698 2.087302,-3.607656 z m 2.90649,0.9904274 c -0.07451,0.00493 -0.151701,0.090881 -0.229095,0.254549 -0.213615,0.451737 -0.470743,0.492761 -0.851583,0.136531 C 10.764001,9.935456 10.623712,9.83076 10.591853,9.83076 c -0.07817,0 -0.142963,0.140334 -0.180498,0.384137 -0.0171,0.111078 -0.07165,0.244728 -0.120333,0.298517 -0.129334,0.142912 -0.431908,0.127596 -0.671084,-0.03472 -0.107888,-0.07321 -0.246791,-0.126714 -0.307773,-0.118018 -0.101621,0.0145 -0.108007,0.04277 -0.09257,0.340169 0.01502,0.289321 0.0018,0.338351 -0.115709,0.455875 -0.150547,0.150547 -0.31896,0.165542 -0.587777,0.05322 -0.376515,-0.157317 -0.5164531,-0.05271 -0.36331,0.268434 0.132908,0.278719 0.11194,0.51168 -0.05785,0.645629 -0.1230551,0.09708 -0.1867601,0.109169 -0.4373621,0.08099 -0.23002,-0.02586 -0.305403,-0.0156 -0.358683,0.0486 -0.05702,0.06872 -0.04118,0.117403 0.09719,0.310087 0.29805,0.415029 0.186232,0.72033 -0.296203,0.809928 -0.46217,0.08584 -0.479694,0.14192 -0.14116,0.444304 0.128402,0.11469 0.246993,0.267249 0.263806,0.340171 0.04136,0.179386 -0.126343,0.385629 -0.421163,0.516041 -0.322887,0.142829 -0.308836,0.25634 0.05553,0.435047 0.466012,0.228555 0.486954,0.497775 0.0648,0.872409 -0.184444,0.16369 -0.210492,0.20625 -0.155043,0.273062 0.03622,0.04365 0.170118,0.09448 0.296202,0.113386 0.499814,0.07495 0.635227,0.395674 0.34017,0.802986 -0.247339,0.341439 -0.206703,0.395636 0.291575,0.379511 0.270379,-0.0088 0.3469801,0.0091 0.4350471,0.09719 0.127011,0.12702 0.138861,0.348257 0.03008,0.608604 -0.04301,0.102936 -0.07868,0.219293 -0.07868,0.256863 0,0.111242 0.190543,0.137863 0.358682,0.05091 0.229577,-0.118719 0.540874,-0.104192 0.661828,0.03008 0.07654,0.08496 0.0995,0.187755 0.0995,0.45356 0,0.419792 0.05762,0.45039 0.421163,0.219838 0.137946,-0.08749 0.303423,-0.159672 0.365625,-0.159672 0.183518,0 0.380445,0.193054 0.416535,0.407279 0.08175,0.485229 0.168028,0.520511 0.467445,0.194383 0.171485,-0.186778 0.251355,-0.236036 0.384137,-0.236036 0.247742,0 0.356065,0.07964 0.502156,0.367939 0.151582,0.299136 0.254558,0.324172 0.37951,0.09488 0.298632,-0.548012 0.548232,-0.607975 0.934889,-0.22678 0.130876,0.129026 0.254938,0.233721 0.275376,0.233721 0.07442,0 0.144789,-0.135255 0.180499,-0.35174 0.05293,-0.320865 0.178352,-0.45356 0.430419,-0.45356 0.145964,0 0.263051,0.04284 0.398023,0.145788 0.298064,0.227347 0.367229,0.180338 0.398022,-0.270749 0.02037,-0.298303 0.0482,-0.398127 0.127274,-0.455874 0.132604,-0.0968 0.384574,-0.09439 0.627117,0.007 0.331885,0.138673 0.419626,0.01979 0.261491,-0.358684 -0.110124,-0.263575 -0.09911,-0.384537 0.05322,-0.536867 0.114637,-0.11463 0.173303,-0.132005 0.43042,-0.122645 0.163604,0.0059 0.32747,0.0081 0.363311,0.0046 0.10846,-0.01031 0.07159,-0.174281 -0.09256,-0.416535 -0.278126,-0.410454 -0.167405,-0.654562 0.342484,-0.756704 0.397834,-0.07969 0.415558,-0.164421 0.104134,-0.462817 -0.375547,-0.359837 -0.318796,-0.595078 0.199011,-0.844641 0.118987,-0.05734 0.21521,-0.139922 0.21521,-0.182812 0,-0.0429 -0.11472,-0.14076 -0.256863,-0.217524 -0.47934,-0.258885 -0.525819,-0.492261 -0.159672,-0.814557 0.129026,-0.113576 0.233722,-0.246618 0.233722,-0.293889 0,-0.0952 -0.195897,-0.187441 -0.398022,-0.187441 -0.155041,0 -0.435047,-0.258857 -0.435047,-0.402649 0,-0.05463 0.07142,-0.209245 0.159671,-0.342485 0.242104,-0.365509 0.205064,-0.425791 -0.256863,-0.425791 -0.338153,0 -0.392919,-0.01591 -0.481329,-0.124961 -0.12552,-0.154819 -0.124881,-0.251196 0.0023,-0.573892 0.09045,-0.229471 0.09335,-0.2657 0.02314,-0.323971 -0.06402,-0.05314 -0.12601,-0.04781 -0.323972,0.02314 -0.324768,0.116396 -0.472708,0.108588 -0.61786,-0.02777 -0.103263,-0.09701 -0.120332,-0.162901 -0.120332,-0.467446 0,-0.322338 -0.01098,-0.356368 -0.106448,-0.356368 -0.05796,0 -0.196685,0.0607 -0.307773,0.134216 -0.409197,0.270795 -0.698249,0.144195 -0.809929,-0.35174 -0.08266,-0.367101 -0.178562,-0.381778 -0.465131,-0.07405 -0.167449,0.179813 -0.258853,0.238351 -0.374881,0.238351 -0.217203,0 -0.379553,-0.130511 -0.495214,-0.400337 -0.06609,-0.154173 -0.138385,-0.2293968 -0.212895,-0.2244657 z m -0.05785,0.691911 c 0.07951,-0.01605 0.168537,0.01031 0.231409,0.08794 0.116537,0.143926 0.11861,0.179903 0.01389,0.284632 -0.186179,0.186179 -0.480745,0.04295 -0.41885,-0.203639 0.02388,-0.09516 0.09404,-0.152871 0.173556,-0.168928 z m 0.09951,0.721994 c 0.599232,0.004 1.178956,0.149642 1.791099,0.448932 0.417049,0.203904 0.570762,0.317589 0.969601,0.715052 0.39887,0.397492 0.511599,0.550206 0.717366,0.967286 0.284293,0.576242 0.396719,1.047631 0.398022,1.673082 0.0022,1.09512 -0.51382,2.170156 -1.381507,2.878719 -0.405118,0.330824 -1.134069,0.686632 -1.605974,0.784474 -0.784465,0.162657 -1.486034,0.13366 -2.198379,-0.09257 C 10.104636,18.268602 9.682643,18.001621 9.145558,17.467226 8.759992,17.083589 8.629786,16.91245 8.453647,16.553163 8.153584,15.941081 8.060254,15.54568 8.060254,14.887024 c 0,-0.648461 0.09336,-1.04905 0.381823,-1.642999 0.559935,-1.152904 1.638617,-1.919533 2.97591,-2.115072 0.206189,-0.03015 0.406546,-0.04299 0.606291,-0.04166 z m -0.270749,0.108766 c -0.516491,0.0299 -1.024104,0.164559 -1.508781,0.402649 -0.994152,0.488365 -1.709126,1.350442 -1.990112,2.402018 -0.121535,0.454665 -0.118646,1.317879 0.0046,1.770274 0.30922,1.134788 1.162953,2.08093 2.272429,2.517722 0.295435,0.116313 0.490111,0.164739 1.094561,0.268433 0.07168,0.01226 0.316746,0.01126 0.546125,-0.0024 2.772744,-0.163413 4.431277,-2.910236 3.221203,-5.336275 -0.147972,-0.296678 -0.307425,-0.504748 -0.66412,-0.860808 -0.517691,-0.51677 -0.855543,-0.738193 -1.418533,-0.934889 -0.515675,-0.180166 -1.040886,-0.256688 -1.557378,-0.22678 z m 0.205954,0.24992 c 0.06356,0 0.0833,0.05098 0.0833,0.208267 0,0.11469 -0.02224,0.208268 -0.05091,0.208268 -0.02867,0 -0.05281,-0.04007 -0.05322,-0.09025 -3.91e-4,-0.05018 -0.01511,-0.143754 -0.03239,-0.208267 -0.02312,-0.08623 -0.0088,-0.118019 0.05322,-0.118018 z m -0.469759,0.02083 c 0.04264,0.01291 0.08261,0.129482 0.0833,0.27769 4.39e-4,0.09319 -0.02079,0.171243 -0.04628,0.171243 -0.05995,0 -0.124589,-0.349187 -0.07868,-0.423477 0.01344,-0.02174 0.02744,-0.02976 0.04166,-0.02546 z m 0.992741,0.03008 c 0.03098,0.0033 0.05315,0.06456 0.03934,0.182813 -0.02097,0.179703 -0.08336,0.275417 -0.129588,0.196696 -0.01284,-0.02197 -0.01187,-0.115081 0.0024,-0.208267 0.01793,-0.117818 0.05695,-0.174512 0.08794,-0.171242 z m 0.4929,0.0648 c 0.03713,0.01213 0.04291,0.119854 0,0.24298 -0.0756,0.216853 -0.168699,0.211604 -0.122647,-0.007 0.01963,-0.09319 0.05394,-0.188893 0.07636,-0.212895 0.01876,-0.02009 0.03391,-0.02718 0.04628,-0.02314 z m -2.003995,0.02314 c 0.04635,-0.01778 0.08792,0.04139 0.122646,0.178184 0.03043,0.119746 0.03193,0.216851 0.0046,0.233722 -0.04056,0.02506 -0.07438,-0.04201 -0.173557,-0.326286 -0.01161,-0.03347 0.0081,-0.07095 0.04628,-0.08561 z m -2.133585,0.0162 c 0.06021,0 0.136835,0.02807 0.171242,0.06247 0.03441,0.03441 0.06247,0.113339 0.06247,0.173556 0,0.06021 -0.02807,0.136836 -0.06247,0.171243 -0.03441,0.03441 -0.111028,0.06247 -0.171242,0.06247 -0.06021,0 -0.13915,-0.02807 -0.173556,-0.06247 -0.03441,-0.03441 -0.06248,-0.111029 -0.06248,-0.171243 0,-0.06021 0.02807,-0.139149 0.06248,-0.173556 0.03441,-0.03441 0.113338,-0.06247 0.173556,-0.06247 z m 6.278107,0 c 0.207495,0 0.340242,0.268362 0.201325,0.407279 -0.102421,0.102415 -0.344878,0.07694 -0.409592,-0.04397 -0.0723,-0.135099 0.05826,-0.36331 0.208267,-0.363309 z m -4.61891,0.157357 c 0.03724,0 0.10719,0.08246 0.155044,0.182813 0.06662,0.139697 0.07034,0.182813 0.01852,0.182813 -0.03724,0 -0.10719,-0.08246 -0.155044,-0.182813 -0.06662,-0.139698 -0.07035,-0.182813 -0.01852,-0.182813 z m 2.934258,0 c 0.09104,0 0.09078,0.0216 -0.007,0.210581 -0.08502,0.164416 -0.219272,0.218485 -0.155043,0.06249 0.02066,-0.05018 0.04804,-0.132636 0.06248,-0.182812 0.01443,-0.05018 0.05984,-0.09025 0.09951,-0.09025 z m 0.472072,0.210581 c 0.01075,0.007 0.0162,0.02333 0.0162,0.05091 0,0.02968 -0.037,0.112142 -0.08331,0.182812 -0.138587,0.211506 -0.245752,0.163268 -0.118019,-0.05322 0.07825,-0.132615 0.152873,-0.201317 0.185127,-0.180499 z m -3.876088,0.0162 c 0.04674,-0.04674 0.1348,0.0298 0.217524,0.189755 0.0434,0.08391 0.05662,0.164094 0.03008,0.180498 -0.05306,0.0328 -0.292534,-0.325329 -0.247606,-0.370253 z m 1.737876,0.15273 c 2.178909,-0.153768 3.714271,1.971565 2.806983,3.88303 -0.31825,0.670483 -0.990409,1.259641 -1.684653,1.474071 -0.456322,0.140945 -1.09692,0.172394 -1.522667,0.07636 -1.325287,-0.298926 -2.242283,-1.409328 -2.240032,-2.70979 0.0024,-1.437074 1.147791,-2.618342 2.640369,-2.723676 z m 0.185127,0.08794 c -0.701678,0.005 -1.360276,0.269602 -1.89292,0.77059 -0.545741,0.513306 -0.828442,1.160826 -0.828442,1.890605 0,0.714119 0.24545,1.291416 0.779846,1.825812 0.39504,0.39504 0.73025,0.587535 1.261175,0.726622 0.209579,0.0549 0.511072,0.100744 0.66877,0.101822 1.680579,0.01149 3.032255,-1.484077 2.765329,-3.061531 -0.176392,-1.042426 -1.009403,-1.929754 -2.041021,-2.172923 -0.240485,-0.05668 -0.478845,-0.08264 -0.712737,-0.08099 z m 2.29557,0.05091 c 0.03037,-0.01848 0.05184,-0.01633 0.06479,0.0046 0.02245,0.03634 -0.02623,0.125732 -0.118018,0.217524 -0.203009,0.203015 -0.253811,0.119332 -0.06479,-0.106444 0.04922,-0.05879 0.08765,-0.09722 0.118018,-0.115708 z m -4.598083,0.01161 c 0.06397,-0.02185 0.194313,0.08042 0.261492,0.205953 0.09095,0.16994 -0.04367,0.156046 -0.180499,-0.01852 -0.07327,-0.09346 -0.109915,-0.17756 -0.08099,-0.187441 z M 9.282089,12.61697 c 0.03634,-0.02245 0.125736,0.02623 0.217523,0.118019 0.203015,0.203014 0.119333,0.256124 -0.106443,0.06711 C 9.2756,12.703669 9.240174,12.642877 9.282093,12.616972 Z m 5.380243,0.01161 c 0.0249,0.01969 0.0043,0.07771 -0.08562,0.155043 -0.07798,0.06708 -0.162682,0.122647 -0.189755,0.122647 -0.0912,0 -0.05178,-0.09787 0.08562,-0.205953 0.09409,-0.07401 0.164856,-0.09142 0.189755,-0.07174 z m -2.415902,0.07405 c 0.07704,-1.08e-4 0.157254,0.04201 0.24992,0.122647 0.140293,0.122084 0.143825,0.13299 0.06711,0.27306 -0.04399,0.08032 -0.126451,0.154099 -0.182813,0.164301 -0.09513,0.01722 -0.09501,0.0109 0.01389,-0.09257 0.133967,-0.127272 0.143096,-0.166993 0.05553,-0.254548 -0.08041,-0.08041 -0.264385,-0.08041 -0.344798,0 -0.118704,0.118704 -0.06252,0.242528 0.199011,0.430419 0.375591,0.269835 0.427501,0.474389 0.222152,0.881665 -0.09055,0.179604 -0.06195,0.219074 0.08794,0.127275 0.164383,-0.100674 0.304713,-0.350073 0.372567,-0.666456 0.07035,-0.328021 0.236918,-0.522983 0.451246,-0.522983 0.175781,0 0.377195,0.188704 0.377195,0.354055 1e-6,0.150573 -0.222196,0.292309 -0.39108,0.249921 -0.194125,-0.04872 -0.158268,-0.108765 0.0648,-0.108765 0.164471,0 0.198571,-0.01925 0.212895,-0.120333 0.02316,-0.163387 -0.07751,-0.270747 -0.254548,-0.270747 -0.197505,0 -0.310088,0.172411 -0.310088,0.474386 0,0.297905 -0.07759,0.541789 -0.247607,0.77059 l -0.131903,0.17587 0.124961,-0.04397 c 0.06839,-0.0239 0.216959,-0.04551 0.330914,-0.04628 0.192175,-0.0013 0.220029,0.01742 0.374881,0.259177 0.306804,0.478981 0.300644,0.475195 0.467445,0.416535 0.118004,-0.0415 0.150415,-0.08599 0.150415,-0.20364 0,-0.202266 -0.143161,-0.290894 -0.275375,-0.171242 -0.136538,0.123563 -0.205342,0.113304 -0.09025,-0.01389 0.122215,-0.135056 0.370522,-0.138171 0.44199,-0.0046 0.143277,0.267717 -0.01492,0.525296 -0.323972,0.525296 -0.150728,0 -0.27066,-0.09561 -0.513727,-0.409592 -0.133978,-0.173066 -0.137018,-0.17257 -0.296203,-0.09025 -0.231181,0.119549 -0.243923,0.168672 -0.08794,0.354054 0.236498,0.281068 0.251708,0.383447 0.104133,0.705795 -0.146276,0.319512 -0.161694,0.433025 -0.06942,0.525298 0.102344,0.102344 0.344961,0.07448 0.409593,-0.04628 0.07518,-0.140465 -0.01627,-0.257045 -0.20364,-0.259177 -0.114061,-0.0013 -0.123432,-0.0085 -0.05091,-0.05091 0.108174,-0.06313 0.328185,0.01161 0.372568,0.127273 0.0455,0.118581 -0.04534,0.327097 -0.173556,0.395709 -0.13834,0.07404 -0.37776,0.02309 -0.4929,-0.104133 -0.0714,-0.0789 -0.08598,-0.180745 -0.07174,-0.532239 l 0.01852,-0.432733 -0.155043,-0.01852 c -0.0855,-0.0097 -0.241389,0.0084 -0.344799,0.03934 -0.238623,0.07149 -0.622488,0.346691 -0.622488,0.446618 0,0.04187 0.107012,0.194894 0.236036,0.34017 0.263901,0.297144 0.291463,0.448257 0.113386,0.615546 -0.06636,0.06234 -0.184491,0.113387 -0.261493,0.113387 -0.152193,0 -0.347111,-0.159427 -0.347111,-0.284632 0,-0.04301 0.04679,-0.125468 0.104133,-0.182813 0.05734,-0.05734 0.139804,-0.104133 0.182813,-0.104133 0.118256,0 0.0928,0.04861 -0.05322,0.104133 -0.221477,0.0842 -0.137702,0.36331 0.108765,0.36331 0.15232,0 0.249393,-0.12768 0.208268,-0.273061 -0.01835,-0.06488 -0.149027,-0.204441 -0.291574,-0.312401 -0.287518,-0.217751 -0.330921,-0.375571 -0.180499,-0.666456 0.09123,-0.176406 0.06347,-0.187208 -0.212896,-0.07174 -0.154103,0.06438 -0.287627,0.07629 -0.583148,0.0486 -0.307717,-0.02884 -0.405902,-0.02134 -0.509099,0.04628 -0.175556,0.114997 -0.176334,0.330628 0,0.374881 0.219084,0.05499 0.304358,-0.009 0.268434,-0.201326 -0.02942,-0.157425 -0.02586,-0.161584 0.04628,-0.06711 0.0425,0.05566 0.07636,0.131405 0.07636,0.168928 -10e-7,0.1011 -0.193768,0.27769 -0.30546,0.27769 -0.162595,0 -0.370253,-0.202578 -0.370253,-0.358683 0,-0.319719 0.330076,-0.514416 0.772904,-0.455875 0.258713,0.03419 0.579531,-0.08136 0.624802,-0.224465 0.01872,-0.05916 -0.03708,-0.06705 -0.291574,-0.04397 -0.404694,0.03669 -0.510851,-0.02133 -0.682655,-0.377195 -0.12869,-0.266559 -0.149711,-0.286946 -0.319343,-0.286946 -0.173811,0 -0.182812,0.009 -0.182812,0.182812 0,0.147086 0.02058,0.183795 0.111076,0.196697 0.06997,0.01 0.143246,-0.0265 0.194382,-0.0995 0.0874,-0.124783 0.159057,-0.112557 0.108766,0.01852 -0.04751,0.123827 -0.273322,0.206492 -0.39108,0.143472 -0.262119,-0.140279 -0.219139,-0.492423 0.07174,-0.594719 0.201401,-0.07083 0.382104,0.03845 0.55538,0.335542 0.10232,0.175446 0.173896,0.237244 0.282318,0.249921 0.200921,0.02348 0.359583,-0.123753 0.284631,-0.263805 -0.03056,-0.05702 -0.04526,-0.173803 -0.03239,-0.261491 0.01633,-0.111278 -0.01338,-0.216989 -0.101823,-0.347113 -0.127296,-0.187304 -0.136533,-0.318509 -0.04166,-0.687282 0.04486,-0.174337 -0.09149,-0.318062 -0.280004,-0.296203 -0.105626,0.01225 -0.139992,0.04899 -0.152729,0.159671 -0.01531,0.133066 -0.0041,0.141159 0.171242,0.141159 0.112735,0 0.176575,0.02213 0.157357,0.05322 -0.04499,0.07279 -0.357024,0.06413 -0.432733,-0.01161 -0.03441,-0.03441 -0.06247,-0.109358 -0.06247,-0.168928 0,-0.355225 0.453682,-0.47418 0.698852,-0.182813 0.128042,0.152174 0.13947,0.276959 0.05553,0.55538 -0.01019,0.03402 0.02762,0.118958 0.0833,0.189755 0.09295,0.118161 0.126227,0.127725 0.411907,0.101822 0.240511,-0.02181 0.341916,-0.0084 0.446618,0.06016 0.159122,0.104263 0.237223,0.06109 0.340171,-0.18744 0.06599,-0.159328 0.06409,-0.165093 -0.229095,-0.428106 -0.334757,-0.300303 -0.369281,-0.431391 -0.166614,-0.634058 0.08089,-0.08089 0.154375,-0.122539 0.231409,-0.122647 z m 2.739874,0.303144 c 0.01822,0.02949 -0.04424,0.101989 -0.138846,0.159672 -0.191362,0.11668 -0.268092,0.13321 -0.240664,0.05091 0.03187,-0.0956 0.343515,-0.268827 0.37951,-0.210582 z m -5.965706,0.0046 c 0.07846,0 0.3124,0.158769 0.3124,0.212895 0,0.06713 -0.06021,0.05643 -0.222152,-0.04397 -0.145672,-0.09032 -0.188149,-0.168928 -0.09025,-0.168928 z m -0.238351,0.416534 c 0.130518,0 0.342484,0.116775 0.342484,0.189755 0,0.03841 -0.0068,0.06758 -0.01389,0.0648 -0.271456,-0.105519 -0.404964,-0.174646 -0.404964,-0.210581 0,-0.02479 0.0347,-0.04397 0.07636,-0.04397 z m 6.405382,0 c 0.08503,0 0.02422,0.09278 -0.09719,0.148102 -0.153902,0.07012 -0.284633,0.07843 -0.284633,0.01852 0,-0.03765 0.295712,-0.166614 0.381824,-0.166614 z m -6.615964,0.435048 c 0.01404,-0.0082 0.03559,-0.0081 0.06249,0.0024 0.04568,0.01752 0.139252,0.04515 0.208267,0.06247 0.06902,0.01732 0.124961,0.05312 0.124961,0.07868 0,0.02557 -0.04007,0.04325 -0.09025,0.03934 -0.22586,-0.01757 -0.326286,-0.05768 -0.326286,-0.131904 0,-0.02595 0.0068,-0.04275 0.02083,-0.05091 z m 6.828859,0.03239 c 0.03046,0.03046 -0.0063,0.07046 -0.09488,0.104133 -0.171156,0.06508 -0.342484,0.07133 -0.342484,0.01161 0,-0.07005 0.38177,-0.171297 0.437362,-0.115708 z m -6.912165,0.446619 c 0.03064,-0.0065 0.07981,-0.002 0.152729,0.0092 0.107522,0.01659 0.205021,0.03544 0.21521,0.04397 0.01019,0.0085 0.01019,0.03456 0,0.05785 -0.03207,0.07357 -0.409594,0.01825 -0.409594,-0.06016 2e-6,-0.02678 0.01102,-0.04438 0.04166,-0.05091 z m 7.009357,0.0092 c 0.02197,0.01232 0.02575,0.04505 0.0092,0.07174 -0.03833,0.06206 -0.439676,0.06184 -0.439676,0 0,-0.04932 0.362873,-0.109619 0.430419,-0.07174 z m -7.9141641,0.298516 c 0.161306,0.03825 0.264705,0.24208 0.122646,0.384138 -0.06691,0.06691 -0.314974,0.08537 -0.372567,0.02777 -0.08057,-0.08057 -0.03148,-0.328738 0.07636,-0.386451 0.05996,-0.0321 0.119788,-0.03821 0.173557,-0.02546 z m 8.7912011,0.0024 c 0.04727,-0.01404 0.09933,-0.01463 0.15273,0.0024 0.127082,0.04033 0.188488,0.258871 0.101819,0.363312 -0.09349,0.112652 -0.349234,0.09829 -0.414221,-0.02314 -0.07632,-0.142603 0.01786,-0.300379 0.159672,-0.342485 z m -7.745236,0.182813 c 0.129026,0 0.233723,0.02455 0.233723,0.05322 0,0.02867 -0.104702,0.05091 -0.233723,0.05091 -0.129026,0 -0.236035,-0.02224 -0.236035,-0.05091 0,-0.02867 0.107012,-0.05322 0.236035,-0.05322 z m 6.696957,0 c 0.114689,0 0.208267,0.02455 0.208267,0.05322 0,0.02867 -0.09358,0.05091 -0.208267,0.05091 -0.11469,0 -0.208268,-0.02224 -0.208268,-0.05091 0,-0.02867 0.09358,-0.05322 0.208268,-0.05322 z m -0.192069,0.418849 c 0.04833,-0.0025 0.126259,0.0077 0.23835,0.03008 0.08914,0.01783 0.149786,0.05351 0.134217,0.07868 -0.05022,0.08125 -0.439676,0.02589 -0.439676,-0.06249 0,-0.02826 0.01877,-0.04377 0.06711,-0.04628 z m -6.504888,0.02777 c 0.212829,-0.03993 0.361153,0.01931 0.203639,0.08099 -0.141843,0.05554 -0.386452,0.05538 -0.386452,0 2e-6,-0.02547 0.08198,-0.06207 0.182813,-0.08099 z m 6.372985,0.39108 c 0.03724,-0.0012 0.109602,0.01812 0.236037,0.05322 0.10826,0.03006 0.181064,0.0747 0.164299,0.101823 -0.05264,0.08518 -0.393224,0.0098 -0.428105,-0.09488 -0.01293,-0.0388 -0.0095,-0.05896 0.02777,-0.06016 z m -6.055954,0.02314 c 0.03371,0.0084 0.03088,0.03623 -0.01161,0.07868 -0.02765,0.02767 -0.125239,0.06485 -0.217524,0.0833 -0.237403,0.04748 -0.215521,-0.06537 0.02545,-0.131902 0.100922,-0.02788 0.169929,-0.03848 0.20364,-0.03008 z m 0.157357,0.39108 c 0.07784,0 -0.0081,0.115258 -0.134217,0.180499 -0.18103,0.09361 -0.195019,0.09645 -0.236037,0.03008 -0.02432,-0.03936 0.276547,-0.210581 0.370254,-0.210581 z m 5.757438,0 c 0.09277,0 0.360997,0.15685 0.360997,0.210581 0,0.06765 -0.04586,0.05874 -0.247607,-0.04166 -0.165293,-0.08226 -0.223068,-0.168928 -0.11339,-0.168928 z m 4.598083,0.273062 c 0.02158,0.0072 0.613314,0.969823 1.314399,2.138212 l 1.272745,2.124328 h -2.577887 c -1.417932,0 -2.577889,-0.01329 -2.577889,-0.03008 0,-0.07082 2.532887,-4.244376 2.568632,-4.232458 z m -15.0045141,0.05091 c 0.0493,-0.05345 0.329553,0.37536 1.346797,2.071105 l 1.284315,2.140527 h -2.582516 c -1.41956,0 -2.571106,-0.01783 -2.559376,-0.03934 0.150792,-0.276774 2.465355,-4.123039 2.51078,-4.172292 z m 4.9012281,0.09025 c 0.01822,0.02949 -0.04424,0.09968 -0.138846,0.157359 -0.191362,0.11668 -0.268093,0.133205 -0.240664,0.05091 0.03187,-0.09561 0.343515,-0.266513 0.37951,-0.208267 z m 5.273795,0.0024 c 0.02072,-0.02015 0.09355,-0.0047 0.203639,0.06016 0.0995,0.05871 0.168712,0.126864 0.15273,0.152729 -0.04186,0.06773 -0.08388,0.05794 -0.245293,-0.06249 -0.100099,-0.07467 -0.131797,-0.130259 -0.111076,-0.150415 z m -0.280004,0.335542 c 0.03545,-0.03545 0.35174,0.185153 0.35174,0.245294 0,0.02159 -0.01968,0.0521 -0.04397,0.06711 -0.054,0.03338 -0.351528,-0.268646 -0.307773,-0.312401 z m -4.736928,0.02083 c 0.01567,0.02537 -0.01066,0.07938 -0.06016,0.120332 -0.247985,0.205151 -0.273061,0.217031 -0.273061,0.131902 0,-0.09689 0.292411,-0.318275 0.333228,-0.252234 z m 4.459245,0.26826 c 0.05569,0 0.263805,0.2543 0.263805,0.321657 0,0.07979 -0.08265,0.0475 -0.199011,-0.07636 -0.117438,-0.125014 -0.148963,-0.245296 -0.06479,-0.245296 z m -4.130639,0.01852 c 0.01988,0.01988 -0.01225,0.0993 -0.06942,0.175871 -0.115625,0.154867 -0.203852,0.200393 -0.247607,0.129589 -0.03691,-0.05973 0.268535,-0.353954 0.317029,-0.30546 z m -5.4473501,0.08794 c -0.03027,0.0013 -1.722273,2.78955 -1.774902,2.925001 -0.0096,0.0246 0.798529,0.04628 1.793414,0.04628 h 1.807299 l -0.07405,-0.118019 c -0.0413,-0.06451 -0.444511,-0.73299 -0.895551,-1.485641 -0.451041,-0.752651 -0.836317,-1.368447 -0.85621,-1.367623 z m 14.9651741,0.01161 c -0.03585,-0.01195 -1.786472,2.856583 -1.786472,2.927316 0,0.0168 0.807849,0.03239 1.795728,0.03239 h 1.795728 l -0.881665,-1.47407 C 19.89669,17.920795 19.481056,17.252358 19.459433,17.245131 Z m -5.766695,0.143474 c 0.03634,0 0.147674,0.131221 0.229094,0.270748 0.09226,0.158097 -0.04206,0.154041 -0.155043,-0.0046 -0.106988,-0.150252 -0.138777,-0.26612 -0.07405,-0.26612 z m -3.408644,0.04397 c 0.03373,0.03373 0.01254,0.107557 -0.06249,0.212895 -0.122429,0.171933 -0.138611,0.182045 -0.178183,0.118019 -0.04484,-0.07257 0.184113,-0.387464 0.240664,-0.330913 z m 3.008308,0.164299 c 0.05373,0 0.210582,0.270541 0.210582,0.363311 0,0.121381 -0.11424,0.04238 -0.185127,-0.127274 -0.0893,-0.213732 -0.09238,-0.236037 -0.02546,-0.236037 z m -2.605657,0.03008 c 0.0219,0.02041 0.01614,0.09446 -0.03702,0.205953 -0.08304,0.174131 -0.171243,0.240342 -0.171243,0.127275 0,-0.03009 0.03676,-0.12505 0.08099,-0.210581 0.0562,-0.108671 0.105377,-0.143058 0.127275,-0.122647 z m -1.86978,0.0486 c 0.04032,0.0045 0.08342,0.01986 0.127275,0.0486 0.154866,0.101479 0.168507,0.316833 0.02546,0.393395 -0.195867,0.10482 -0.367939,0.0069 -0.367939,-0.208268 0,-0.156994 0.09425,-0.247138 0.215209,-0.233722 z m 6.30819,0 c 0.04032,0.0045 0.08342,0.01986 0.127275,0.0486 0.145424,0.09528 0.162927,0.246666 0.04397,0.365625 -0.157552,0.157553 -0.386452,0.05008 -0.386452,-0.180498 0,-0.156994 0.09425,-0.247138 0.21521,-0.233722 z m -10.6262691,0.07636 0.643316,1.073735 c 0.3544,0.590501 0.645629,1.082345 0.645629,1.094561 0,0.01225 -0.5749,0.02314 -1.277374,0.02314 -0.702474,0 -1.277373,-0.01658 -1.277373,-0.03702 0,-0.02045 0.283672,-0.51461 0.631744,-1.096875 z m 6.6090211,0 c 0.0423,-10e-4 0.04483,0.09085 -0.0024,0.233722 -0.0777,0.235412 -0.182786,0.247449 -0.136531,0.0162 0.01846,-0.09229 0.05565,-0.189869 0.0833,-0.217523 0.02242,-0.02242 0.04143,-0.03205 0.05553,-0.03239 z m 1.761017,0.0024 c 0.04676,0 0.1643,0.267356 0.1643,0.372567 0,0.05474 -0.0889,0.05804 -0.120331,0.0046 -0.05849,-0.09939 -0.09077,-0.377195 -0.04397,-0.377195 z m 6.581252,0.05091 c 0.0238,0 1.073703,1.715455 1.284316,2.098873 0.01181,0.0215 -0.55722,0.03934 -1.263489,0.03934 -1.049245,0 -1.281885,-0.01213 -1.268117,-0.06942 0.02518,-0.104737 1.209282,-2.068789 1.24729,-2.068789 z m -7.928047,0.05322 c 0.02867,0 0.05091,0.09358 0.05091,0.208267 0,0.157734 -0.01923,0.208267 -0.0833,0.208267 -0.06707,0 -0.07902,-0.033 -0.05322,-0.161986 0.01792,-0.08961 0.03239,-0.183173 0.03239,-0.208267 0,-0.02509 0.02455,-0.04628 0.05322,-0.04628 z m 0.90712,0 c 0.05385,0 0.0833,0.04393 0.0833,0.124959 0,0.06933 0.01499,0.162914 0.03239,0.208269 0.02076,0.05411 0.0018,0.0833 -0.05322,0.0833 -0.05385,0 -0.0833,-0.04392 -0.0833,-0.124961 0,-0.06933 -0.01499,-0.165227 -0.03239,-0.210581 -0.02076,-0.05411 -0.0018,-0.08099 0.05322,-0.08099 z m -0.437362,0.05091 c 0.02867,0 0.05091,0.09358 0.05091,0.208268 0,0.11469 -0.02224,0.210582 -0.05091,0.210582 -0.02867,0 -0.05322,-0.09589 -0.05322,-0.210582 0,-0.114689 0.02455,-0.208268 0.05322,-0.208268 z m 0.01161,1.043652 c 0.206737,0 0.30739,0.215182 0.171242,0.365624 -0.117675,0.130008 -0.246338,0.13108 -0.358684,0.007 -0.166031,-0.183463 -0.06983,-0.372567 0.187442,-0.372567 z"
     id="path847"
     inkscape:connector-curvature="0" />
</svg>
