<?xml version="1.0" encoding="UTF-8" standalone="no"?>
<svg
   xmlns:dc="http://purl.org/dc/elements/1.1/"
   xmlns:cc="http://creativecommons.org/ns#"
   xmlns:rdf="http://www.w3.org/1999/02/22-rdf-syntax-ns#"
   xmlns:svg="http://www.w3.org/2000/svg"
   xmlns="http://www.w3.org/2000/svg"
   xmlns:sodipodi="http://sodipodi.sourceforge.net/DTD/sodipodi-0.dtd"
   xmlns:inkscape="http://www.inkscape.org/namespaces/inkscape"
   version="1.1"
   viewBox="0 0 24 24"
   id="svg14"
   sodipodi:docname="Multiply.svg"
   inkscape:version="0.92.4 (5da689c313, 2019-01-14)">
  <metadata
     id="metadata20">
    <rdf:RDF>
      <cc:Work
         rdf:about="">
        <dc:format>image/svg+xml</dc:format>
        <dc:type
           rdf:resource="http://purl.org/dc/dcmitype/StillImage" />
      </cc:Work>
    </rdf:RDF>
  </metadata>
  <defs
     id="defs18" />
  <sodipodi:namedview
     pagecolor="#ffffff"
     bordercolor="#666666"
     borderopacity="1"
     objecttolerance="10"
     gridtolerance="10"
     guidetolerance="10"
     inkscape:pageopacity="0"
     inkscape:pageshadow="2"
     inkscape:window-width="1920"
     inkscape:window-height="1051"
     id="namedview16"
     showgrid="false"
     inkscape:zoom="39.333333"
     inkscape:cx="14.857741"
     inkscape:cy="12.540953"
     inkscape:window-x="1920"
     inkscape:window-y="0"
     inkscape:window-maximized="1"
     inkscape:current-layer="svg14" />
  <path
     d="M6,3C4.3,3,3,4.3,3,6v5h8V3H6z M9,5v4H5V5H9z"
     id="path2" />
  <path
     d="M18,21c1.7,0,3-1.3,3-3v-5h-8v8H18z M15,19v-4h4v4H15z"
     id="path4" />
  <path
     d="M3,13v5c0,1.7,1.3,3,3,3h5v-8H3z"
     id="path6" />
  <path
     id="path56"
     d="m 21,5.9830513 c 0,-1.7 -1.3,-3 -3,-3 h -5 v 7.9999997 h 8 z m -2,3 h -4 v -4 h 4 z"
     inkscape:connector-curvature="0" />
</svg>
