<?xml version="1.0" encoding="UTF-8" standalone="no"?>
<svg
   xmlns:dc="http://purl.org/dc/elements/1.1/"
   xmlns:cc="http://creativecommons.org/ns#"
   xmlns:rdf="http://www.w3.org/1999/02/22-rdf-syntax-ns#"
   xmlns:svg="http://www.w3.org/2000/svg"
   xmlns="http://www.w3.org/2000/svg"
   xmlns:sodipodi="http://sodipodi.sourceforge.net/DTD/sodipodi-0.dtd"
   xmlns:inkscape="http://www.inkscape.org/namespaces/inkscape"
   viewBox="0 0 24 24"
   version="1.1"
   id="svg22"
   sodipodi:docname="PrintWalls.svg"
   inkscape:version="0.92.4 (5da689c313, 2019-01-14)">
  <metadata
     id="metadata28">
    <rdf:RDF>
      <cc:Work
         rdf:about="">
        <dc:format>image/svg+xml</dc:format>
        <dc:type
           rdf:resource="http://purl.org/dc/dcmitype/StillImage" />
      </cc:Work>
    </rdf:RDF>
  </metadata>
  <defs
     id="defs26" />
  <sodipodi:namedview
     pagecolor="#ffffff"
     bordercolor="#666666"
     borderopacity="1"
     objecttolerance="10"
     gridtolerance="10"
     guidetolerance="10"
     inkscape:pageopacity="0"
     inkscape:pageshadow="2"
     inkscape:window-width="1338"
     inkscape:window-height="799"
     id="namedview24"
     showgrid="false"
     inkscape:zoom="9.8333333"
     inkscape:cx="-0.40677966"
     inkscape:cy="12"
     inkscape:window-x="273"
     inkscape:window-y="105"
     inkscape:window-maximized="0"
     inkscape:current-layer="svg22" />
  <g
     id="g3743"
     transform="rotate(90,12,12)">
    <circle
       r="1"
       id="circle2"
       cy="8"
       cx="10" />
    <circle
       r="1"
       id="circle4"
       cy="8"
       cx="14" />
    <circle
       r="1"
       id="circle6"
       cy="8"
       cx="18" />
    <circle
       r="1"
       id="circle8"
       cy="16"
       cx="18" />
    <circle
       r="1"
       id="circle10"
       cy="16"
       cx="14" />
    <circle
       r="1"
       id="circle12"
       cy="16"
       cx="10" />
    <circle
       r="1"
       id="circle14"
       cy="16"
       cx="6" />
    <circle
       r="1"
       id="circle16"
       cy="8"
       cx="6" />
    <path
       inkscape:connector-curvature="0"
       id="path18"
       d="M 6,5 H 20.82 A 3,3 0 0 0 18,3 H 6 A 3,3 0 0 0 3.18,5 Z" />
    <path
       inkscape:connector-curvature="0"
       id="path20"
       d="M 19,19 H 3.18 A 3,3 0 0 0 6,21 h 12 a 3,3 0 0 0 2.82,-2 z" />
  </g>
<svg width="24" height="25" viewBox="0 0 24 25" xmlns="http://www.w3.org/2000/svg">
<path d="M15 10.0619C15 10.6142 15.4477 11.0619 16 11.0619C16.5523 11.0619 17 10.6142 17 10.0619C17 9.5096 16.5523 9.06189 16 9.06189C15.4477 9.06189 15 9.5096 15 10.0619Z"/>
<path d="M15 14.0619C15 14.6142 15.4477 15.0619 16 15.0619C16.5523 15.0619 17 14.6142 17 14.0619C17 13.5096 16.5523 13.0619 16 13.0619C15.4477 13.0619 15 13.5096 15 14.0619Z"/>
<path d="M15 18.0619C15 18.6142 15.4477 19.0619 16 19.0619C16.5523 19.0619 17 18.6142 17 18.0619C17 17.5096 16.5523 17.0619 16 17.0619C15.4477 17.0619 15 17.5096 15 18.0619Z"/>
<path d="M7 18.0619C7 18.6142 7.44772 19.0619 8 19.0619C8.55228 19.0619 9 18.6142 9 18.0619C9 17.5096 8.55228 17.0619 8 17.0619C7.44772 17.0619 7 17.5096 7 18.0619Z" />
<path d="M7 14.0619C7 14.6142 7.44772 15.0619 8 15.0619C8.55228 15.0619 9 14.6142 9 14.0619C9 13.5096 8.55228 13.0619 8 13.0619C7.44772 13.0619 7 13.5096 7 14.0619Z" />
<path d="M7 10.0619C7 10.6142 7.44772 11.0619 8 11.0619C8.55228 11.0619 9 10.6142 9 10.0619C9 9.5096 8.55228 9.06189 8 9.06189C7.44772 9.06189 7 9.5096 7 10.0619Z" />
<path d="M7 6.06189C7 6.61417 7.44772 7.06189 8 7.06189C8.55228 7.06189 9 6.61417 9 6.06189C9 5.5096 8.55228 5.06189 8 5.06189C7.44772 5.06189 7 5.5096 7 6.06189Z" />
<path d="M15 6.06189C15 6.61417 15.4477 7.06189 16 7.06189C16.5523 7.06189 17 6.61417 17 6.06189C17 5.5096 16.5523 5.06189 16 5.06189C15.4477 5.06189 15 5.5096 15 6.06189Z" />
<path d="M19 6.06189L19 20.8819C19.5835 20.6756 20.089 20.2938 20.4471 19.789C20.8051 19.2841 20.9983 18.6808 21 18.0619L21 6.06189C20.9983 5.44295 20.8051 4.83969 20.4471 4.33482C20.089 3.82996 19.5835 3.4482 19 3.24189L19 6.06189Z"/>
<path d="M5 19.0619L5 3.24189C4.41645 3.4482 3.911 3.82996 3.55294 4.33482C3.19488 4.83969 3.00174 5.44295 3 6.06189L3 18.0619C3.00174 18.6808 3.19488 19.2841 3.55294 19.789C3.911 20.2938 4.41645 20.6756 5 20.8819L5 19.0619Z"/>
</svg>
