<?xml version="1.0" encoding="UTF-8" standalone="no"?>
<svg
   xmlns:dc="http://purl.org/dc/elements/1.1/"
   xmlns:cc="http://creativecommons.org/ns#"
   xmlns:rdf="http://www.w3.org/1999/02/22-rdf-syntax-ns#"
   xmlns:svg="http://www.w3.org/2000/svg"
   xmlns="http://www.w3.org/2000/svg"
   xmlns:sodipodi="http://sodipodi.sourceforge.net/DTD/sodipodi-0.dtd"
   xmlns:inkscape="http://www.inkscape.org/namespaces/inkscape"
   viewBox="0 0 24 24"
   version="1.1"
   id="svg22"
   sodipodi:docname="PrintWalls.svg"
   inkscape:version="0.92.4 (5da689c313, 2019-01-14)">
  <metadata
     id="metadata28">
    <rdf:RDF>
      <cc:Work
         rdf:about="">
        <dc:format>image/svg+xml</dc:format>
        <dc:type
           rdf:resource="http://purl.org/dc/dcmitype/StillImage" />
      </cc:Work>
    </rdf:RDF>
  </metadata>
  <defs
     id="defs26" />
  <sodipodi:namedview
     pagecolor="#ffffff"
     bordercolor="#666666"
     borderopacity="1"
     objecttolerance="10"
     gridtolerance="10"
     guidetolerance="10"
     inkscape:pageopacity="0"
     inkscape:pageshadow="2"
     inkscape:window-width="1338"
     inkscape:window-height="799"
     id="namedview24"
     showgrid="false"
     inkscape:zoom="9.8333333"
     inkscape:cx="-0.40677966"
     inkscape:cy="12"
     inkscape:window-x="273"
     inkscape:window-y="105"
     inkscape:window-maximized="0"
     inkscape:current-layer="svg22" />
  <g
     id="g3743"
     transform="rotate(90,12,12)">
    <circle
       r="1"
       id="circle2"
       cy="8"
       cx="10" />
    <circle
       r="1"
       id="circle4"
       cy="8"
       cx="14" />
    <circle
       r="1"
       id="circle6"
       cy="8"
       cx="18" />
    <circle
       r="1"
       id="circle8"
       cy="16"
       cx="18" />
    <circle
       r="1"
       id="circle10"
       cy="16"
       cx="14" />
    <circle
       r="1"
       id="circle12"
       cy="16"
       cx="10" />
    <circle
       r="1"
       id="circle14"
       cy="16"
       cx="6" />
    <circle
       r="1"
       id="circle16"
       cy="8"
       cx="6" />
    <path
       inkscape:connector-curvature="0"
       id="path18"
       d="M 6,5 H 20.82 A 3,3 0 0 0 18,3 H 6 A 3,3 0 0 0 3.18,5 Z" />
    <path
       inkscape:connector-curvature="0"
       id="path20"
       d="M 19,19 H 3.18 A 3,3 0 0 0 6,21 h 12 a 3,3 0 0 0 2.82,-2 z" />
  </g>
</svg>
