<?xml version="1.0" encoding="UTF-8"?>
<svg version="1.1" viewBox="0 0 11.5 11.5" xmlns="http://www.w3.org/2000/svg">
   <g transform="translate(-65.940654,-228.24068)">
      <path d="m 32.644531,5.4023438 c -0.299981,0 -0.7,0.098891 -1,0.2988281 l -7,4 c -0.6,0.3000941 -1,1.0011651 -1,1.7011721 v 0.904297 L 22.890625,11.875 c -0.299981,-0.199937 -0.7,-0.300781 -1,-0.300781 -0.299981,0 -0.7,0.100844 -1,0.300781 l -7,4 c -0.6,0.300094 -1,0.999212 -1,1.699219 v 1.09375 l -0.78125,-0.447266 c -0.299981,-0.199937 -0.7,-0.300781 -1,-0.300781 -0.299981,0 -0.7,0.100844 -1,0.300781 l -7,4 c -0.6,0.300095 -1,0.999213 -1,1.699219 v 8 c 0,0.699968 0.4,1.401153 1,1.701172 l 7,4 c 0.299981,0.199937 0.599997,0.298828 1,0.298828 0.399999,0 0.7,-0.09889 1,-0.298828 l 7,-4 c 0.6,-0.400025 1,-1.001204 1,-1.701172 v -1.09375 l 0.78125,0.447266 c 0.299981,0.199937 0.599997,0.300781 1,0.300781 0.399999,0 0.7,-0.100844 1,-0.300781 l 7,-4 c 0.6,-0.400026 1,-0.999251 1,-1.699219 v -0.904297 l 0.753906,0.43164 c 0.299981,0.199938 0.599998,0.300782 1,0.300782 0.399999,0 0.7,-0.100844 1,-0.300782 l 7,-4 c 0.6,-0.400025 1,-0.99925 1,-1.699218 v -8 c 0,-0.700007 -0.4,-1.401191 -1,-1.7011721 l -7,-4 c -0.299981,-0.199937 -0.7,-0.2988281 -1,-0.2988281 z m 0,2 6,3.4003902 -6,3.398438 -6,-3.398438 z m 7,5.0996092 v 6.900391 l -6,3.40039 v -6.90039 z m -14,0.09961 6,3.400391 v 6.900391 l -0.753906,-0.439453 v -4.888672 c 0,-0.700007 -0.4,-1.399238 -1,-1.699219 l -4.246094,-2.425781 z m -3.753906,0.972657 1.753906,0.99414 v 0.02344 l 0.01563,-0.02734 2.076172,1.1875 2.154297,1.222656 -1.638672,0.929688 0.002,0.0039 -2.609375,1.466797 v 0.0059 l -1.753906,0.994141 -6,-3.400391 z m 7,5.099609 v 1.539063 h 0.002 v 3.5 h -0.002 v 1.861328 l -6,3.40039 v -6.90039 l 1.728516,-0.980469 0.0078,-0.0039 2.251953,-1.279297 0.002,0.0039 z m -14,0.09961 6,3.40039 v 6.900391 l -0.78125,-0.455078 v -4.699219 c 0,-0.700006 -0.4,-1.399238 -1,-1.699219 l -4.21875,-2.410156 z m -3.78125,1.146484 1.767578,1.001953 0.0039,-0.0059 2.009766,1.146484 0.06641,0.03906 2.152344,1.21875 -1.640625,0.929688 0.0039,0.0078 -2.564453,1.44336 -0.191406,0.107422 -1.607422,0.912109 -6,-3.400391 z m 15.371094,2.220703 -0.0078,0.0059 0.0078,0.0039 z m -8.371094,2.878906 v 1.476563 0.955078 2.232422 0.3125 1.923828 l -6,3.40039 v -6.90039 l 1.837891,-1.041016 -0.002,-0.002 2.265626,-1.285156 0.002,0.002 z m -14,0.101563 6,3.398437 v 6.900391 l -6,-3.5 z" transform="matrix(0.26458333,0,0,0.26458333,65.940654,228.24068)"/>
   </g>
</svg>
