<svg xmlns="http://www.w3.org/2000/svg" viewBox="0 0 325.48 197.18"><g fill="none" stroke="#666" stroke-width="2" stroke-linecap="round" stroke-linejoin="round"><rect x="41.57" y="9.26" width="242.34" height="169.32" rx="6.1" fill="#c1d82f"/><rect x="49.88" y="17.57" width="225.73" height="155.91" rx="2"/><path fill="#fff" d="M52.88 20.57h219.73v155.91H52.88z"/><path d="M14.64 187.91h296.21"/><path d="M305.63 172.43a15.48 15.48 0 01-15.48 15.48H35.34a15.48 15.48 0 01-15.48-15.48 1 1 0 011-1h283.77a1 1 0 011 1z" fill="#c1d82f"/></g><path d="M187.236 172.705a2.663 5.15 0 01-2.663 5.15h-43.84a2.663 5.15 0 01-2.664-5.15.172.333 0 01.172-.332h48.823a.172.333 0 01.172.332z" fill="#788814"/><path fill="#c1d82f" stroke="#c1d82f" d="M117.36 77.7l26.94-26.92h62.86v62.81l-26.94 26.92h-62.86z" stroke-width="2" stroke-linecap="round"/><path d="M154.404 79.59q-.721 0-1.262.451-.45.45-.45 1.172v29.202q0 .721.45 1.262.54.45 1.262.45h28.932q.72 0 1.171.451.541.451.541 1.172v11.897q0 .721-.54 1.262-.451.45-1.172.45H148.996q-.721 0-1.622-.18-.902-.18-1.533-.54l-8.292-8.292q-.36-.631-.54-1.532-.18-.902-.18-1.623V76.436q0-.721.18-1.622.18-.902.54-1.533l8.292-8.292q.631-.27 1.262-.45.721-.27 1.082-.27H183.336q.72 0 1.171.54.541.45.541 1.172v11.897q0 .721-.54 1.262-.451.45-1.172.45z" aria-label="C" font-weight="700" font-size="90.131" font-family="Outage" letter-spacing="0" word-spacing="0" stroke-width="2.253"/></svg>