<?xml version="1.0" encoding="UTF-8" standalone="no"?>
<svg
   xmlns:dc="http://purl.org/dc/elements/1.1/"
   xmlns:cc="http://creativecommons.org/ns#"
   xmlns:rdf="http://www.w3.org/1999/02/22-rdf-syntax-ns#"
   xmlns:svg="http://www.w3.org/2000/svg"
   xmlns="http://www.w3.org/2000/svg"
   version="1.1"
   id="svg2"
   viewBox="0 0 30 30">
  <metadata
     id="metadata14">
    <rdf:RDF>
      <cc:Work
         rdf:about="">
        <dc:format>image/svg+xml</dc:format>
        <dc:type
           rdf:resource="http://purl.org/dc/dcmitype/StillImage" />
        <dc:title></dc:title>
      </cc:Work>
    </rdf:RDF>
  </metadata>
  <defs
     id="defs12" />
  <g
     transform="matrix(0.39263238,0,0,0.39263238,-398.20056,-22.018728)"
     id="g43287">
    <g
       id="g43291"
       transform="translate(140.29418,-30.229133)">
      <path
         id="path43293"
         transform="matrix(0.90257432,0,0,0.90257432,781.34161,-1.828231)"
         d="m 151.56445,105.95703 -0.47851,0.14844 -44.26563,13.53711 0,47.31445 40.98828,6.50781 34.00782,-5.66992 0,-41.81445 -30.25196,-20.02344 z m -0.33789,2.31055 28.47852,18.84765 0,1.63672 -28.54688,-17.2539 0,2.78515 5.00586,3.02344 0.0254,2.40039 -5.03125,-2.88867 0,2.74609 5.06055,2.9043 0.0254,2.3125 -5.08594,-2.75586 0,2.70899 5.11524,2.77148 0.0273,2.62305 -5.14258,-2.60743 0,2.67188 5.19922,2.63672 0,-0.0274 19.72461,-3.50781 0.10938,0.0684 0,0.0488 3.51367,2.12305 0,1.67187 -3.50196,-2.01172 0.0156,2.75586 3.48633,2.00195 0,1.54688 -3.47656,-1.88477 0.0176,2.71875 3.45899,1.875 0,1.78516 -3.44727,-1.74805 0.0156,2.67969 3.43164,1.74024 0,1.99414 -3.41797,-1.62891 0.0156,2.64453 3.40235,1.62305 0,2.17969 -3.38867,-1.4961 0.0156,2.61133 3.37305,1.49023 0,2.37891 -3.35742,-1.37891 0.0156,2.57813 3.3418,1.37109 0,2.34766 -28.54688,-11.05274 0,2.5625 28.54688,11.05079 0,2.0625 -0.01,0.002 -28.58789,-9.96289 c 0,0 -32.36665,7.23104 -41.63867,9.19726 l -0.53516,-0.0859 0,-43.95118 42.29297,-12.93554 z m -0.0684,24.7832 0,2.63672 5.22852,2.49219 -0.0156,-2.64258 -5.21289,-2.48633 z m 0,5.81641 0,2.60351 5.25782,2.32227 -0.0137,-2.60938 -5.24414,-2.3164 z m 0,5.8789 0,2.57032 5.28907,2.16992 -0.0137,-2.57617 -5.27539,-2.16407 z"
         style="color:#000000;font-style:normal;font-variant:normal;font-weight:normal;font-stretch:normal;font-size:medium;line-height:normal;font-family:sans-serif;text-indent:0;text-align:start;text-decoration:none;text-decoration-line:none;text-decoration-style:solid;text-decoration-color:#000000;letter-spacing:normal;word-spacing:normal;text-transform:none;direction:ltr;block-progression:tb;writing-mode:lr-tb;baseline-shift:baseline;text-anchor:start;white-space:normal;clip-rule:nonzero;display:inline;overflow:visible;visibility:visible;opacity:1;isolation:auto;mix-blend-mode:normal;color-interpolation:sRGB;color-interpolation-filters:linearRGB;solid-color:#000000;solid-opacity:1;fill:#000000;fill-opacity:1;fill-rule:nonzero;stroke:none;stroke-width:1;stroke-linecap:butt;stroke-linejoin:miter;stroke-miterlimit:10;stroke-dasharray:none;stroke-dashoffset:0;stroke-opacity:1;color-rendering:auto;image-rendering:auto;shape-rendering:auto;text-rendering:auto;enable-background:accumulate" />
    </g>
  </g>
  <path
     id="rect12570"
     d="m 15.63341,5.5031211 -11.9845428,3.7410593 0,0.3253123 0,12.5534883 L 15.701932,19.42153 15.633398,5.5031211 Z m -11.0985921,4.8159649 10.2465581,2.108283 0.03115,6.285399 -10.2777027,2.303472 0,-10.697154 z"
     style="color:#000000;font-style:normal;font-variant:normal;font-weight:normal;font-stretch:normal;font-size:medium;line-height:normal;font-family:sans-serif;text-indent:0;text-align:start;text-decoration:none;text-decoration-line:none;text-decoration-style:solid;text-decoration-color:#000000;letter-spacing:normal;word-spacing:normal;text-transform:none;direction:ltr;block-progression:tb;writing-mode:lr-tb;baseline-shift:baseline;text-anchor:start;white-space:normal;clip-rule:nonzero;display:inline;overflow:visible;visibility:visible;opacity:1;isolation:auto;mix-blend-mode:normal;color-interpolation:sRGB;color-interpolation-filters:linearRGB;solid-color:#000000;solid-opacity:1;fill:#000000;fill-opacity:1;fill-rule:nonzero;stroke:none;stroke-width:2.5;stroke-linecap:butt;stroke-linejoin:miter;stroke-miterlimit:10;stroke-dasharray:none;stroke-dashoffset:825.36413574;stroke-opacity:1;color-rendering:auto;image-rendering:auto;shape-rendering:auto;text-rendering:auto;enable-background:accumulate" />
</svg>
