<?xml version="1.0" encoding="UTF-8" standalone="no"?>
<svg
   xmlns:dc="http://purl.org/dc/elements/1.1/"
   xmlns:cc="http://creativecommons.org/ns#"
   xmlns:rdf="http://www.w3.org/1999/02/22-rdf-syntax-ns#"
   xmlns:svg="http://www.w3.org/2000/svg"
   xmlns="http://www.w3.org/2000/svg"
   xmlns:sodipodi="http://sodipodi.sourceforge.net/DTD/sodipodi-0.dtd"
   xmlns:inkscape="http://www.inkscape.org/namespaces/inkscape"
   viewBox="0 0 30 30"
   id="svg2"
   version="1.1"
   inkscape:version="0.91 r"
   sodipodi:docname="category_travel.svg">
  <metadata
     id="metadata14">
    <rdf:RDF>
      <cc:Work
         rdf:about="">
        <dc:format>image/svg+xml</dc:format>
        <dc:type
           rdf:resource="http://purl.org/dc/dcmitype/StillImage" />
        <dc:title></dc:title>
      </cc:Work>
    </rdf:RDF>
  </metadata>
  <defs
     id="defs12" />
  <sodipodi:namedview
     pagecolor="#ffffff"
     bordercolor="#666666"
     borderopacity="1"
     objecttolerance="10"
     gridtolerance="10"
     guidetolerance="10"
     inkscape:pageopacity="0"
     inkscape:pageshadow="2"
     inkscape:window-width="1694"
     inkscape:window-height="818"
     id="namedview10"
     showgrid="false"
     showguides="true"
     inkscape:guide-bbox="true"
     inkscape:zoom="12.229428"
     inkscape:cx="8.4664642"
     inkscape:cy="10.756602"
     inkscape:window-x="0"
     inkscape:window-y="31"
     inkscape:window-maximized="0"
     inkscape:current-layer="svg2">
    <sodipodi:guide
       position="18.936083,16.85456"
       orientation="0,1"
       id="guide8083" />
  </sodipodi:namedview>
  <g
     id="g8090"
     transform="translate(-2,2)">
    <path
       style="opacity:1;fill:#000000;fill-opacity:1;fill-rule:nonzero;stroke:none;stroke-width:0.40000001;stroke-linecap:butt;stroke-linejoin:miter;stroke-miterlimit:10;stroke-dasharray:none;stroke-dashoffset:825.36413574;stroke-opacity:1"
       d="m 2.1855469,2.0019531 0,6.6972657 5.4082031,0 0,6.4667972 c 1.920213,2.172093 4.442915,4.933895 6.296875,7.058593 l 3.189453,0 6.296875,-7.066406 0,-6.4589842 4.892578,0 0,-6.6972657 z"
       transform="translate(2,-2)"
       id="rect8074"
       inkscape:connector-curvature="0"
       sodipodi:nodetypes="ccccccccccc" />
    <path
       sodipodi:nodetypes="ccssccsscc"
       inkscape:connector-curvature="0"
       id="path8079"
       d="m 18.45109,20.745468 -2.049648,-0.0087 c 0,0 0.199568,1.101176 -0.08866,1.72428 -0.288232,0.623103 -0.947052,1.436051 -3.398437,1.435547 -5.0969146,-0.001 -5.7413205,0.02044 -5.7413205,0.02044 l -0.013344,1.778386 c 0,0 0.6379717,1.97e-4 5.7995895,0 2.869322,-1.09e-4 4.56617,-1.024107 5.145333,-2.276146 0.579162,-1.252038 0.346495,-2.673856 0.346487,-2.673854 z"
       style="color:#000000;font-style:normal;font-variant:normal;font-weight:normal;font-stretch:normal;font-size:medium;line-height:normal;font-family:sans-serif;text-indent:0;text-align:start;text-decoration:none;text-decoration-line:none;text-decoration-style:solid;text-decoration-color:#000000;letter-spacing:normal;word-spacing:normal;text-transform:none;direction:ltr;block-progression:tb;writing-mode:lr-tb;baseline-shift:baseline;text-anchor:start;white-space:normal;clip-rule:nonzero;display:inline;overflow:visible;visibility:visible;opacity:1;isolation:auto;mix-blend-mode:normal;color-interpolation:sRGB;color-interpolation-filters:linearRGB;solid-color:#000000;solid-opacity:1;fill:#000000;fill-opacity:1;fill-rule:nonzero;stroke:none;stroke-width:1.79999995;stroke-linecap:butt;stroke-linejoin:miter;stroke-miterlimit:10;stroke-dasharray:none;stroke-dashoffset:825.36413574;stroke-opacity:1;color-rendering:auto;image-rendering:auto;shape-rendering:auto;text-rendering:auto;enable-background:accumulate" />
  </g>
  <g
     transform="matrix(1.818153,0,0,1.818153,78.422623,9.0202289)"
     style="font-style:normal;font-weight:normal;font-size:12.5px;line-height:125%;font-family:sans-serif;letter-spacing:0px;word-spacing:0px;fill:#ffffff;fill-opacity:1;stroke:none;stroke-width:1px;stroke-linecap:butt;stroke-linejoin:miter;stroke-opacity:1"
     id="flowRoot8098">
    <path
       d="m -31.928906,-0.54453125 c 0,-1.44999995 -0.85,-2.00000005 -2.525,-2.00000005 -0.825,0 -2.0875,0.375 -2.0875,0.375 l 0.0625,0.7625 c 0,0 1.2375,-0.2874999 1.9375,-0.2874999 1.125,0 1.6625,0.3375 1.6625,1.22499995 0,0.7 -0.2125,0.9875 -1.1125,1.76249995 -0.6625,0.5625 -1.1625,1.05 -1.1625,1.6625 0,0.4250001 0.03529,0.7465992 0.03529,0.7465992 l 0.914706,0.015901 0,-0.4375 c 0,-0.5625 0.375,-0.9499999 1.1125,-1.5625 0.975,-0.81249995 1.1625,-1.18749995 1.1625,-2.26249995 z m -3.2,6.76249995 1.025,0 0,-1.3999999 -1.025,0 z"
       style="font-style:normal;font-variant:normal;font-weight:normal;font-stretch:normal;font-family:Titillium;-inkscape-font-specification:Titillium;fill:#ffffff"
       id="path8107"
       inkscape:connector-curvature="0"
       sodipodi:nodetypes="ssccsscsccscsccccc" />
  </g>
</svg>
