<?xml version="1.0" encoding="UTF-8" standalone="no"?>
<svg
   xmlns:dc="http://purl.org/dc/elements/1.1/"
   xmlns:cc="http://creativecommons.org/ns#"
   xmlns:rdf="http://www.w3.org/1999/02/22-rdf-syntax-ns#"
   xmlns:svg="http://www.w3.org/2000/svg"
   xmlns="http://www.w3.org/2000/svg"
   version="1.1"
   id="svg2"
   viewBox="0 0 30 30">
  <metadata
     id="metadata14">
    <rdf:RDF>
      <cc:Work
         rdf:about="">
        <dc:format>image/svg+xml</dc:format>
        <dc:type
           rdf:resource="http://purl.org/dc/dcmitype/StillImage" />
        <dc:title></dc:title>
      </cc:Work>
    </rdf:RDF>
  </metadata>
  <defs
     id="defs12" />
  <g
     transform="matrix(0.37924718,0,0,0.37924718,-383.84694,-20.552642)"
     id="g43287">
    <g
       id="g43291"
       transform="translate(140.29418,-30.229133)">
      <path
         id="path43293"
         transform="matrix(2.0468499,0,0,2.0468499,796.51381,100.92384)"
         d="m 59.421875,-3.4765625 -0.212891,0.064453 -19.517578,5.9707032 0,20.8632813 18.074219,2.869141 14.996094,-2.5 0,-18.4394536 -13.339844,-8.828125 z m -0.150391,1.0175781 12.558594,8.3125 0,0.7207032 -12.58789,-7.609375 0,1.22851558 12.58789,7.60742182 0,0.7382813 -12.58789,-7.2265625 0,1.2109375 12.58789,7.2265625 0,0.5625 -0.382812,-0.08984 -12.205078,-6.6152341 0,0.7011719 -7.439454,5.9492182 -11.179687,-1.3085932 0,-5.703125 18.648437,-5.7050782 z M 60.414062,5.4375 67.566406,9.3144531 64.136719,8.5117188 62.855469,7.8632812 60.414062,5.4375 Z m -1.171874,4.1542969 0,0.041016 0.664062,0.3164063 2.677734,2.2070308 2.136719,0.08789 7.109375,3.388671 0,0.962891 -12.58789,-5.560547 0,1.146485 12.58789,5.5625 0,1.050781 -12.58789,-5.167969 0,1.132813 12.58789,5.167968 0,1.035157 -12.58789,-4.875 0,1.130859 12.58789,4.873047 0,0.910156 -0.002,0 -12.609375,-4.394531 c 0,0 -15.403903,3.44046 -18.390625,4.052734 l -0.205078,-0.0332 0,-11.673828 11.533203,2.914063 7.085938,-4.2753907 z m 8.15039,2.7636721 2.177734,0.08984 2.259766,1.146485 0,0.878906 -4.4375,-2.115234 z"
         style="color:#000000;font-style:normal;font-variant:normal;font-weight:normal;font-stretch:normal;font-size:medium;line-height:normal;font-family:sans-serif;text-indent:0;text-align:start;text-decoration:none;text-decoration-line:none;text-decoration-style:solid;text-decoration-color:#000000;letter-spacing:normal;word-spacing:normal;text-transform:none;direction:ltr;block-progression:tb;writing-mode:lr-tb;baseline-shift:baseline;text-anchor:start;white-space:normal;clip-rule:nonzero;display:inline;overflow:visible;visibility:visible;opacity:1;isolation:auto;mix-blend-mode:normal;color-interpolation:sRGB;color-interpolation-filters:linearRGB;solid-color:#000000;solid-opacity:1;fill:#000000;fill-opacity:1;fill-rule:nonzero;stroke:none;stroke-width:1;stroke-linecap:butt;stroke-linejoin:miter;stroke-miterlimit:10;stroke-dasharray:none;stroke-dashoffset:0;stroke-opacity:1;color-rendering:auto;image-rendering:auto;shape-rendering:auto;text-rendering:auto;enable-background:accumulate" />
    </g>
  </g>
</svg>
