<?xml version="1.0" encoding="UTF-8" standalone="no"?>
<svg
   xmlns:dc="http://purl.org/dc/elements/1.1/"
   xmlns:cc="http://creativecommons.org/ns#"
   xmlns:rdf="http://www.w3.org/1999/02/22-rdf-syntax-ns#"
   xmlns:svg="http://www.w3.org/2000/svg"
   xmlns="http://www.w3.org/2000/svg"
   xmlns:sodipodi="http://sodipodi.sourceforge.net/DTD/sodipodi-0.dtd"
   xmlns:inkscape="http://www.inkscape.org/namespaces/inkscape"
   viewBox="0 0 30 30"
   id="svg2"
   version="1.1"
   inkscape:version="0.91 r"
   sodipodi:docname="category_experimental.svg">
  <metadata
     id="metadata14">
    <rdf:RDF>
      <cc:Work
         rdf:about="">
        <dc:format>image/svg+xml</dc:format>
        <dc:type
           rdf:resource="http://purl.org/dc/dcmitype/StillImage" />
        <dc:title></dc:title>
      </cc:Work>
    </rdf:RDF>
  </metadata>
  <defs
     id="defs12" />
  <sodipodi:namedview
     pagecolor="#ffffff"
     bordercolor="#666666"
     borderopacity="1"
     objecttolerance="10"
     gridtolerance="10"
     guidetolerance="10"
     inkscape:pageopacity="0"
     inkscape:pageshadow="2"
     inkscape:window-width="1807"
     inkscape:window-height="848"
     id="namedview10"
     showgrid="false"
     inkscape:zoom="8"
     inkscape:cx="23.089367"
     inkscape:cy="16.267968"
     inkscape:window-x="74"
     inkscape:window-y="98"
     inkscape:window-maximized="0"
     inkscape:current-layer="svg2" />
  <g
     id="g21761"
     transform="matrix(0.87323251,0,0,0.87323251,2.1043694,2.4540613)">
    <g
       transform="matrix(0.2486296,0,0,0.2486296,-246.59853,-6.885391)"
       id="g43287">
      <path
         inkscape:connector-curvature="0"
         id="path43289"
         d="m 1058.0823,65.573815 25.7042,17.011919 0,35.100096 -28.7952,4.80043 -35.0814,-5.56759 0,-39.669645 z"
         style="color:#000000;font-style:normal;font-variant:normal;font-weight:normal;font-stretch:normal;font-size:medium;line-height:normal;font-family:sans-serif;text-indent:0;text-align:start;text-decoration:none;text-decoration-line:none;text-decoration-style:solid;text-decoration-color:#000000;letter-spacing:normal;word-spacing:normal;text-transform:none;direction:ltr;block-progression:tb;writing-mode:lr-tb;baseline-shift:baseline;text-anchor:start;white-space:normal;clip-rule:nonzero;display:inline;overflow:visible;visibility:visible;opacity:1;isolation:auto;mix-blend-mode:normal;color-interpolation:sRGB;color-interpolation-filters:linearRGB;solid-color:#000000;solid-opacity:1;fill:#ffffff;fill-opacity:1;fill-rule:nonzero;stroke:none;stroke-width:1;stroke-linecap:butt;stroke-linejoin:miter;stroke-miterlimit:10;stroke-dasharray:none;stroke-dashoffset:0;stroke-opacity:1;color-rendering:auto;image-rendering:auto;shape-rendering:auto;text-rendering:auto;enable-background:accumulate"
         sodipodi:nodetypes="ccccccc" />
      <g
         id="g43291"
         transform="translate(140.29418,-30.229133)">
        <path
           id="path43293"
           transform="matrix(4.0220473,0,0,4.0220473,851.53676,57.922501)"
           d="m 19.933594,7.8105469 c -1.120763,2e-7 -2.068039,0.7517955 -2.367188,1.7773437 l -1.007812,-0.6660156 -0.107422,0.033203 -9.9316408,3.03711 0,10.61914 9.1972658,1.458984 7.630859,-1.271484 0,-9.382812 -1.871094,-1.238282 c 0.556083,-0.452711 0.923829,-1.129219 0.923829,-1.90039 0,-1.360045 -1.106754,-2.4667975 -2.466797,-2.4667972 z m 0,0.3984375 C 21.077464,8.2089841 22,9.1334751 22,10.277344 c 0,0.694855 -0.351331,1.29364 -0.875,1.667968 L 17.917969,9.8222656 C 18.125095,8.898321 18.946378,8.2089845 19.933594,8.2089844 Z m -3.449219,1.2304687 6.390625,4.2304689 0,0.367187 -6.40625,-3.873047 0,0.625 6.40625,3.873047 0,0.375 -6.40625,-3.677734 0,0.615234 6.40625,3.677735 0,0.347656 -6.40625,-3.472656 0,0.607422 6.40625,3.472656 0,0.402344 -6.40625,-3.248047 0,0.576172 -9.4765625,2.695312 0,-4.689453 9.4921875,-2.9042969 z"
           style="color:#000000;font-style:normal;font-variant:normal;font-weight:normal;font-stretch:normal;font-size:medium;line-height:normal;font-family:sans-serif;text-indent:0;text-align:start;text-decoration:none;text-decoration-line:none;text-decoration-style:solid;text-decoration-color:#000000;letter-spacing:normal;word-spacing:normal;text-transform:none;direction:ltr;block-progression:tb;writing-mode:lr-tb;baseline-shift:baseline;text-anchor:start;white-space:normal;clip-rule:nonzero;display:inline;overflow:visible;visibility:visible;opacity:1;isolation:auto;mix-blend-mode:normal;color-interpolation:sRGB;color-interpolation-filters:linearRGB;solid-color:#000000;solid-opacity:1;fill:#000000;fill-opacity:1;fill-rule:nonzero;stroke:none;stroke-width:1;stroke-linecap:butt;stroke-linejoin:miter;stroke-miterlimit:10;stroke-dasharray:none;stroke-dashoffset:0;stroke-opacity:1;color-rendering:auto;image-rendering:auto;shape-rendering:auto;text-rendering:auto;enable-background:accumulate"
           inkscape:connector-curvature="0" />
      </g>
    </g>
    <path
       inkscape:connector-curvature="0"
       id="path21693"
       d="m 12.796006,18.004881 a 1.5752334,1.7134618 0 0 0 -1.574708,1.714843 1.5752334,1.7134618 0 0 0 0.615878,1.357422 l 2.384507,-0.632812 a 1.5752334,1.7134618 0 0 0 0.149032,-0.72461 1.5752334,1.7134618 0 0 0 -1.574709,-1.714843 z"
       style="opacity:1;fill:#ffffff;fill-opacity:1;fill-rule:nonzero;stroke:none;stroke-width:13.5;stroke-linecap:butt;stroke-linejoin:miter;stroke-miterlimit:10;stroke-dasharray:none;stroke-dashoffset:825.36413574;stroke-opacity:1" />
    <path
       id="path21693-3"
       d="m 21.747919,19.788336 a 1.3127134,1.0085997 88.319649 0 1 0.959179,1.394048 1.3127134,1.0085997 88.319649 0 1 -0.432185,1.005153 l -1.507679,-0.609655 a 1.3127134,1.0085997 88.319649 0 1 -0.07496,-0.561793 1.3127134,1.0085997 88.319649 0 1 1.055646,-1.227753 z"
       style="opacity:1;fill:#ffffff;fill-opacity:1;fill-rule:nonzero;stroke:none;stroke-width:13.5;stroke-linecap:butt;stroke-linejoin:miter;stroke-miterlimit:10;stroke-dasharray:none;stroke-dashoffset:825.36413574;stroke-opacity:1"
       inkscape:connector-curvature="0" />
    <ellipse
       ry="1.2989146"
       rx="1.0225497"
       cy="16.927946"
       cx="18.875717"
       id="path21719"
       style="opacity:1;fill:#ffffff;fill-opacity:1;fill-rule:nonzero;stroke:none;stroke-width:13.5;stroke-linecap:butt;stroke-linejoin:miter;stroke-miterlimit:10;stroke-dasharray:none;stroke-dashoffset:825.36413574;stroke-opacity:1" />
    <ellipse
       transform="matrix(0.74816858,0.66350869,-0.64623469,0.76313873,0,0)"
       ry="1.4186035"
       rx="1.3320978"
       cy="5.3140979"
       cx="17.757917"
       id="path21721"
       style="opacity:1;fill:none;fill-opacity:1;fill-rule:nonzero;stroke:#000000;stroke-width:0.52317816;stroke-linecap:butt;stroke-linejoin:miter;stroke-miterlimit:10;stroke-dasharray:none;stroke-dashoffset:825.36413574;stroke-opacity:1" />
    <circle
       r="1.8931508"
       cy="11.981177"
       cx="14.024409"
       id="path21728"
       style="opacity:1;fill:none;fill-opacity:1;fill-rule:nonzero;stroke:#000000;stroke-width:0.46575138;stroke-linecap:butt;stroke-linejoin:miter;stroke-miterlimit:10;stroke-dasharray:none;stroke-dashoffset:825.36413574;stroke-opacity:1" />
    <circle
       r="1.7196909"
       cy="7.3313451"
       cx="11.412495"
       id="path21728-6"
       style="opacity:1;fill:none;fill-opacity:1;fill-rule:nonzero;stroke:#000000;stroke-width:0.40000001;stroke-linecap:butt;stroke-linejoin:miter;stroke-miterlimit:10;stroke-dasharray:none;stroke-dashoffset:825.36413574;stroke-opacity:1" />
    <circle
       style="opacity:1;fill:none;fill-opacity:1;fill-rule:nonzero;stroke:#000000;stroke-width:0.40000001;stroke-linecap:butt;stroke-linejoin:miter;stroke-miterlimit:10;stroke-dasharray:none;stroke-dashoffset:825.36413574;stroke-opacity:1"
       id="circle21747"
       cx="15.789888"
       cy="4.9081445"
       r="1.4851876" />
  </g>
</svg>
