<?xml version="1.0" encoding="UTF-8" standalone="no"?>
<svg
   xmlns:dc="http://purl.org/dc/elements/1.1/"
   xmlns:cc="http://creativecommons.org/ns#"
   xmlns:rdf="http://www.w3.org/1999/02/22-rdf-syntax-ns#"
   xmlns:svg="http://www.w3.org/2000/svg"
   xmlns="http://www.w3.org/2000/svg"
   xmlns:sodipodi="http://sodipodi.sourceforge.net/DTD/sodipodi-0.dtd"
   xmlns:inkscape="http://www.inkscape.org/namespaces/inkscape"
   version="1.1"
   id="svg2"
   viewBox="0 0 30 30"
   inkscape:version="0.91 r"
   sodipodi:docname="category_blackmagic.svg">
  <sodipodi:namedview
     pagecolor="#ffffff"
     bordercolor="#666666"
     borderopacity="1"
     objecttolerance="10"
     gridtolerance="10"
     guidetolerance="10"
     inkscape:pageopacity="0"
     inkscape:pageshadow="2"
     inkscape:window-width="1657"
     inkscape:window-height="889"
     id="namedview23"
     showgrid="false"
     inkscape:zoom="13.563206"
     inkscape:cx="14.239967"
     inkscape:cy="19.816141"
     inkscape:window-x="192"
     inkscape:window-y="96"
     inkscape:window-maximized="0"
     inkscape:current-layer="svg2" />
  <metadata
     id="metadata20">
    <rdf:RDF>
      <cc:Work
         rdf:about="">
        <dc:format>image/svg+xml</dc:format>
        <dc:type
           rdf:resource="http://purl.org/dc/dcmitype/StillImage" />
        <dc:title />
      </cc:Work>
    </rdf:RDF>
  </metadata>
  <defs
     id="defs18" />
  <g
     transform="matrix(1.5656028,0,0,1.5656028,-9.3962595,-7.2597491)"
     id="g21608">
    <path
       style="opacity:1;fill:#000000;fill-opacity:1;fill-rule:nonzero;stroke:none;stroke-width:2.5;stroke-linecap:butt;stroke-linejoin:miter;stroke-miterlimit:10;stroke-dasharray:none;stroke-dashoffset:825.36413574;stroke-opacity:1"
       d="M 15.775391 0.32421875 C 13.811831 0.2596954 11.924497 0.65594704 10.951172 1.6367188 L 10.503906 9.2929688 C 11.564117 7.9989691 17.504244 7.2420927 20.828125 10.710938 C 20.810739 10.708377 20.777566 10.703808 20.759766 10.701172 C 19.328888 10.11935 17.540995 9.6709872 15.550781 9.4726562 C 10.690778 8.9883421 6.5972781 10.133919 6.4082031 12.03125 C 6.3854504 12.259567 6.4746441 12.413115 6.6523438 12.507812 L 3.25 13.546875 L 3.25 27.699219 L 15.511719 29.644531 L 25.683594 27.949219 L 25.683594 15.441406 L 23.796875 14.189453 C 23.910183 14.115257 23.98737 13.990294 24.007812 13.785156 C 24.109897 12.760753 23.028543 11.734786 21.269531 10.923828 L 21.957031 2.5859375 C 20.951996 1.2499716 18.299967 0.40717735 15.775391 0.32421875 z M 16.449219 10.169922 C 16.496739 10.174132 16.544563 10.179186 16.591797 10.183594 L 25.050781 15.78125 L 25.050781 16.269531 L 16.513672 11.109375 L 16.513672 11.943359 L 25.050781 17.103516 L 25.050781 17.603516 L 16.513672 12.701172 L 16.513672 13.523438 L 25.050781 18.423828 L 25.050781 18.888672 L 16.513672 14.259766 L 16.513672 15.068359 L 25.050781 19.699219 L 25.050781 20.232422 L 16.513672 15.902344 L 16.513672 16.703125 L 25.050781 21.03125 L 25.050781 21.626953 L 16.513672 17.556641 L 16.513672 18.345703 L 25.050781 22.416016 L 25.050781 23.068359 L 16.513672 19.296875 L 16.513672 20.076172 L 25.050781 23.847656 L 25.050781 24.560547 L 16.513672 21.054688 L 16.513672 21.824219 L 25.050781 25.330078 L 25.050781 26.029297 L 16.513672 22.724609 L 16.513672 23.490234 L 25.050781 26.794922 L 25.050781 27.414062 L 25.048828 27.414062 L 16.498047 24.433594 C 16.498047 24.433594 5.4545483 26.8982 4.0097656 27.179688 L 3.8828125 27.160156 L 3.8828125 14.013672 L 16.449219 10.169922 z "
       transform="matrix(0.63873161,0,0,0.63873161,6.001688,4.6370312)"
       id="path17124" />
    <g
       id="g43287"
       transform="matrix(0.21167148,0,0,0.21167148,-207.41385,-2.7825191)">
      <g
         transform="translate(140.29418,-30.229133)"
         id="g43291" />
    </g>
    <g
       style="font-style:normal;font-weight:normal;font-size:40px;line-height:125%;font-family:sans-serif;letter-spacing:0px;word-spacing:0px;fill:#000000;fill-opacity:1;stroke:none;stroke-width:1px;stroke-linecap:butt;stroke-linejoin:miter;stroke-opacity:1"
       id="flowRoot17113"
       transform="matrix(0.25288467,-0.06867211,0,0.25288467,0.10184503,22.309531)">
      <path
         d="m 45.863281,0.95981019 3.964844,0 0,4.96093751 -3.964844,0 0,-4.96093751 z m 3.847656,-2.87109379 -3.730468,0 0,-3.0078125 q 0,-1.9726562 0.546875,-3.2421875 0.546875,-1.2695312 2.304687,-2.9492184 l 1.757813,-1.738282 q 1.113281,-1.035156 1.601562,-1.953125 0.507813,-0.917968 0.507813,-1.875 0,-1.738281 -1.289063,-2.8125 -1.269531,-1.074218 -3.378906,-1.074218 -1.542969,0 -3.300781,0.683593 -1.738282,0.683594 -3.632813,1.992188 l 0,-3.671875 q 1.835938,-1.113281 3.710938,-1.660156 1.894531,-0.546875 3.90625,-0.546875 3.59375,0 5.761718,1.894531 2.1875,1.894531 2.1875,5 0,1.484375 -0.703125,2.832031 -0.703125,1.328125 -2.460937,3.007813 l -1.71875,1.6796872 q -0.917969,0.9179687 -1.308594,1.4453125 -0.371094,0.5078125 -0.527344,0.9960937 -0.117187,0.4101563 -0.175781,0.9960938 -0.05859,0.5859375 -0.05859,1.6015625 l 0,2.4023437 z"
         id="path17122" />
    </g>
  </g>
</svg>
