<?xml version="1.0" encoding="UTF-8" standalone="no"?>
<svg
   xmlns:dc="http://purl.org/dc/elements/1.1/"
   xmlns:cc="http://creativecommons.org/ns#"
   xmlns:rdf="http://www.w3.org/1999/02/22-rdf-syntax-ns#"
   xmlns:svg="http://www.w3.org/2000/svg"
   xmlns="http://www.w3.org/2000/svg"
   version="1.1"
   id="svg38008"
   viewBox="0 0 283.46457 283.46457"
   height="80mm"
   width="80mm">
  <defs
     id="defs38010" />
  <metadata
     id="metadata38013">
    <rdf:RDF>
      <cc:Work
         rdf:about="">
        <dc:format>image/svg+xml</dc:format>
        <dc:type
           rdf:resource="http://purl.org/dc/dcmitype/StillImage" />
        <dc:title></dc:title>
      </cc:Work>
    </rdf:RDF>
  </metadata>
  <g
     transform="translate(0,-768.89763)"
     id="layer1">
    <path
       id="polygon2361-5-5"
       transform="translate(0,768.89763)"
       d="M 143.02734 36.121094 L 108.24414 91.935547 L 112.08789 91.935547 L 128.66406 91.935547 L 128.66406 121.67578 L 79.818359 136.61328 L 79.818359 164.04297 L 47.666016 159.54102 L 47.666016 135.75391 L 44.201172 138.50195 L 5.7285156 169.05469 L 47.666016 215.51758 L 47.666016 192.87695 L 79.818359 195.77148 L 79.818359 215.77734 L 148.39844 226.66406 L 205.29883 217.17773 L 205.29883 195.56055 L 234.8418 192.87695 L 235.25586 215.44727 L 276.72266 169.0625 L 235.23438 135.7832 L 235.1582 140.13867 L 234.82812 159.54102 L 205.29883 163.7207 L 205.29883 147.2168 L 157.75586 115.74805 L 157.75586 91.935547 L 177.81836 91.935547 L 143.02734 36.121094 z M 143.02734 44.1875 L 170.13086 87.669922 L 153.49023 87.669922 L 153.49023 114.08203 L 132.92969 120.37109 L 132.92969 87.669922 L 115.93164 87.669922 L 143.02734 44.1875 z M 154.11523 117.58008 L 201.76367 149.11523 L 201.76367 151.85156 L 154.00195 122.98438 L 154.00195 127.64258 L 201.76367 156.50781 L 201.76367 159.30469 L 154.00195 131.88672 L 154.00195 136.48047 L 201.76367 163.90039 L 201.76367 166.48633 L 154.00195 140.59766 L 154.00195 145.13086 L 201.76367 171.01953 L 201.76367 174.00586 L 154.00195 149.79492 L 154.00195 154.26562 L 201.76367 178.47656 L 201.76367 181.81641 L 154.00195 159.04492 L 154.00195 163.45898 L 201.76367 186.23047 L 201.76367 189.875 L 154.00195 168.77734 L 154.00195 173.13281 L 201.76367 194.23438 L 201.76367 198.2168 L 154.00195 178.61133 L 154.00195 182.91406 L 201.76367 202.51758 L 201.76367 206.44336 L 154.00195 187.95312 L 154.00195 192.24023 L 201.76367 210.73047 L 201.76367 214.18164 L 201.74805 214.18359 L 153.91602 197.51367 C 153.91602 197.51367 99.771662 209.61157 84.253906 212.90234 L 83.353516 212.75977 L 83.353516 139.22266 L 154.11523 117.58008 z M 239.35352 144.55859 L 270.53906 169.57422 L 239.32422 204.49219 L 239.02344 188.21094 L 205.29883 191.27539 L 205.29883 168.02734 L 239.03711 163.25781 L 239.35352 144.55859 z M 43.400391 144.59375 L 43.400391 163.25781 L 79.378906 168.29688 L 79.378906 191.44336 L 43.400391 188.21094 L 43.400391 204.42188 L 11.941406 169.57422 L 43.400391 144.59375 z "
       style="color:#000000;font-style:normal;font-variant:normal;font-weight:normal;font-stretch:normal;font-size:medium;line-height:normal;font-family:sans-serif;text-indent:0;text-align:start;text-decoration:none;text-decoration-line:none;text-decoration-style:solid;text-decoration-color:#000000;letter-spacing:normal;word-spacing:normal;text-transform:none;direction:ltr;block-progression:tb;writing-mode:lr-tb;baseline-shift:baseline;text-anchor:start;white-space:normal;clip-rule:nonzero;display:inline;overflow:visible;visibility:visible;opacity:1;isolation:auto;mix-blend-mode:normal;color-interpolation:sRGB;color-interpolation-filters:linearRGB;solid-color:#000000;solid-opacity:1;fill:#000000;fill-opacity:1;fill-rule:nonzero;stroke:none;stroke-width:1.18631721;stroke-linecap:butt;stroke-linejoin:miter;stroke-miterlimit:10;stroke-dasharray:none;stroke-dashoffset:0;stroke-opacity:1;color-rendering:auto;image-rendering:auto;shape-rendering:auto;text-rendering:auto;enable-background:accumulate" />
    <g
       transform="matrix(1.8537491,0,0,1.8537491,-1807.3892,764.75595)"
       id="g37525">
      <g
         id="g37529"
         transform="translate(140.29418,-30.229133)" />
    </g>
  </g>
</svg>
