<?xml version="1.0" encoding="UTF-8" standalone="no"?>
<svg
   xmlns:dc="http://purl.org/dc/elements/1.1/"
   xmlns:cc="http://creativecommons.org/ns#"
   xmlns:rdf="http://www.w3.org/1999/02/22-rdf-syntax-ns#"
   xmlns:svg="http://www.w3.org/2000/svg"
   xmlns="http://www.w3.org/2000/svg"
   xmlns:sodipodi="http://sodipodi.sourceforge.net/DTD/sodipodi-0.dtd"
   xmlns:inkscape="http://www.inkscape.org/namespaces/inkscape"
   viewBox="0 0 30 30"
   id="svg2"
   version="1.1"
   inkscape:version="0.91 r"
   sodipodi:docname="tab_monitor_busy.svg">
  <metadata
     id="metadata18">
    <rdf:RDF>
      <cc:Work
         rdf:about="">
        <dc:format>image/svg+xml</dc:format>
        <dc:type
           rdf:resource="http://purl.org/dc/dcmitype/StillImage" />
        <dc:title></dc:title>
      </cc:Work>
    </rdf:RDF>
  </metadata>
  <defs
     id="defs16" />
  <sodipodi:namedview
     pagecolor="#ffffff"
     bordercolor="#666666"
     borderopacity="1"
     objecttolerance="10"
     gridtolerance="10"
     guidetolerance="10"
     inkscape:pageopacity="0"
     inkscape:pageshadow="2"
     inkscape:window-width="1810"
     inkscape:window-height="688"
     id="namedview14"
     showgrid="false"
     inkscape:zoom="13.841332"
     inkscape:cx="46.406717"
     inkscape:cy="15.013523"
     inkscape:window-x="1991"
     inkscape:window-y="71"
     inkscape:window-maximized="0"
     inkscape:current-layer="svg2" />
  <g
     transform="matrix(1.5899465,0,0,1.5899465,-0.61775243,0.09141122)"
     id="g8084">
    <path
       inkscape:connector-curvature="0"
       id="rect8070"
       d="m 3.3632812,3.9316406 0,0.6855469 0,2.375 -2.5429687,0 0,9.9062505 2.5429687,0 0,0.0078 14.8417968,0 0,-12.9746094 -14.8417968,0 z m 1.3691407,1.3691406 12.1035161,0 0,3.7636719 -3.869141,0 0,-0.7714843 -4.0468751,0 0,0.7714843 -4.1875,0 0,-3.7636719 z m -2.0859375,3.5488282 1.109375,1.9218746 -2.21875,0 1.109375,-1.9218746 z M 10.857422,9.140625 a 0.9935109,0.9935109 0 0 1 0.99414,0.994141 0.9935109,0.9935109 0 0 1 -0.99414,0.992187 0.9935109,0.9935109 0 0 1 -0.9921876,-0.992187 0.9935109,0.9935109 0 0 1 0.9921876,-0.994141 z m -6.1250001,0.453125 4.1875,0 0,1.306641 -4.1875,0 0,-1.306641 z m 8.2343751,0 3.869141,0 0,1.306641 -3.869141,0 0,-1.306641 z m -8.2343751,1.8125 3.6953125,0 0.3632812,1.365234 1.6464844,-0.326172 0,0.470704 0.423828,0.255859 0.369141,-0.255859 0,-0.476563 1.876953,0.416016 0.324219,-1.449219 3.404297,0 0,4.128906 -3.546876,0 0,-0.638672 1.783204,0 0,-0.773437 -8.3242191,0 0,0.773437 1.7832031,0 0,0.638672 -3.7988281,0 0,-4.128906 z"
       style="opacity:1;fill:#ffffff;fill-opacity:1;fill-rule:nonzero;stroke:none;stroke-width:0.125;stroke-linecap:butt;stroke-linejoin:miter;stroke-miterlimit:10;stroke-dasharray:none;stroke-dashoffset:825.36413574;stroke-opacity:1" />
    <circle
       r="0.36090249"
       style="opacity:1;fill:#ffffff;fill-opacity:1;fill-rule:nonzero;stroke:none;stroke-width:2.42499995;stroke-linecap:butt;stroke-linejoin:miter;stroke-miterlimit:10;stroke-dasharray:none;stroke-dashoffset:825.36413574;stroke-opacity:1"
       id="circle8134"
       cx="10.870782"
       cy="10.134058" />
  </g>
  <circle
     cx="22.28326"
     cy="7.644495"
     r="7.5"
     id="circle6"
     style="fill:#0ca9e3" />
  <circle
     cx="22.5"
     cy="7.5"
     r="1.5"
     fill="#fff"
     id="circle8" />
  <circle
     r="1.5"
     cy="7.5"
     cx="18.5"
     fill="#fff"
     id="circle10" />
  <circle
     cx="26.5"
     cy="7.5"
     r="1.5"
     fill="#fff"
     id="circle12" />
</svg>
