<?xml version="1.0" encoding="UTF-8" standalone="no"?>
<svg
   xmlns:dc="http://purl.org/dc/elements/1.1/"
   xmlns:cc="http://creativecommons.org/ns#"
   xmlns:rdf="http://www.w3.org/1999/02/22-rdf-syntax-ns#"
   xmlns:svg="http://www.w3.org/2000/svg"
   xmlns="http://www.w3.org/2000/svg"
   version="1.1"
   id="svg38008"
   viewBox="0 0 283.46457 283.46457"
   height="80mm"
   width="80mm">
  <defs
     id="defs38010" />
  <metadata
     id="metadata38013">
    <rdf:RDF>
      <cc:Work
         rdf:about="">
        <dc:format>image/svg+xml</dc:format>
        <dc:type
           rdf:resource="http://purl.org/dc/dcmitype/StillImage" />
        <dc:title></dc:title>
      </cc:Work>
    </rdf:RDF>
  </metadata>
  <g
     transform="translate(0,-768.89763)"
     id="layer1">
    <g
       transform="matrix(2.7207101,0,0,2.7207101,-2622.8574,-2803.7709)"
       id="g37977">
      <g
         id="g37944"
         transform="translate(-166,-1.5)">
        <g
           transform="matrix(0.90977681,0,0,0.90977681,72.337038,127.90864)"
           id="g37917">
          <path
             id="rect37864"
             transform="matrix(0.4040014,0,0,0.4040014,1162.5896,1304.4184)"
             d="M 139.13477 76.886719 C 136.46187 76.868456 133.84292 76.907865 131.27539 77.003906 C 90.136894 79.565727 66.30609 90.772109 44.800781 106.33594 C 31.352855 117.37794 19.61467 126.92118 15.691406 143.50391 C 16.655082 155.57815 29.345052 166.57155 37.242188 172.67383 C 54.030873 185.36132 79.369679 196.86063 134.96875 201.30273 C 194.69949 206.0754 229.21011 185.85205 273.20508 154.73828 L 275.89258 152.83984 L 273.34961 150.75 C 236.2783 120.28158 225.43334 81.055785 147.3125 77.121094 C 144.53357 76.981113 141.80766 76.904982 139.13477 76.886719 z M 132.23828 91.722656 C 134.37679 91.754862 136.54144 91.816653 138.75195 91.927734 C 139.0812 91.944317 139.38973 91.968864 139.7168 91.986328 L 140.12695 110.57812 A 25.900214 25.900214 0 0 0 137.64453 110.95117 L 132.23828 91.722656 z M 126.1875 91.732422 L 131.67578 108.70312 A 11.66141 11.66141 0 0 1 137.0293 119.45508 A 11.66141 11.66141 0 0 1 124.47656 130.15039 A 11.66141 11.66141 0 0 1 114.31445 122.11719 L 93.748047 113.48438 C 95.179955 110.54996 96.868368 107.76338 98.789062 105.1582 L 113.88867 116.70703 A 11.66141 11.66141 0 0 1 116.05078 111.57227 L 102.66211 100.48633 C 104.87854 98.096856 107.30439 95.901818 109.91992 93.947266 L 120.10156 108.15625 A 11.66141 11.66141 0 0 1 125.70898 106.88281 L 116.04492 92.232422 C 118.36764 92.045498 120.73335 91.900096 123.1543 91.810547 C 124.15458 91.773445 125.17038 91.752016 126.1875 91.732422 z M 145.41992 92.335938 C 148.04303 92.524548 150.57841 92.748575 153.05859 92.996094 L 147.9043 110.9375 A 25.900214 25.900214 0 0 0 145.11719 110.53711 L 145.41992 92.335938 z M 106.33984 93.318359 C 93.689559 103.67412 85.609375 119.40798 85.609375 137.01953 C 85.609375 168.18254 110.90144 193.47461 142.06445 193.47461 C 173.22747 193.47461 198.51953 168.18254 198.51953 137.01953 C 198.51953 121.9257 192.57405 108.22028 182.91406 98.087891 C 223.1658 108.37163 240.22475 129.42318 267.64062 152.43359 C 225.31998 182.24605 196.31039 199.65767 139.02148 195.08008 C 84.083282 190.69076 54.4617 177.37368 38.646484 165.42188 C 31.477141 159.42187 24.341989 153.05394 21.191406 144.19531 C 21.971978 142.83768 29.3922 130.17735 47.189453 117.01562 C 60.837693 106.92263 80.160289 97.093809 106.33984 93.318359 z M 158.86328 93.638672 C 162.04383 94.031701 165.08381 94.484393 168.0332 94.976562 L 155.4375 113.75781 A 25.900214 25.900214 0 0 0 152.67773 112.4082 L 158.86328 93.638672 z M 174.43945 96.148438 C 175.56747 96.376073 176.66734 96.616621 177.76172 96.859375 C 179.72995 98.610001 181.57098 100.5018 183.26367 102.52148 L 161.94727 118.98438 A 25.900214 25.900214 0 0 0 159.53906 116.61133 L 174.43945 96.148438 z M 186.875 107.35938 C 188.62594 110.00059 190.15139 112.8047 191.41992 115.74609 L 166.17188 125.3457 A 25.900214 25.900214 0 0 0 164.92383 122.99805 L 186.875 107.35938 z M 91.402344 119.0918 L 117.91992 129.0332 A 25.900214 25.900214 0 0 0 117.2832 131.66992 L 88.939453 128.91016 C 89.451715 125.52123 90.288359 122.24064 91.402344 119.0918 z M 193.49414 121.42188 C 194.59788 125.06961 195.31492 128.88333 195.61914 132.81445 L 168.47656 133.6582 A 25.900214 25.900214 0 0 0 167.84766 130.05469 L 193.49414 121.42188 z M 88.382812 134.96875 L 116.85547 136.63477 A 25.900214 25.900214 0 0 0 117.04102 139.24023 L 88.912109 144.91992 C 88.532626 142.34125 88.330078 139.70419 88.330078 137.01953 C 88.330078 136.33147 88.357222 135.65051 88.382812 134.96875 z M 168.52539 138.6582 L 195.75195 138.86523 C 195.63165 142.42911 195.1635 145.90132 194.38281 149.25586 L 168.06445 141.71094 A 25.900214 25.900214 0 0 0 168.52539 138.6582 z M 118.07617 144.11523 A 25.900214 25.900214 0 0 0 118.96875 146.51953 L 93.564453 160.18359 C 92.150045 157.22529 91.0036 154.11471 90.144531 150.88672 L 118.07617 144.11523 z M 166.5625 146.48047 L 192.68359 155.07422 C 191.65756 157.95337 190.39138 160.71537 188.91211 163.34375 L 165.5293 148.61719 A 25.900214 25.900214 0 0 0 166.5625 146.48047 z M 121.36328 150.89062 A 25.900214 25.900214 0 0 0 122.92188 152.94922 L 102.54688 173.43164 C 100.29965 170.9938 98.278962 168.34637 96.509766 165.52344 L 121.36328 150.89062 z M 162.73633 152.76367 L 185.63867 168.45703 C 183.74876 171.07292 181.63057 173.51014 179.31055 175.74219 L 160.98047 154.69141 A 25.900214 25.900214 0 0 0 162.73633 152.76367 z M 126.47656 156.44531 A 25.900214 25.900214 0 0 0 128.64453 158.01758 L 115.19141 183.55273 C 112.25026 181.85153 109.48769 179.88064 106.93359 177.67188 L 126.47656 156.44531 z M 157.10352 157.84961 L 174.70117 179.70703 C 172.26999 181.56815 169.67498 183.22264 166.94141 184.65234 L 155.08984 159.05664 A 25.900214 25.900214 0 0 0 157.10352 157.84961 z M 133.07031 160.32422 A 25.900214 25.900214 0 0 0 135.67578 161.21289 L 130.39453 189.46875 C 127.01208 188.7203 123.74977 187.65894 120.64062 186.30664 L 133.07031 160.32422 z M 150.48828 161.00391 L 161.39258 187.16016 C 158.51222 188.27025 155.51561 189.1443 152.41992 189.74805 L 148.19141 161.60742 A 25.900214 25.900214 0 0 0 150.48828 161.00391 z M 140.58594 162.11133 A 25.900214 25.900214 0 0 0 142.74219 162.21875 A 25.900214 25.900214 0 0 0 143.23242 162.20117 L 146.38086 190.56641 C 144.95528 190.67968 143.51933 190.75391 142.06445 190.75391 C 140.15548 190.75391 138.27143 190.65089 136.41406 190.45703 L 140.58594 162.11133 z "
             style="color:#000000;font-style:normal;font-variant:normal;font-weight:normal;font-stretch:normal;font-size:medium;line-height:normal;font-family:sans-serif;text-indent:0;text-align:start;text-decoration:none;text-decoration-line:none;text-decoration-style:solid;text-decoration-color:#000000;letter-spacing:normal;word-spacing:normal;text-transform:none;direction:ltr;block-progression:tb;writing-mode:lr-tb;baseline-shift:baseline;text-anchor:start;white-space:normal;clip-rule:nonzero;display:inline;overflow:visible;visibility:visible;opacity:1;isolation:auto;mix-blend-mode:normal;color-interpolation:sRGB;color-interpolation-filters:linearRGB;solid-color:#000000;solid-opacity:1;fill:#000000;fill-opacity:1;fill-rule:nonzero;stroke:none;stroke-width:2;stroke-linecap:butt;stroke-linejoin:miter;stroke-miterlimit:10;stroke-dasharray:none;stroke-dashoffset:825.36413574;stroke-opacity:1;color-rendering:auto;image-rendering:auto;shape-rendering:auto;text-rendering:auto;enable-background:accumulate" />
          <path
             style="color:#000000;font-style:normal;font-variant:normal;font-weight:normal;font-stretch:normal;font-size:medium;line-height:normal;font-family:sans-serif;text-indent:0;text-align:start;text-decoration:none;text-decoration-line:none;text-decoration-style:solid;text-decoration-color:#000000;letter-spacing:normal;word-spacing:normal;text-transform:none;direction:ltr;block-progression:tb;writing-mode:lr-tb;baseline-shift:baseline;text-anchor:start;white-space:normal;clip-rule:nonzero;display:inline;overflow:visible;visibility:visible;opacity:1;isolation:auto;mix-blend-mode:normal;color-interpolation:sRGB;color-interpolation-filters:linearRGB;solid-color:#000000;solid-opacity:1;fill:#000000;fill-opacity:1;fill-rule:nonzero;stroke:none;stroke-width:2;stroke-linecap:butt;stroke-linejoin:miter;stroke-miterlimit:10;stroke-dasharray:none;stroke-dashoffset:825.36413574;stroke-opacity:1;color-rendering:auto;image-rendering:auto;shape-rendering:auto;text-rendering:auto;enable-background:accumulate"
             d="m 1231.9044,1340.6578 -8.8088,13.1344 1.5214,1.0697 9.3084,-12.7832 z"
             id="path37877" />
        </g>
      </g>
    </g>
  </g>
</svg>
