<?xml version="1.0" encoding="UTF-8" standalone="no"?>
<svg
   xmlns:dc="http://purl.org/dc/elements/1.1/"
   xmlns:cc="http://creativecommons.org/ns#"
   xmlns:rdf="http://www.w3.org/1999/02/22-rdf-syntax-ns#"
   xmlns:svg="http://www.w3.org/2000/svg"
   xmlns="http://www.w3.org/2000/svg"
   viewBox="0 0 30 30"
   id="svg2"
   version="1.1"
   width="32"
   height="32">
  <metadata
     id="metadata10">
    <rdf:RDF>
      <cc:Work
         rdf:about="">
        <dc:format>image/svg+xml</dc:format>
        <dc:type
           rdf:resource="http://purl.org/dc/dcmitype/StillImage" />
        <dc:title></dc:title>
      </cc:Work>
    </rdf:RDF>
  </metadata>
  <defs
     id="defs8" />
  <path
     style="fill:#666666;stroke:none;stroke-width:0.71734005"
     d="m 13.777409,24.869104 c -2.436697,0.855956 -4.4454329,-0.12554 -4.0429849,-2.465709 0.4031229,-2.340043 2.7155909,-7.351516 3.0455439,-8.299273 0.329173,-0.947757 -0.302244,-1.208006 -0.980221,-0.821441 -0.39072,0.225035 -0.971893,0.67647 -1.470295,1.116173 -0.137835,-0.278858 -0.3327159,-0.597086 -0.4790549,-0.901502 0.8145349,-0.815234 2.1743859,-1.908634 3.7841459,-2.304851 1.923792,-0.47492 5.139839,0.285095 3.757879,3.961535 -0.987095,2.621006 -1.684984,4.42957 -2.124709,5.77907 -0.439689,1.347417 0.0861,1.632526 0.855284,1.104439 0.600555,-0.410014 1.241114,-0.968471 1.710496,-1.401262 0.217559,0.354118 0.285236,0.46663 0.501165,0.872522 -0.817972,0.82833 -2.9475,2.790131 -4.554485,3.360299 z M 18.82615,8.6570916 c -1.105157,0.94084 -2.743193,0.920126 -3.659917,-0.04638 -0.916654,-0.965704 -0.763441,-2.511255 0.341575,-3.452124 1.104449,-0.940844 2.743193,-0.920158 3.662645,0.04284 0.913252,0.965707 0.759332,2.511935 -0.345826,3.455571 z"
     id="path8578" />
</svg>
