<?xml version="1.0" encoding="UTF-8" standalone="no"?>
<svg
   xmlns:dc="http://purl.org/dc/elements/1.1/"
   xmlns:cc="http://creativecommons.org/ns#"
   xmlns:rdf="http://www.w3.org/1999/02/22-rdf-syntax-ns#"
   xmlns:svg="http://www.w3.org/2000/svg"
   xmlns="http://www.w3.org/2000/svg"
   version="1.1"
   id="svg2"
   viewBox="0 0 350 100"
   height="100"
   width="350">
  <defs
     id="defs4">
    <filter
       id="filter31034"
       style="color-interpolation-filters:sRGB;">
      <feGaussianBlur
         id="feGaussianBlur31036"
         result="fbSourceGraphic"
         stdDeviation="2 2" />
      <feColorMatrix
         id="feColorMatrix31038"
         values="0 0 0 -1 0 0 0 0 -1 0 0 0 0 -1 0 0 0 0 1 0"
         in="fbSourceGraphic"
         result="fbSourceGraphicAlpha" />
      <feGaussianBlur
         in="fbSourceGraphic"
         result="fbSourceGraphic"
         stdDeviation="2 2"
         id="feGaussianBlur31040" />
      <feColorMatrix
         id="feColorMatrix31042"
         values="0 0 0 -1 0 0 0 0 -1 0 0 0 0 -1 0 0 0 0 1 0"
         in="fbSourceGraphic"
         result="fbSourceGraphicAlpha" />
      <feGaussianBlur
         in="fbSourceGraphic"
         result="blur"
         stdDeviation="2 2"
         id="feGaussianBlur31044" />
    </filter>
    <filter
       id="filter31079"
       style="color-interpolation-filters:sRGB;">
      <feGaussianBlur
         id="feGaussianBlur31081"
         result="blur"
         stdDeviation="1 1" />
    </filter>
  </defs>
  <metadata
     id="metadata7">
    <rdf:RDF>
      <cc:Work
         rdf:about="">
        <dc:format>image/svg+xml</dc:format>
        <dc:type
           rdf:resource="http://purl.org/dc/dcmitype/StillImage" />
        <dc:title></dc:title>
      </cc:Work>
    </rdf:RDF>
  </metadata>
  <g
     transform="matrix(1.2591506,0,0,1.2591506,-4.1786648,-1213.3856)"
     id="layer1-2"
     style="opacity:0.62900002;fill:#668000;stroke:none;filter:url(#filter31079)">
    <g
       id="flowRoot8068-9"
       style="font-style:normal;font-weight:normal;font-size:49.637043px;line-height:125%;font-family:sans-serif;letter-spacing:0px;word-spacing:0px;fill:#668000;fill-opacity:1;stroke:none;stroke-width:1px;stroke-linecap:butt;stroke-linejoin:miter;stroke-opacity:1"
       transform="matrix(0.96481082,0,0,0.96481082,-24.503908,112.81466)">
      <path
         id="path26482-1"
         style="font-style:normal;font-variant:normal;font-weight:bold;font-stretch:normal;font-size:99.274086px;font-family:Outage;-inkscape-font-specification:'Outage Bold';fill:#668000;fill-opacity:1;stroke:none"
         d="m 56.061656,905.40146 q -0.794193,0 -1.389837,0.49637 -0.496371,0.49637 -0.496371,1.29056 l 0,32.1648 q 0,0.7942 0.496371,1.38984 0.595644,0.49637 1.389837,0.49637 l 31.866982,0 q 0.794192,0 1.290563,0.49637 0.595644,0.49637 0.595644,1.29056 l 0,13.10418 q 0,0.7942 -0.595644,1.38984 -0.496371,0.49637 -1.290563,0.49637 l -30.477145,0 -6.055719,0 -1.290563,0 q -0.794193,0 -1.786934,-0.19855 -0.992741,-0.19855 -1.687659,-0.59564 l -9.133216,-9.13322 q -0.397096,-0.69492 -0.595645,-1.68766 -0.198548,-0.99274 -0.198548,-1.78693 l 0,-0.59564 0,-10.52306 0,-23.62723 0,-5.26153 0,-2.6804 q 0,-0.79419 0.198548,-1.78693 0.198549,-0.99274 0.595645,-1.68766 l 9.133216,-9.13322 q 0.694918,-0.29782 1.389837,-0.49637 0.794193,-0.29782 1.191289,-0.29782 l 0.893467,0 1.290563,0 0.397096,0 0.198548,0 2.283304,0 33.653916,0 q 0.794192,0 1.290563,0.59565 0.595644,0.49637 0.595644,1.29056 l 0,13.10418 q 0,0.79419 -0.595644,1.38984 -0.496371,0.49637 -1.290563,0.49637 l -31.866982,0 0,0 z" />
      <path
         id="path26484-2"
         style="font-style:normal;font-variant:normal;font-weight:bold;font-stretch:normal;font-size:99.274086px;font-family:Outage;-inkscape-font-specification:'Outage Bold';fill:#668000;fill-opacity:1;stroke:none"
         d="m 162.02742,888.52486 q 0.7942,0 1.29057,0.59565 0.59564,0.49637 0.59564,1.29056 l 0,7.14773 0,47.05592 0,0.29782 -0.0993,0 q 0,0.79419 -0.19855,1.68766 -0.19855,0.89347 -0.49637,1.48911 l -9.13322,9.13322 q -0.69492,0.39709 -1.78693,0.59564 -0.99274,0.19855 -1.78693,0.19855 l -7.24701,0 -21.54248,0 -2.6804,0 q -0.79419,0 -1.78693,-0.19855 -0.99274,-0.19855 -1.68766,-0.59564 l -9.13322,-9.13322 q -0.39709,-0.69492 -0.59564,-1.68766 -0.19855,-0.99274 -0.19855,-1.78693 l 0,-3.37532 0,-44.67334 0,-6.15499 q 0,-0.79419 0.49637,-1.29056 0.59564,-0.59565 1.38984,-0.59565 l 13.69982,0 q 0.79419,0 1.29056,0.59565 0.59565,0.49637 0.59565,1.29056 l 0,8.73612 0,34.44811 0,5.75789 q 0,0.7942 0.49637,1.38984 0.59564,0.49637 1.38984,0.49637 l 19.65626,0 q 0.7942,0 1.29057,-0.49637 0.49637,-0.59564 0.49637,-1.38984 l 0,-5.85717 0,-38.3198 0,-4.76515 q 0,-0.79419 0.49637,-1.29056 0.59564,-0.59565 1.38984,-0.59565 l 13.79909,0 0,0 z" />
      <path
         id="path26486-7"
         style="font-style:normal;font-variant:normal;font-weight:bold;font-stretch:normal;font-size:99.274086px;font-family:Outage;-inkscape-font-specification:'Outage Bold';fill:#668000;fill-opacity:1;stroke:none"
         d="m 239.49109,956.42834 q 0.39709,0.69491 0.0993,1.19128 -0.29782,0.3971 -1.09201,0.3971 l -15.78458,0 q -0.7942,0 -1.58839,-0.3971 -0.79419,-0.49637 -1.19129,-1.19128 l -11.1187,-18.86208 q -0.19854,-0.3971 -0.69491,-0.3971 l -11.21798,0 q -0.49637,0 -0.49637,0.49637 l 0,18.46498 q 0,1.88621 -1.8862,1.88621 l -13.69983,0 q -1.88621,0 -1.88621,-1.88621 l 0,-32.36335 0,-16.97587 0,-16.38022 q 0,-0.79419 0.49637,-1.29056 0.59565,-0.59565 1.38984,-0.59565 l 42.98568,0 q 0.79419,0 1.78693,0.29782 1.09202,0.19855 1.78694,0.49637 l 9.13321,9.13322 q 0.29783,0.69492 0.49637,1.68766 0.29783,0.99274 0.29783,1.78693 l 0,13.402 0,7.24701 0,0.99274 q 0,0.59565 -0.29783,1.48911 -0.29782,0.7942 -0.69491,1.48912 l -9.13322,9.33176 12.30999,20.54974 z m -19.75555,-51.7218 -24.02433,0 0,16.87659 11.41652,0 10.52306,0 0.29782,0 1.78693,0 0,-1.29056 0,-11.21797 0,-4.36806 z" />
      <path
         id="path26488-0"
         style="font-style:normal;font-variant:normal;font-weight:bold;font-stretch:normal;font-size:99.274086px;font-family:Outage;-inkscape-font-specification:'Outage Bold';fill:#668000;fill-opacity:1;stroke:none"
         d="m 309.86547,898.353 q 0.29782,0.69491 0.49637,1.78693 0.29782,0.99274 0.29782,1.78693 l 0,1.09202 0,0.89346 0,52.21817 q 0,0.7942 -0.59564,1.29057 -0.49637,0.49637 -1.29056,0.49637 l -13.7991,0 q -0.7942,0 -1.29057,-0.49637 -0.49637,-0.49637 -0.49637,-1.29057 l 0,-17.86933 q 0,-0.79419 -0.59564,-1.29056 -0.49637,-0.49638 -1.29056,-0.49638 l -19.65627,0 q -0.7942,0 -1.38984,0.49638 -0.49637,0.49637 -0.49637,1.29056 l 0,17.86933 q 0,0.7942 -0.49637,1.29057 -0.49637,0.49637 -1.29056,0.49637 l -13.7991,0 q -0.79419,0 -1.38984,-0.49637 -0.49637,-0.49637 -0.49637,-1.29057 l 0,-52.61526 0,-1.58839 0,-0.29782 q 0.0993,-0.79419 0.29782,-1.68766 0.19855,-0.89347 0.49637,-1.58838 l 9.13322,-9.13322 q 0.69492,-0.29782 1.68766,-0.49637 0.99274,-0.29782 1.78693,-0.29782 l 1.48911,0 5.65863,0 20.25191,0 2.97822,0 1.09202,0 q 0.79419,0 1.78693,0.29782 1.09202,0.19855 1.78693,0.49637 l 9.13322,9.13322 z m -16.67805,5.65862 -23.42868,0 0,17.57151 23.42868,0 0,-17.57151 z" />
    </g>
  </g>
  <g
     transform="matrix(1.2591506,0,0,1.2591506,-1.6317478,-1213.4034)"
     id="layer1"
     style="stroke:#4d4d4d">
    <g
       id="flowRoot8068"
       style="font-style:normal;font-weight:normal;font-size:49.637043px;line-height:125%;font-family:sans-serif;letter-spacing:0px;word-spacing:0px;fill:#c1d82f;fill-opacity:1;stroke:#4d4d4d;stroke-width:1px;stroke-linecap:butt;stroke-linejoin:miter;stroke-opacity:1"
       transform="matrix(0.96481082,0,0,0.96481082,-24.503908,112.81466)">
      <path
         id="path26482"
         style="font-style:normal;font-variant:normal;font-weight:bold;font-stretch:normal;font-size:99.274086px;font-family:Outage;-inkscape-font-specification:'Outage Bold';fill:#c1d82f;fill-opacity:1;stroke:#4d4d4d"
         d="m 54.090442,905.40146 q -0.794193,0 -1.389837,0.49637 -0.496371,0.49637 -0.496371,1.29056 l 0,32.1648 q 0,0.7942 0.496371,1.38984 0.595644,0.49637 1.389837,0.49637 l 31.866982,0 q 0.794192,0 1.290563,0.49637 0.595644,0.49637 0.595644,1.29056 l 0,13.10418 q 0,0.7942 -0.595644,1.38984 -0.496371,0.49637 -1.290563,0.49637 l -30.477145,0 -6.055719,0 -1.290563,0 q -0.794193,0 -1.786934,-0.19855 -0.992741,-0.19855 -1.687659,-0.59564 l -9.133216,-9.13322 q -0.397096,-0.69492 -0.595645,-1.68766 -0.198548,-0.99274 -0.198548,-1.78693 l 0,-0.59564 0,-10.52306 0,-23.62723 0,-5.26153 0,-2.6804 q 0,-0.79419 0.198548,-1.78693 0.198549,-0.99274 0.595645,-1.68766 l 9.133216,-9.13322 q 0.694918,-0.29782 1.389837,-0.49637 0.794193,-0.29782 1.191289,-0.29782 l 0.893467,0 1.290563,0 0.397096,0 0.198548,0 2.283304,0 33.653916,0 q 0.794192,0 1.290563,0.59565 0.595644,0.49637 0.595644,1.29056 l 0,13.10418 q 0,0.79419 -0.595644,1.38984 -0.496371,0.49637 -1.290563,0.49637 l -31.866982,0 0,0 z" />
      <path
         id="path26484"
         style="font-style:normal;font-variant:normal;font-weight:bold;font-stretch:normal;font-size:99.274086px;font-family:Outage;-inkscape-font-specification:'Outage Bold';fill:#c1d82f;fill-opacity:1;stroke:#4d4d4d"
         d="m 160.05622,888.52486 q 0.7942,0 1.29057,0.59565 0.59564,0.49637 0.59564,1.29056 l 0,7.14773 0,47.05592 0,0.29782 -0.0993,0 q 0,0.79419 -0.19855,1.68766 -0.19855,0.89347 -0.49637,1.48911 l -9.13322,9.13322 q -0.69492,0.39709 -1.78693,0.59564 -0.99274,0.19855 -1.78693,0.19855 l -7.24701,0 -21.54248,0 -2.6804,0 q -0.79419,0 -1.78693,-0.19855 -0.99274,-0.19855 -1.68766,-0.59564 l -9.13322,-9.13322 q -0.39709,-0.69492 -0.59564,-1.68766 -0.19855,-0.99274 -0.19855,-1.78693 l 0,-3.37532 0,-44.67334 0,-6.15499 q 0,-0.79419 0.49637,-1.29056 0.59564,-0.59565 1.38984,-0.59565 l 13.69982,0 q 0.79419,0 1.29056,0.59565 0.59565,0.49637 0.59565,1.29056 l 0,8.73612 0,34.44811 0,5.75789 q 0,0.7942 0.49637,1.38984 0.59564,0.49637 1.38984,0.49637 l 19.65626,0 q 0.7942,0 1.29057,-0.49637 0.49637,-0.59564 0.49637,-1.38984 l 0,-5.85717 0,-38.3198 0,-4.76515 q 0,-0.79419 0.49637,-1.29056 0.59564,-0.59565 1.38984,-0.59565 l 13.79909,0 0,0 z" />
      <path
         id="path26486"
         style="font-style:normal;font-variant:normal;font-weight:bold;font-stretch:normal;font-size:99.274086px;font-family:Outage;-inkscape-font-specification:'Outage Bold';fill:#c1d82f;fill-opacity:1;stroke:#4d4d4d"
         d="m 237.30077,956.42834 q 0.39709,0.69491 0.0993,1.19128 -0.29782,0.3971 -1.09201,0.3971 l -15.78458,0 q -0.7942,0 -1.58839,-0.3971 -0.79419,-0.49637 -1.19129,-1.19128 l -11.1187,-18.86208 q -0.19854,-0.3971 -0.69491,-0.3971 l -11.21798,0 q -0.49637,0 -0.49637,0.49637 l 0,18.46498 q 0,1.88621 -1.8862,1.88621 l -13.69983,0 q -1.88621,0 -1.88621,-1.88621 l 0,-32.36335 0,-16.97587 0,-16.38022 q 0,-0.79419 0.49637,-1.29056 0.59565,-0.59565 1.38984,-0.59565 l 42.98568,0 q 0.79419,0 1.78693,0.29782 1.09202,0.19855 1.78694,0.49637 l 9.13321,9.13322 q 0.29783,0.69492 0.49637,1.68766 0.29783,0.99274 0.29783,1.78693 l 0,13.402 0,7.24701 0,0.99274 q 0,0.59565 -0.29783,1.48911 -0.29782,0.7942 -0.69491,1.48912 l -9.13322,9.33176 12.30999,20.54974 z m -19.75555,-51.7218 -24.02433,0 0,16.87659 11.41652,0 10.52306,0 0.29782,0 1.78693,0 0,-1.29056 0,-11.21797 0,-4.36806 z" />
      <path
         id="path26488"
         style="font-style:normal;font-variant:normal;font-weight:bold;font-stretch:normal;font-size:99.274086px;font-family:Outage;-inkscape-font-specification:'Outage Bold';fill:#c1d82f;fill-opacity:1;stroke:#4d4d4d"
         d="m 307.61267,898.353 q 0.29782,0.69491 0.49637,1.78693 0.29782,0.99274 0.29782,1.78693 l 0,1.09202 0,0.89346 0,52.21817 q 0,0.7942 -0.59564,1.29057 -0.49637,0.49637 -1.29056,0.49637 l -13.7991,0 q -0.7942,0 -1.29057,-0.49637 -0.49637,-0.49637 -0.49637,-1.29057 l 0,-17.86933 q 0,-0.79419 -0.59564,-1.29056 -0.49637,-0.49638 -1.29056,-0.49638 l -19.65627,0 q -0.7942,0 -1.38984,0.49638 -0.49637,0.49637 -0.49637,1.29056 l 0,17.86933 q 0,0.7942 -0.49637,1.29057 -0.49637,0.49637 -1.29056,0.49637 l -13.7991,0 q -0.79419,0 -1.38984,-0.49637 -0.49637,-0.49637 -0.49637,-1.29057 l 0,-52.61526 0,-1.58839 0,-0.29782 q 0.0993,-0.79419 0.29782,-1.68766 0.19855,-0.89347 0.49637,-1.58838 l 9.13322,-9.13322 q 0.69492,-0.29782 1.68766,-0.49637 0.99274,-0.29782 1.78693,-0.29782 l 1.48911,0 5.65863,0 20.25191,0 2.97822,0 1.09202,0 q 0.79419,0 1.78693,0.29782 1.09202,0.19855 1.78693,0.49637 l 9.13322,9.13322 z m -16.67805,5.65862 -23.42868,0 0,17.57151 23.42868,0 0,-17.57151 z" />
    </g>
  </g>
</svg>
