<?xml version="1.0" encoding="UTF-8" standalone="no"?>
<svg
   xmlns:dc="http://purl.org/dc/elements/1.1/"
   xmlns:cc="http://creativecommons.org/ns#"
   xmlns:rdf="http://www.w3.org/1999/02/22-rdf-syntax-ns#"
   xmlns:svg="http://www.w3.org/2000/svg"
   xmlns="http://www.w3.org/2000/svg"
   xmlns:sodipodi="http://sodipodi.sourceforge.net/DTD/sodipodi-0.dtd"
   xmlns:inkscape="http://www.inkscape.org/namespaces/inkscape"
   version="1.1"
   id="svg2"
   viewBox="0 0 615 100"
   height="100"
   width="615"
   sodipodi:docname="logo1.svg"
   inkscape:version="0.92.4 (5da689c313, 2019-01-14)">
  <sodipodi:namedview
     pagecolor="#ffffff"
     bordercolor="#666666"
     borderopacity="1"
     objecttolerance="10"
     gridtolerance="10"
     guidetolerance="10"
     inkscape:pageopacity="0"
     inkscape:pageshadow="2"
     inkscape:window-width="1920"
     inkscape:window-height="972"
     id="namedview25"
     showgrid="false"
     inkscape:zoom="1.7885714"
     inkscape:cx="425.91351"
     inkscape:cy="77.398931"
     inkscape:window-x="0"
     inkscape:window-y="33"
     inkscape:window-maximized="1"
     inkscape:current-layer="svg2"
     units="in">
    <inkscape:grid
       type="xygrid"
       id="grid844" />
  </sodipodi:namedview>
  <defs
     id="defs4">
    <filter
       id="filter31034"
       style="color-interpolation-filters:sRGB">
      <feGaussianBlur
         id="feGaussianBlur31036"
         result="fbSourceGraphic"
         stdDeviation="2 2" />
      <feColorMatrix
         id="feColorMatrix31038"
         values="0 0 0 -1 0 0 0 0 -1 0 0 0 0 -1 0 0 0 0 1 0"
         in="fbSourceGraphic"
         result="fbSourceGraphicAlpha" />
      <feGaussianBlur
         in="fbSourceGraphic"
         result="fbSourceGraphic"
         stdDeviation="2 2"
         id="feGaussianBlur31040" />
      <feColorMatrix
         id="feColorMatrix31042"
         values="0 0 0 -1 0 0 0 0 -1 0 0 0 0 -1 0 0 0 0 1 0"
         in="fbSourceGraphic"
         result="fbSourceGraphicAlpha" />
      <feGaussianBlur
         in="fbSourceGraphic"
         result="blur"
         stdDeviation="2 2"
         id="feGaussianBlur31044" />
    </filter>
    <filter
       id="filter31079"
       style="color-interpolation-filters:sRGB">
      <feGaussianBlur
         id="feGaussianBlur31081"
         result="blur"
         stdDeviation="1 1" />
    </filter>
  </defs>
  <metadata
     id="metadata7">
    <rdf:RDF>
      <cc:Work
         rdf:about="">
        <dc:format>image/svg+xml</dc:format>
        <dc:type
           rdf:resource="http://purl.org/dc/dcmitype/StillImage" />
        <dc:title></dc:title>
      </cc:Work>
    </rdf:RDF>
  </metadata>
  <g
     transform="matrix(1.2591506,0,0,1.2591506,-4.1786648,-1213.3856)"
     id="layer1-2"
     style="opacity:0.62900002;fill:#668000;stroke:none;filter:url(#filter31079)">
    <g
       id="flowRoot8068-9"
       style="font-style:normal;font-weight:normal;font-size:49.637043px;line-height:125%;font-family:sans-serif;letter-spacing:0px;word-spacing:0px;fill:#668000;fill-opacity:1;stroke:none;stroke-width:1px;stroke-linecap:butt;stroke-linejoin:miter;stroke-opacity:1"
       transform="matrix(0.96481082,0,0,0.96481082,-24.503908,112.81466)">
      <path
         id="path26482-1"
         style="font-style:normal;font-variant:normal;font-weight:bold;font-stretch:normal;font-size:99.274086px;font-family:Outage;-inkscape-font-specification:'Outage Bold';fill:#668000;fill-opacity:1;stroke:none"
         d="m 56.061656,905.40146 q -0.794193,0 -1.389837,0.49637 -0.496371,0.49637 -0.496371,1.29056 v 32.1648 q 0,0.7942 0.496371,1.38984 0.595644,0.49637 1.389837,0.49637 h 31.866982 q 0.794192,0 1.290563,0.49637 0.595644,0.49637 0.595644,1.29056 v 13.10418 q 0,0.7942 -0.595644,1.38984 -0.496371,0.49637 -1.290563,0.49637 H 57.451493 51.395774 50.105211 q -0.794193,0 -1.786934,-0.19855 -0.992741,-0.19855 -1.687659,-0.59564 l -9.133216,-9.13322 q -0.397096,-0.69492 -0.595645,-1.68766 -0.198548,-0.99274 -0.198548,-1.78693 v -0.59564 -10.52306 -23.62723 -5.26153 -2.6804 q 0,-0.79419 0.198548,-1.78693 0.198549,-0.99274 0.595645,-1.68766 l 9.133216,-9.13322 q 0.694918,-0.29782 1.389837,-0.49637 0.794193,-0.29782 1.191289,-0.29782 h 0.893467 1.290563 0.397096 0.198548 2.283304 33.653916 q 0.794192,0 1.290563,0.59565 0.595644,0.49637 0.595644,1.29056 v 13.10418 q 0,0.79419 -0.595644,1.38984 -0.496371,0.49637 -1.290563,0.49637 z"
         inkscape:connector-curvature="0" />
      <path
         id="path26484-2"
         style="font-style:normal;font-variant:normal;font-weight:bold;font-stretch:normal;font-size:99.274086px;font-family:Outage;-inkscape-font-specification:'Outage Bold';fill:#668000;fill-opacity:1;stroke:none"
         d="m 162.02742,888.52486 q 0.7942,0 1.29057,0.59565 0.59564,0.49637 0.59564,1.29056 v 7.14773 47.05592 0.29782 h -0.0993 q 0,0.79419 -0.19855,1.68766 -0.19855,0.89347 -0.49637,1.48911 l -9.13322,9.13322 q -0.69492,0.39709 -1.78693,0.59564 -0.99274,0.19855 -1.78693,0.19855 h -7.24701 -21.54248 -2.6804 q -0.79419,0 -1.78693,-0.19855 -0.99274,-0.19855 -1.68766,-0.59564 l -9.13322,-9.13322 q -0.39709,-0.69492 -0.59564,-1.68766 -0.19855,-0.99274 -0.19855,-1.78693 v -3.37532 -44.67334 -6.15499 q 0,-0.79419 0.49637,-1.29056 0.59564,-0.59565 1.38984,-0.59565 h 13.69982 q 0.79419,0 1.29056,0.59565 0.59565,0.49637 0.59565,1.29056 v 8.73612 34.44811 5.75789 q 0,0.7942 0.49637,1.38984 0.59564,0.49637 1.38984,0.49637 h 19.65626 q 0.7942,0 1.29057,-0.49637 0.49637,-0.59564 0.49637,-1.38984 v -5.85717 -38.3198 -4.76515 q 0,-0.79419 0.49637,-1.29056 0.59564,-0.59565 1.38984,-0.59565 h 13.79909 v 0 z"
         inkscape:connector-curvature="0" />
      <path
         id="path26486-7"
         style="font-style:normal;font-variant:normal;font-weight:bold;font-stretch:normal;font-size:99.274086px;font-family:Outage;-inkscape-font-specification:'Outage Bold';fill:#668000;fill-opacity:1;stroke:none"
         d="m 239.49109,956.42834 q 0.39709,0.69491 0.0993,1.19128 -0.29782,0.3971 -1.09201,0.3971 H 222.7138 q -0.7942,0 -1.58839,-0.3971 -0.79419,-0.49637 -1.19129,-1.19128 l -11.1187,-18.86208 q -0.19854,-0.3971 -0.69491,-0.3971 h -11.21798 q -0.49637,0 -0.49637,0.49637 v 18.46498 q 0,1.88621 -1.8862,1.88621 h -13.69983 q -1.88621,0 -1.88621,-1.88621 v -32.36335 -16.97587 -16.38022 q 0,-0.79419 0.49637,-1.29056 0.59565,-0.59565 1.38984,-0.59565 h 42.98568 q 0.79419,0 1.78693,0.29782 1.09202,0.19855 1.78694,0.49637 l 9.13321,9.13322 q 0.29783,0.69492 0.49637,1.68766 0.29783,0.99274 0.29783,1.78693 v 13.402 7.24701 0.99274 q 0,0.59565 -0.29783,1.48911 -0.29782,0.7942 -0.69491,1.48912 l -9.13322,9.33176 12.30999,20.54974 z m -19.75555,-51.7218 h -24.02433 v 16.87659 h 11.41652 10.52306 0.29782 1.78693 v -1.29056 -11.21797 z"
         inkscape:connector-curvature="0" />
      <path
         id="path26488-0"
         style="font-style:normal;font-variant:normal;font-weight:bold;font-stretch:normal;font-size:99.274086px;font-family:Outage;-inkscape-font-specification:'Outage Bold';fill:#668000;fill-opacity:1;stroke:none"
         d="m 309.86547,898.353 q 0.29782,0.69491 0.49637,1.78693 0.29782,0.99274 0.29782,1.78693 v 1.09202 0.89346 52.21817 q 0,0.7942 -0.59564,1.29057 -0.49637,0.49637 -1.29056,0.49637 h -13.7991 q -0.7942,0 -1.29057,-0.49637 -0.49637,-0.49637 -0.49637,-1.29057 v -17.86933 q 0,-0.79419 -0.59564,-1.29056 -0.49637,-0.49638 -1.29056,-0.49638 h -19.65627 q -0.7942,0 -1.38984,0.49638 -0.49637,0.49637 -0.49637,1.29056 v 17.86933 q 0,0.7942 -0.49637,1.29057 -0.49637,0.49637 -1.29056,0.49637 h -13.7991 q -0.79419,0 -1.38984,-0.49637 -0.49637,-0.49637 -0.49637,-1.29057 v -52.61526 -1.58839 -0.29782 q 0.0993,-0.79419 0.29782,-1.68766 0.19855,-0.89347 0.49637,-1.58838 l 9.13322,-9.13322 q 0.69492,-0.29782 1.68766,-0.49637 0.99274,-0.29782 1.78693,-0.29782 h 1.48911 5.65863 20.25191 2.97822 1.09202 q 0.79419,0 1.78693,0.29782 1.09202,0.19855 1.78693,0.49637 z m -16.67805,5.65862 h -23.42868 v 17.57151 h 23.42868 z"
         inkscape:connector-curvature="0" />
    </g>
  </g>
  <g
     transform="matrix(1.2591506,0,0,1.2591506,-1.6317478,-1213.4034)"
     id="layer1"
     style="stroke:#4d4d4d">
    <g
       id="flowRoot8068"
       style="font-style:normal;font-weight:normal;font-size:49.637043px;line-height:125%;font-family:sans-serif;letter-spacing:0px;word-spacing:0px;fill:#c1d82f;fill-opacity:1;stroke:#4d4d4d;stroke-width:1px;stroke-linecap:butt;stroke-linejoin:miter;stroke-opacity:1"
       transform="matrix(0.96481082,0,0,0.96481082,-24.503908,112.81466)">
      <path
         id="path26482"
         style="font-style:normal;font-variant:normal;font-weight:bold;font-stretch:normal;font-size:99.274086px;font-family:Outage;-inkscape-font-specification:'Outage Bold';fill:#c1d82f;fill-opacity:1;stroke:#000000;stroke-width:1.97556531;stroke-miterlimit:4;stroke-dasharray:none;stroke-opacity:1"
         d="m 54.090442,905.40146 q -0.794193,0 -1.389837,0.49637 -0.496371,0.49637 -0.496371,1.29056 v 32.1648 q 0,0.7942 0.496371,1.38984 0.595644,0.49637 1.389837,0.49637 h 31.866982 q 0.794192,0 1.290563,0.49637 0.595644,0.49637 0.595644,1.29056 v 13.10418 q 0,0.7942 -0.595644,1.38984 -0.496371,0.49637 -1.290563,0.49637 H 55.480279 49.42456 48.133997 q -0.794193,0 -1.786934,-0.19855 -0.992741,-0.19855 -1.687659,-0.59564 l -9.133216,-9.13322 q -0.397096,-0.69492 -0.595645,-1.68766 -0.198548,-0.99274 -0.198548,-1.78693 v -0.59564 -10.52306 -23.62723 -5.26153 -2.6804 q 0,-0.79419 0.198548,-1.78693 0.198549,-0.99274 0.595645,-1.68766 l 9.133216,-9.13322 q 0.694918,-0.29782 1.389837,-0.49637 0.794193,-0.29782 1.191289,-0.29782 h 0.893467 1.290563 0.397096 0.198548 2.283304 33.653916 q 0.794192,0 1.290563,0.59565 0.595644,0.49637 0.595644,1.29056 v 13.10418 q 0,0.79419 -0.595644,1.38984 -0.496371,0.49637 -1.290563,0.49637 z"
         inkscape:connector-curvature="0" />
      <path
         id="path26484"
         style="font-style:normal;font-variant:normal;font-weight:bold;font-stretch:normal;font-size:99.274086px;font-family:Outage;-inkscape-font-specification:'Outage Bold';fill:#c1d82f;fill-opacity:1;stroke:#000000;stroke-width:1.97556531;stroke-miterlimit:4;stroke-dasharray:none;stroke-opacity:1"
         d="m 160.05622,888.52486 q 0.7942,0 1.29057,0.59565 0.59564,0.49637 0.59564,1.29056 v 7.14773 47.05592 0.29782 h -0.0993 q 0,0.79419 -0.19855,1.68766 -0.19855,0.89347 -0.49637,1.48911 l -9.13322,9.13322 q -0.69492,0.39709 -1.78693,0.59564 -0.99274,0.19855 -1.78693,0.19855 h -7.24701 -21.54248 -2.6804 q -0.79419,0 -1.78693,-0.19855 -0.99274,-0.19855 -1.68766,-0.59564 l -9.13322,-9.13322 q -0.39709,-0.69492 -0.59564,-1.68766 -0.19855,-0.99274 -0.19855,-1.78693 v -3.37532 -44.67334 -6.15499 q 0,-0.79419 0.49637,-1.29056 0.59564,-0.59565 1.38984,-0.59565 h 13.69982 q 0.79419,0 1.29056,0.59565 0.59565,0.49637 0.59565,1.29056 v 8.73612 34.44811 5.75789 q 0,0.7942 0.49637,1.38984 0.59564,0.49637 1.38984,0.49637 h 19.65626 q 0.7942,0 1.29057,-0.49637 0.49637,-0.59564 0.49637,-1.38984 v -5.85717 -38.3198 -4.76515 q 0,-0.79419 0.49637,-1.29056 0.59564,-0.59565 1.38984,-0.59565 h 13.79909 v 0 z"
         inkscape:connector-curvature="0" />
      <path
         id="path26486"
         style="font-style:normal;font-variant:normal;font-weight:bold;font-stretch:normal;font-size:99.274086px;font-family:Outage;-inkscape-font-specification:'Outage Bold';fill:#c1d82f;fill-opacity:1;stroke:#000000;stroke-width:1.97556531;stroke-miterlimit:4;stroke-dasharray:none;stroke-opacity:1"
         d="m 237.30077,956.42834 q 0.39709,0.69491 0.0993,1.19128 -0.29782,0.3971 -1.09201,0.3971 h -15.78458 q -0.7942,0 -1.58839,-0.3971 -0.79419,-0.49637 -1.19129,-1.19128 l -11.1187,-18.86208 q -0.19854,-0.3971 -0.69491,-0.3971 h -11.21798 q -0.49637,0 -0.49637,0.49637 v 18.46498 q 0,1.88621 -1.8862,1.88621 h -13.69983 q -1.88621,0 -1.88621,-1.88621 v -32.36335 -16.97587 -16.38022 q 0,-0.79419 0.49637,-1.29056 0.59565,-0.59565 1.38984,-0.59565 h 42.98568 q 0.79419,0 1.78693,0.29782 1.09202,0.19855 1.78694,0.49637 l 9.13321,9.13322 q 0.29783,0.69492 0.49637,1.68766 0.29783,0.99274 0.29783,1.78693 v 13.402 7.24701 0.99274 q 0,0.59565 -0.29783,1.48911 -0.29782,0.7942 -0.69491,1.48912 l -9.13322,9.33176 12.30999,20.54974 z m -19.75555,-51.7218 h -24.02433 v 16.87659 h 11.41652 10.52306 0.29782 1.78693 v -1.29056 -11.21797 z"
         inkscape:connector-curvature="0" />
      <path
         id="path26488"
         style="font-style:normal;font-variant:normal;font-weight:bold;font-stretch:normal;font-size:99.274086px;font-family:Outage;-inkscape-font-specification:'Outage Bold';fill:#c1d82f;fill-opacity:1;stroke:#000000;stroke-width:1.97556531;stroke-miterlimit:4;stroke-dasharray:none;stroke-opacity:1"
         d="m 307.61267,898.353 q 0.29782,0.69491 0.49637,1.78693 0.29782,0.99274 0.29782,1.78693 v 1.09202 0.89346 52.21817 q 0,0.7942 -0.59564,1.29057 -0.49637,0.49637 -1.29056,0.49637 h -13.7991 q -0.7942,0 -1.29057,-0.49637 -0.49637,-0.49637 -0.49637,-1.29057 v -17.86933 q 0,-0.79419 -0.59564,-1.29056 -0.49637,-0.49638 -1.29056,-0.49638 h -19.65627 q -0.7942,0 -1.38984,0.49638 -0.49637,0.49637 -0.49637,1.29056 v 17.86933 q 0,0.7942 -0.49637,1.29057 -0.49637,0.49637 -1.29056,0.49637 h -13.7991 q -0.79419,0 -1.38984,-0.49637 -0.49637,-0.49637 -0.49637,-1.29057 v -52.61526 -1.58839 -0.29782 q 0.0993,-0.79419 0.29782,-1.68766 0.19855,-0.89347 0.49637,-1.58838 l 9.13322,-9.13322 q 0.69492,-0.29782 1.68766,-0.49637 0.99274,-0.29782 1.78693,-0.29782 h 1.48911 5.65863 20.25191 2.97822 1.09202 q 0.79419,0 1.78693,0.29782 1.09202,0.19855 1.78693,0.49637 z m -16.67805,5.65862 h -23.42868 v 17.57151 h 23.42868 z"
         inkscape:connector-curvature="0" />
    </g>
  </g>
  <path
     style="font-style:normal;font-variant:normal;font-weight:bold;font-stretch:normal;font-size:47.33333206px;line-height:1.25;font-family:Outage;-inkscape-font-specification:'Outage, Bold';font-variant-ligatures:normal;font-variant-caps:normal;font-variant-numeric:normal;font-feature-settings:normal;text-align:start;letter-spacing:0px;word-spacing:0px;writing-mode:lr-tb;text-anchor:start;fill:#000000;fill-opacity:1;stroke:none;stroke-width:1.60803747"
     d="m 360.7028,7.337 c -0.69039,0 -1.03456,0.3464185 -1.03456,1.0368212 V 44.455634 c 0,0.690403 0.34417,1.034572 1.03456,1.034572 h 23.54776 c 0.2907,0 0.52677,-0.09045 0.70846,-0.272137 0.18168,-0.218022 0.27213,-0.471739 0.27213,-0.762435 v -7.194771 c 0,-0.290696 -0.0905,-0.526772 -0.27213,-0.708457 -0.18169,-0.218021 -0.41776,-0.328364 -0.70846,-0.328364 h -13.95548 c -0.29069,0 -0.5444,-0.09045 -0.76243,-0.272137 -0.18169,-0.181685 -0.27214,-0.417761 -0.27214,-0.708457 V 8.3738212 C 369.26051,7.6834185 368.91634,7.337 368.22595,7.337 Z m 30.819,0 c -0.2907,0 -0.54666,0.1080935 -0.76469,0.3261149 -0.18169,0.181685 -0.27214,0.4200112 -0.27214,0.7107063 v 3.3781018 24.528346 1.853233 c 0,0.290695 0.0375,0.617224 0.1102,0.980593 0.0727,0.36337 0.18077,0.672258 0.32611,0.926617 l 5.01543,5.013175 c 0.25436,0.145348 0.56324,0.25569 0.92662,0.328364 0.36336,0.07267 0.68989,0.107955 0.98059,0.107955 h 1.47089 11.82786 3.9786 c 0.29069,0 0.61722,-0.03528 0.98059,-0.107955 0.39971,-0.07267 0.72848,-0.183016 0.98284,-0.328364 l 5.01318,-5.013175 c 0.10905,-0.218021 0.19947,-0.491629 0.27214,-0.818662 0.0727,-0.327031 0.1102,-0.63592 0.1102,-0.926615 h 0.054 V 38.133502 12.296197 8.3738212 c 0,-0.2906951 -0.10813,-0.5290213 -0.32613,-0.7107063 C 422.02642,7.4450935 421.79034,7.337 421.49965,7.337 h -7.57711 c -0.29069,0 -0.54442,0.1080935 -0.76244,0.3261149 -0.18169,0.181685 -0.27214,0.4200112 -0.27214,0.7107063 v 2.6156668 21.037792 3.216168 c 0,0.290696 -0.0927,0.546662 -0.27438,0.764684 -0.18169,0.181685 -0.41776,0.272137 -0.70845,0.272137 h -10.79104 c -0.2907,0 -0.54441,-0.09045 -0.76244,-0.272137 -0.18168,-0.218022 -0.27438,-0.473988 -0.27438,-0.764684 V 32.083506 13.168836 8.3738212 c 0,-0.2906951 -0.10813,-0.5290213 -0.32612,-0.7107063 C 399.56947,7.4450935 399.33339,7.337 399.04269,7.337 Z m 40.61369,0 c -0.69041,0 -1.03682,0.3464185 -1.03682,1.0368212 V 44.455634 c 0,0.690403 0.34641,1.034572 1.03682,1.034572 h 23.5455 c 0.2907,0 0.52677,-0.09045 0.70846,-0.272137 0.18168,-0.218022 0.27213,-0.471739 0.27213,-0.762435 v -7.194771 c 0,-0.290696 -0.0905,-0.526772 -0.27213,-0.708457 -0.18169,-0.218021 -0.41776,-0.328364 -0.70846,-0.328364 h -13.95323 c -0.29069,0 -0.54441,-0.09045 -0.76242,-0.272137 -0.18169,-0.181685 -0.27214,-0.417761 -0.27214,-0.708457 V 8.3738212 C 440.6932,7.6834185 440.34677,7.337 439.65638,7.337 Z m 31.08887,0 c -0.29069,0 -0.5444,0.1080935 -0.76243,0.3261149 -0.18168,0.181685 -0.27213,0.4200112 -0.27213,0.7107063 v 6.4840658 c 0,0.290696 0.0905,0.546662 0.27213,0.764684 0.21803,0.181685 0.47174,0.272137 0.76243,0.272137 h 17.38755 l -18.096,19.949242 c -0.18169,0.218021 -0.34495,0.509269 -0.4903,0.872638 -0.10904,0.327032 -0.16193,0.635921 -0.16193,0.926617 v 6.812429 c 0,0.690403 0.34416,1.034572 1.03457,1.034572 h 27.09004 c 0.2907,0 0.52677,-0.09045 0.70846,-0.272137 0.21802,-0.218022 0.32611,-0.471739 0.32611,-0.762435 V 37.96932 c 0,-0.290697 -0.10813,-0.526773 -0.32611,-0.708457 -0.18169,-0.218022 -0.41776,-0.328365 -0.70846,-0.328365 H 472.60073 L 490.3144,16.985507 c 0.18168,-0.218023 0.34495,-0.491629 0.49029,-0.818662 0.14536,-0.327033 0.21817,-0.635921 0.21817,-0.926616 V 8.3738212 c 0,-0.2906951 -0.10813,-0.5290213 -0.32611,-0.7107063 C 490.51506,7.4450935 490.27899,7.337 489.98829,7.337 Z m 37.46724,0 c -0.29069,0 -0.5444,0.1080935 -0.76243,0.3261149 -0.18168,0.181685 -0.27213,0.4200112 -0.27214,0.7107063 V 44.455634 c 0,0.690403 0.34418,1.034572 1.03457,1.034572 h 16.95124 5.39777 1.25273 c 0.29069,0 0.61722,-0.03528 0.98059,-0.107955 0.39971,-0.07267 0.72849,-0.183016 0.98284,-0.328364 l 5.01318,-5.013175 c 0.10905,-0.254359 0.19946,-0.563247 0.27214,-0.926617 0.10905,-0.363369 0.16418,-0.689898 0.16418,-0.980593 v -0.708457 -1.201003 -4.522878 c 0,-0.290695 -0.0728,-0.599583 -0.21817,-0.926616 -0.14534,-0.36337 -0.30861,-0.654617 -0.49029,-0.872639 l -2.23557,-2.725871 c -0.18169,-0.181685 -0.28978,-0.435402 -0.32612,-0.762434 0,-0.327033 0.0905,-0.598391 0.27214,-0.816413 l 2.34353,-2.998008 c 0.18168,-0.218023 0.32731,-0.491629 0.43631,-0.818662 0.14536,-0.363369 0.21817,-0.689898 0.21817,-0.980593 V 16.49296 15.948685 14.749931 c 0,-0.290695 -0.0552,-0.617224 -0.16418,-0.980593 -0.0727,-0.399707 -0.16313,-0.726236 -0.27214,-0.980595 L 526.25677,7.7733202 C 526.00242,7.6643055 525.67364,7.5738568 525.27393,7.501183 524.91056,7.3921683 524.58403,7.337 524.29334,7.337 h -0.1079 z m 46.66819,0 c -0.2907,0 -0.61723,0.055169 -0.9806,0.164183 -0.36337,0.072673 -0.67225,0.163126 -0.92661,0.2721372 l -5.01543,5.0154228 c -0.14534,0.254359 -0.25343,0.563247 -0.32612,0.926617 -0.0727,0.363369 -0.1102,0.689898 -0.1102,0.980594 v 2.833827 19.458944 1.144777 c 0,0.290695 0.0375,0.617224 0.1102,0.980593 0.0727,0.36337 0.18078,0.672258 0.32612,0.926617 l 5.01543,5.013175 c 0.25436,0.145348 0.56324,0.25569 0.92661,0.328364 0.36337,0.07267 0.6899,0.107955 0.9806,0.107955 h 2.94403 13.18854 1.14477 c 0.2907,0 0.61947,-0.03528 0.98285,-0.107955 0.3997,-0.07267 0.72623,-0.183016 0.98059,-0.328364 l 5.01318,-5.013175 c 0.10905,-0.254359 0.20171,-0.563247 0.27439,-0.926617 0.10904,-0.363369 0.16192,-0.689898 0.16192,-0.980593 V 35.297425 15.730526 14.695954 c 0,-0.290696 -0.053,-0.617225 -0.16192,-0.980594 -0.0727,-0.36337 -0.16539,-0.672258 -0.27439,-0.926617 L 566.60057,7.7733202 C 566.34621,7.6643055 566.01968,7.5738568 565.61998,7.501183 565.2566,7.3921683 564.92783,7.337 564.63713,7.337 h -3.4883 -11.44552 z m 32.05823,0 c -0.69041,0 -1.03458,0.3464185 -1.03458,1.0368212 v 7.1947718 c 0,0.290695 0.0904,0.544413 0.27214,0.762434 0.21802,0.181685 0.47174,0.272137 0.76244,0.272137 h 7.74129 c 0.2907,0 0.52677,0.09045 0.70846,0.272137 0.18168,0.181685 0.27214,0.417761 0.27214,0.708458 v 26.871875 c 0,0.290696 0.0904,0.544413 0.27214,0.762435 0.21801,0.181685 0.47173,0.272137 0.76243,0.272137 h 7.5771 c 0.29071,0 0.52678,-0.09045 0.70847,-0.272137 0.18168,-0.218022 0.27214,-0.471739 0.27214,-0.762435 V 17.583759 c 0,-0.290697 0.0905,-0.526773 0.27214,-0.708458 0.21801,-0.181684 0.47398,-0.272137 0.76468,-0.272137 h 7.73904 c 0.2907,0 0.52678,-0.09045 0.70846,-0.272137 0.21802,-0.218021 0.32836,-0.471739 0.32836,-0.762434 V 8.3738212 c 0,-0.2906951 -0.11032,-0.5290213 -0.32836,-0.7107063 C 607.03483,7.4450935 606.79875,7.337 606.50805,7.337 h -7.73904 -2.01743 -7.5771 -2.01517 z m -71.09532,8.285571 h 14.66168 v 6.81243 H 508.3227 Z m 41.27266,0.980593 h 12.80845 V 36.280269 H 549.59536 Z M 508.3227,29.739977 h 14.66168 v 7.410681 H 508.3227 Z m -140.71751,22.51318 c -0.31116,0 -0.66135,0.05874 -1.05031,0.175426 -0.38895,0.0778 -0.71956,0.173443 -0.99183,0.290131 l -5.36628,5.368527 c -0.15559,0.272271 -0.27306,0.60288 -0.35086,0.99184 -0.0778,0.388959 -0.11695,0.739147 -0.11695,1.050314 v 3.558028 19.722085 1.808252 c 0,0.311167 0.0392,0.661356 0.11695,1.050315 0.0778,0.388959 0.19527,0.719568 0.35086,0.991839 l 5.36628,5.36628 c 0.27227,0.155583 0.60288,0.273063 0.99183,0.350854 0.38896,0.0778 0.73915,0.116952 1.05031,0.116952 h 1.80827 14.17813 6.24341 c 0.31116,0 0.56346,-0.0979 0.75793,-0.29238 0.23338,-0.233374 0.35086,-0.505244 0.35086,-0.816411 v -7.293731 c 0,-0.311168 -0.11748,-0.563457 -0.35086,-0.757936 -0.19447,-0.233375 -0.44677,-0.350855 -0.75793,-0.350855 h -8.28557 -6.59202 -4.66907 c -0.19448,0 -0.29013,-0.09565 -0.29013,-0.29013 v -6.301891 c 0,-0.194479 0.0957,-0.29238 0.29013,-0.29238 h 6.06798 4.66907 5.89257 c 0.73902,0 1.10879,-0.369767 1.10879,-1.10879 v -5.834084 c 0,-0.311168 -0.11748,-0.563458 -0.35086,-0.757938 -0.19448,-0.233374 -0.44677,-0.350854 -0.75793,-0.350854 h -6.3019 -5.36853 -4.95919 c -0.19448,0 -0.29013,-0.07607 -0.29013,-0.231654 V 62.0546 c 0,-0.19448 0.0957,-0.29238 0.29013,-0.29238 h 5.77786 9.27516 4.49364 c 0.31116,0 0.56346,-0.09565 0.75793,-0.29013 0.23338,-0.19448 0.35086,-0.449018 0.35086,-0.760185 v -7.349958 c 0,-0.311167 -0.11748,-0.563456 -0.35086,-0.757936 -0.19447,-0.233375 -0.44677,-0.350854 -0.75793,-0.350854 h -4.66907 -16.15956 z m 33.74728,0 c -0.31116,0 -0.58302,0.117479 -0.8164,0.350854 -0.19448,0.19448 -0.29239,0.446769 -0.29239,0.757936 v 4.842246 28.821818 4.959198 c 0,0.739022 0.36978,1.108791 1.10879,1.108791 h 4.08432 18.84494 2.33229 c 0.31117,0 0.66136,-0.03916 1.05031,-0.116952 0.42786,-0.07779 0.77805,-0.195271 1.05032,-0.350854 l 5.36853,-5.36628 c 0.11669,-0.272271 0.21458,-0.60288 0.29238,-0.991839 0.11668,-0.388959 0.17318,-0.739148 0.17318,-1.050315 V 83.641162 62.171551 60.129395 c 0,-0.311167 -0.0565,-0.661355 -0.17318,-1.050314 -0.0778,-0.38896 -0.17569,-0.719569 -0.29238,-0.99184 l -5.36853,-5.368527 c -0.27227,-0.116688 -0.62246,-0.212338 -1.05032,-0.290131 -0.38895,-0.116687 -0.73914,-0.175426 -1.05031,-0.175426 h -5.01767 -16.62737 z m 43.41604,0 c -0.73903,0 -1.10879,0.369769 -1.10879,1.10879 v 38.623262 c 0,0.739022 0.36976,1.108791 1.10879,1.108791 h 8.05167 c 0.73901,0 1.10653,-0.369769 1.10653,-1.108791 V 53.361947 c 0,-0.739021 -0.36752,-1.10879 -1.10653,-1.10879 z m 17.1514,0 c -0.73903,0 -1.1088,0.369769 -1.1088,1.10879 v 7.700812 c 0,0.311168 0.0979,0.583037 0.29239,0.816413 0.23337,0.194479 0.50524,0.292379 0.81641,0.292379 h 8.28556 c 0.31118,0 0.56347,0.0979 0.75795,0.292378 0.19448,0.19448 0.29237,0.446769 0.29237,0.757936 v 28.763344 c 0,0.311167 0.0957,0.583037 0.29014,0.816411 0.23336,0.19448 0.50748,0.29238 0.81865,0.29238 h 8.1079 c 0.31116,0 0.56571,-0.0979 0.76018,-0.29238 0.19448,-0.233374 0.29013,-0.505244 0.29013,-0.816411 V 63.221865 c 0,-0.311167 0.0979,-0.563456 0.29237,-0.757936 0.23338,-0.194479 0.50526,-0.292378 0.81642,-0.292378 h 8.28557 c 0.31116,0 0.56346,-0.0979 0.75793,-0.292379 0.23338,-0.233376 0.35086,-0.505245 0.35086,-0.816413 v -7.700812 c 0,-0.311167 -0.11748,-0.563456 -0.35086,-0.757936 -0.19447,-0.233375 -0.44677,-0.350854 -0.75793,-0.350854 h -8.28557 -2.1591 -8.1079 -2.15911 z m 38.22967,0 c -0.73902,0 -1.10879,0.369769 -1.10879,1.10879 v 38.623262 c 0,0.739022 0.36977,1.108791 1.10879,1.108791 h 8.05167 c 0.73901,0 1.10653,-0.369769 1.10653,-1.108791 V 53.361947 c 0,-0.739021 -0.36752,-1.10879 -1.10653,-1.10879 z m 26.13642,0 c -0.31116,0 -0.66135,0.05874 -1.0503,0.175426 -0.38896,0.0778 -0.71958,0.173443 -0.99184,0.290131 l -5.36853,5.368527 c -0.15558,0.272271 -0.27082,0.60288 -0.34861,0.99184 -0.0777,0.388959 -0.11695,0.739147 -0.11695,1.050314 v 3.033995 20.828628 1.225742 c 0,0.311167 0.0392,0.661356 0.11695,1.050315 0.0778,0.388959 0.19303,0.719568 0.34861,0.991839 l 5.36853,5.36628 c 0.27226,0.155583 0.60288,0.273063 0.99184,0.350854 0.38895,0.0778 0.73914,0.116952 1.0503,0.116952 h 3.15095 14.11966 1.22349 c 0.31117,0 0.66136,-0.03916 1.05032,-0.116952 0.42786,-0.07779 0.77805,-0.195271 1.05031,-0.350854 l 5.36853,-5.36628 c 0.11669,-0.272271 0.21459,-0.60288 0.29239,-0.991839 0.11668,-0.388959 0.17317,-0.739148 0.17317,-1.050315 V 82.183766 61.238187 60.129395 c 0,-0.311167 -0.0565,-0.661355 -0.17317,-1.050314 -0.0779,-0.38896 -0.1757,-0.719569 -0.29239,-0.99184 l -5.36853,-5.368527 c -0.27226,-0.116688 -0.62245,-0.212338 -1.05031,-0.290131 -0.38896,-0.116687 -0.73915,-0.175426 -1.05032,-0.175426 h -3.73346 -12.25292 z m 36.65084,0 c -0.73903,0 -1.10879,0.369769 -1.10879,1.10879 v 38.623262 c 0,0.739022 0.36976,1.108791 1.10879,1.108791 h 8.05167 c 0.73902,0 1.10879,-0.369769 1.10879,-1.108791 V 68.35649 l 12.8939,23.804146 c 0.15559,0.272271 0.3883,0.504981 0.69947,0.699461 0.31117,0.155583 0.62219,0.233903 0.93336,0.233903 h 0.70171 7.70082 c 0.31116,0 0.56345,-0.0979 0.75793,-0.29238 0.23338,-0.233374 0.35086,-0.505244 0.35086,-0.816411 V 53.361947 c 0,-0.311167 -0.11748,-0.563456 -0.35086,-0.757936 -0.19448,-0.233375 -0.44677,-0.350854 -0.75793,-0.350854 h -8.11015 c -0.31116,0 -0.58304,0.117479 -0.81642,0.350854 -0.19447,0.19448 -0.29237,0.446769 -0.29237,0.757936 V 77.049142 L 572.85523,53.186521 c -0.15558,-0.272272 -0.38829,-0.485402 -0.69946,-0.640986 -0.31116,-0.194479 -0.6222,-0.292378 -0.93337,-0.292378 z m -152.42615,9.918394 h 5.01767 3.15095 5.54395 v 6.30189 10.442428 4.318213 h -5.60243 -2.85856 -5.25158 V 78.565014 68.122587 Z m 118.16833,0 h 13.71032 v 21.062531 h -13.71032 z"
     id="text29"
     inkscape:connector-curvature="0" />
</svg>
