<?xml version="1.0" encoding="UTF-8" standalone="no"?>
<svg
   xmlns:dc="http://purl.org/dc/elements/1.1/"
   xmlns:cc="http://creativecommons.org/ns#"
   xmlns:rdf="http://www.w3.org/1999/02/22-rdf-syntax-ns#"
   xmlns:svg="http://www.w3.org/2000/svg"
   xmlns="http://www.w3.org/2000/svg"
   xmlns:sodipodi="http://sodipodi.sourceforge.net/DTD/sodipodi-0.dtd"
   xmlns:inkscape="http://www.inkscape.org/namespaces/inkscape"
   viewBox="0 0 325.48 197.18"
   version="1.1"
   id="svg22"
   sodipodi:docname="welcome_cura.svg"
   inkscape:version="0.92.4 (5da689c313, 2019-01-14)">
  <metadata
     id="metadata28">
    <rdf:RDF>
      <cc:Work
         rdf:about="">
        <dc:format>image/svg+xml</dc:format>
        <dc:type
           rdf:resource="http://purl.org/dc/dcmitype/StillImage" />
      </cc:Work>
    </rdf:RDF>
  </metadata>
  <defs
     id="defs26" />
  <sodipodi:namedview
     pagecolor="#ffffff"
     bordercolor="#666666"
     borderopacity="1"
     objecttolerance="10"
     gridtolerance="10"
     guidetolerance="10"
     inkscape:pageopacity="0"
     inkscape:pageshadow="2"
     inkscape:window-width="1920"
     inkscape:window-height="972"
     id="namedview24"
     showgrid="false"
     inkscape:zoom="2.707504"
     inkscape:cx="74.032902"
     inkscape:cy="112.70471"
     inkscape:window-x="0"
     inkscape:window-y="33"
     inkscape:window-maximized="1"
     inkscape:current-layer="text828" />
  <g
     id="g12"
     style="fill:none;stroke:#666666;stroke-width:2;stroke-linecap:round;stroke-linejoin:round;stroke-opacity:1">
    <rect
       x="41.57"
       y="9.2600002"
       width="242.34"
       height="169.32001"
       rx="6.0999999"
       id="rect2"
       style="fill:#c1d82f;fill-opacity:1;stroke:#666666;stroke-opacity:1" />
    <!-- Border of screen. -->
    <!-- Screen background colour. -->
    <rect
       x="49.880001"
       y="17.57"
       width="225.73"
       height="155.91"
       rx="2"
       id="rect6"
       style="fill:none;fill-opacity:1;stroke:#666666;stroke-opacity:1" />
    <rect
       x="52.880001"
       y="20.57"
       width="219.73"
       height="155.91"
       id="rect4"
       style="fill:#ffffff;fill-opacity:1;stroke:#666666;stroke-opacity:1" />
    <!-- Screen inner bezel. -->
    <line
       x1="14.64"
       y1="187.91"
       x2="310.85001"
       y2="187.91"
       id="line8"
       style="stroke:#666666;stroke-opacity:1" />
    <!-- Table. -->
    <path
       d="m 305.63,172.43 a 15.48,15.48 0 0 1 -15.48,15.48 H 35.34 a 15.48,15.48 0 0 1 -15.48,-15.48 1,1 0 0 1 1,-1 h 283.77 a 1,1 0 0 1 1,1 z"
       id="path10"
       inkscape:connector-curvature="0"
       style="fill:#c1d82f;fill-opacity:1;stroke:#666666;stroke-opacity:1" />
    <!-- Body. -->
  </g>
  <path
     style="fill:#788814;fill-opacity:1;stroke:none;stroke-width:0.23923154;stroke-opacity:1"
     inkscape:connector-curvature="0"
     id="path823"
     d="m 187.23595,172.70536 a 2.6633245,5.1493773 0 0 1 -2.66333,5.14938 h -43.8399 a 2.6633245,5.1493773 0 0 1 -2.66333,-5.14938 0.17204938,0.33264711 0 0 1 0.17205,-0.33265 h 48.82246 a 0.17204938,0.33264711 0 0 1 0.17205,0.33265 z" />
  <!-- Touchpad. -->
  <g
     id="g20"
     style="fill:none;stroke:#c1d8ff;stroke-width:2;stroke-linecap:round;stroke-opacity:1">
    <polygon
       points="117.36,77.7 144.3,50.78 207.16,50.78 207.16,113.59 180.22,140.51 117.36,140.51 "
       id="polygon16"
       style="fill:#c1d82f;fill-opacity:1;stroke:#c1d82f;stroke-opacity:1" />
    <!-- Cura logo border. -->
    <!-- Letter C. -->
  </g>
  <g
     aria-label="C"
     style="font-style:normal;font-variant:normal;font-weight:bold;font-stretch:normal;font-size:90.13072205px;line-height:1.25;font-family:Outage;-inkscape-font-specification:'Outage, Bold';font-variant-ligatures:normal;font-variant-caps:normal;font-variant-numeric:normal;font-feature-settings:normal;text-align:start;letter-spacing:0px;word-spacing:0px;writing-mode:lr-tb;text-anchor:start;fill:#000000;fill-opacity:1;stroke:none;stroke-width:2.25326824"
     id="text828">
    <path
       d="m 154.40377,79.590588 q -0.72105,0 -1.26183,0.450654 -0.45065,0.450653 -0.45065,1.171699 V 110.4153 q 0,0.72104 0.45065,1.26183 0.54078,0.45065 1.26183,0.45065 h 28.93196 q 0.72105,0 1.1717,0.45065 0.54079,0.45066 0.54079,1.1717 v 11.89726 q 0,0.72104 -0.54079,1.26183 -0.45065,0.45065 -1.1717,0.45065 h -27.67013 -5.49797 -1.1717 q -0.72105,0 -1.62236,-0.18026 -0.9013,-0.18026 -1.53222,-0.54078 l -8.29202,-8.29203 q -0.36053,-0.63092 -0.54079,-1.53222 -0.18026,-0.90131 -0.18026,-1.62236 v -0.54078 -9.55386 -21.451109 -4.776929 -2.433529 q 0,-0.721046 0.18026,-1.622353 0.18026,-0.901307 0.54079,-1.532222 l 8.29202,-8.292027 q 0.63092,-0.270392 1.26183,-0.450653 0.72105,-0.270393 1.08157,-0.270393 h 0.81118 1.1717 0.36052 0.18026 2.07301 30.55431 q 0.72105,0 1.1717,0.540785 0.54079,0.450653 0.54079,1.171699 v 11.897256 q 0,0.721045 -0.54079,1.26183 -0.45065,0.450653 -1.1717,0.450653 z"
       style="stroke-width:2.25326824"
       id="path825"
       inkscape:connector-curvature="0" />
  </g>
</svg>
