<?xml version="1.0" encoding="UTF-8" standalone="no"?>
<svg
   xmlns:dc="http://purl.org/dc/elements/1.1/"
   xmlns:cc="http://creativecommons.org/ns#"
   xmlns:rdf="http://www.w3.org/1999/02/22-rdf-syntax-ns#"
   xmlns:svg="http://www.w3.org/2000/svg"
   xmlns="http://www.w3.org/2000/svg"
   xmlns:sodipodi="http://sodipodi.sourceforge.net/DTD/sodipodi-0.dtd"
   xmlns:inkscape="http://www.inkscape.org/namespaces/inkscape"
   version="1.1"
   viewBox="0 0 24 24"
   id="svg4"
   sodipodi:docname="zipper.svg"
   inkscape:version="0.92.4 (5da689c313, 2019-01-14)">
  <metadata
     id="metadata10">
    <rdf:RDF>
      <cc:Work
         rdf:about="">
        <dc:format>image/svg+xml</dc:format>
        <dc:type
           rdf:resource="http://purl.org/dc/dcmitype/StillImage" />
        <dc:title></dc:title>
      </cc:Work>
    </rdf:RDF>
  </metadata>
  <defs
     id="defs8" />
  <sodipodi:namedview
     pagecolor="#ffffff"
     bordercolor="#666666"
     borderopacity="1"
     objecttolerance="10"
     gridtolerance="10"
     guidetolerance="10"
     inkscape:pageopacity="0"
     inkscape:pageshadow="2"
     inkscape:window-width="1920"
     inkscape:window-height="972"
     id="namedview6"
     showgrid="false"
     showguides="true"
     inkscape:zoom="29.659201"
     inkscape:cx="16.346572"
     inkscape:cy="14.069459"
     inkscape:window-x="0"
     inkscape:window-y="33"
     inkscape:window-maximized="1"
     inkscape:current-layer="svg4" />
  <path
     d="M18,21H6c-1.7,0-3-1.3-3-3V6c0-1.7,1.3-3,3-3h12c1.7,0,3,1.3,3,3v12C21,19.7,19.7,21,18,21z M5,19h14V5H5V19z"
     id="path2" />
  <path
     style="opacity:1;fill:#000000;stroke-width:1.01670229"
     d="M 10.498047 4.8632812 L 10.498047 6.9355469 L 8.0019531 6.9355469 L 8.0019531 9.0019531 L 10.494141 9.0019531 L 10.494141 11.066406 L 7.9980469 11.066406 L 7.9980469 13.132812 L 10.466797 13.132812 L 10.466797 14.990234 L 7.9707031 14.990234 L 7.9707031 16.990234 L 10.501953 16.990234 L 10.501953 19.041016 L 15.998047 19.041016 L 15.998047 16.978516 L 13.46875 16.978516 L 13.46875 14.994141 L 15.964844 14.994141 L 15.964844 12.986328 L 13.496094 12.986328 L 13.496094 11.070312 L 15.992188 11.070312 L 15.992188 8.9941406 L 13.5 8.9941406 L 13.5 6.9394531 L 15.996094 6.9394531 L 15.996094 4.8632812 L 10.498047 4.8632812 z "
     id="rect12" />
</svg>
