solid OpenSCAD_Model
  facet normal -1 0 0
    outer loop
      vertex -140 -140 0
      vertex -140 140 0
      vertex -140 -140 -4
    endloop
  endfacet
  facet normal -1 0 0
    outer loop
      vertex -140 -140 -4
      vertex -140 140 0
      vertex -140 140 -4
    endloop
  endfacet
  facet normal 0 0 1
    outer loop
      vertex -140 -140 0
      vertex 140 -140 0
      vertex 140 140 0
    endloop
  endfacet
  facet normal 0 0 1
    outer loop
      vertex -140 140 0
      vertex -140 -140 0
      vertex 140 140 0
    endloop
  endfacet
  facet normal 0 -1 0
    outer loop
      vertex -140 -140 -4
      vertex 140 -140 -4
      vertex 140 -140 0
    endloop
  endfacet
  facet normal 0 -1 0
    outer loop
      vertex -140 -140 0
      vertex -140 -140 -4
      vertex 140 -140 0
    endloop
  endfacet
  facet normal 0 0 -1
    outer loop
      vertex -140 140 -4
      vertex 140 140 -4
      vertex -140 -140 -4
    endloop
  endfacet
  facet normal 0 0 -1
    outer loop
      vertex -140 -140 -4
      vertex 140 140 -4
      vertex 140 -140 -4
    endloop
  endfacet
  facet normal 0 1 0
    outer loop
      vertex -140 140 0
      vertex 140 140 0
      vertex -140 140 -4
    endloop
  endfacet
  facet normal 0 1 0
    outer loop
      vertex -140 140 -4
      vertex 140 140 0
      vertex 140 140 -4
    endloop
  endfacet
  facet normal 1 0 0
    outer loop
      vertex 140 -140 -4
      vertex 140 140 -4
      vertex 140 140 0
    endloop
  endfacet
  facet normal 1 0 0
    outer loop
      vertex 140 -140 0
      vertex 140 -140 -4
      vertex 140 140 0
    endloop
  endfacet
endsolid OpenSCAD_Model
