solid OpenSCAD_Model
  facet normal 0 0 -1
    outer loop
      vertex -10.049 4.4741 11
      vertex -8.89919 6.46564 11
      vertex -10.7596 2.28703 11
    endloop
  endfacet
  facet normal 0 0 -1
    outer loop
      vertex -10.7596 2.28703 11
      vertex -8.89919 6.46564 11
      vertex -7.36044 8.17459 11
    endloop
  endfacet
  facet normal 0 0 -1
    outer loop
      vertex -10.7596 2.28703 11
      vertex -7.36044 8.17459 11
      vertex -5.5 9.52628 11
    endloop
  endfacet
  facet normal 0 0 -1
    outer loop
      vertex -10.7596 2.28703 11
      vertex -5.5 9.52628 11
      vertex -3.39919 10.4616 11
    endloop
  endfacet
  facet normal 0 0 -1
    outer loop
      vertex -10.7596 2.28703 11
      vertex -3.39919 10.4616 11
      vertex -1.14981 10.9397 11
    endloop
  endfacet
  facet normal 0 0 -1
    outer loop
      vertex -10.7596 2.28703 11
      vertex -1.14981 10.9397 11
      vertex 0 10.9397 11
    endloop
  endfacet
  facet normal 0 0 -1
    outer loop
      vertex -10.7596 2.28703 11
      vertex 0 10.9397 11
      vertex 0 0 11
    endloop
  endfacet
  facet normal 0 0 -1
    outer loop
      vertex 0 0 11
      vertex 11 0 11
      vertex 10.7596 -2.28703 11
    endloop
  endfacet
  facet normal 0 0 -1
    outer loop
      vertex 0 0 11
      vertex 10.7596 -2.28703 11
      vertex 10.049 -4.4741 11
    endloop
  endfacet
  facet normal 0 0 -1
    outer loop
      vertex 0 0 11
      vertex 10.049 -4.4741 11
      vertex -10.7596 2.28703 11
    endloop
  endfacet
  facet normal 0 0 -1
    outer loop
      vertex -10.7596 2.28703 11
      vertex 10.049 -4.4741 11
      vertex 8.89919 -6.46564 11
    endloop
  endfacet
  facet normal 0 0 -1
    outer loop
      vertex -10.7596 2.28703 11
      vertex 8.89919 -6.46564 11
      vertex 7.36044 -8.17459 11
    endloop
  endfacet
  facet normal 0 0 -1
    outer loop
      vertex -10.7596 2.28703 11
      vertex 7.36044 -8.17459 11
      vertex 5.5 -9.52628 11
    endloop
  endfacet
  facet normal 0 0 -1
    outer loop
      vertex -10.7596 2.28703 11
      vertex 5.5 -9.52628 11
      vertex 3.39919 -10.4616 11
    endloop
  endfacet
  facet normal 0 0 -1
    outer loop
      vertex -10.7596 2.28703 11
      vertex 3.39919 -10.4616 11
      vertex 1.14981 -10.9397 11
    endloop
  endfacet
  facet normal 0 0 -1
    outer loop
      vertex -10.7596 2.28703 11
      vertex 1.14981 -10.9397 11
      vertex -1.14981 -10.9397 11
    endloop
  endfacet
  facet normal 0 0 -1
    outer loop
      vertex -10.7596 2.28703 11
      vertex -1.14981 -10.9397 11
      vertex -3.39919 -10.4616 11
    endloop
  endfacet
  facet normal 0 0 -1
    outer loop
      vertex -10.7596 2.28703 11
      vertex -3.39919 -10.4616 11
      vertex -5.5 -9.52628 11
    endloop
  endfacet
  facet normal 0 0 -1
    outer loop
      vertex -10.7596 2.28703 11
      vertex -5.5 -9.52628 11
      vertex -7.36044 -8.17459 11
    endloop
  endfacet
  facet normal 0 0 -1
    outer loop
      vertex -10.7596 2.28703 11
      vertex -7.36044 -8.17459 11
      vertex -8.89919 -6.46564 11
    endloop
  endfacet
  facet normal 0 0 -1
    outer loop
      vertex -10.7596 2.28703 11
      vertex -8.89919 -6.46564 11
      vertex -10.049 -4.4741 11
    endloop
  endfacet
  facet normal 0 0 -1
    outer loop
      vertex -10.7596 2.28703 11
      vertex -10.049 -4.4741 11
      vertex -10.7596 -2.28703 11
    endloop
  endfacet
  facet normal 0 0 -1
    outer loop
      vertex -10.7596 2.28703 11
      vertex -10.7596 -2.28703 11
      vertex -11 0 11
    endloop
  endfacet
  facet normal -0.994522 0.104528 0
    outer loop
      vertex -11 0 11
      vertex -11 0 12.5
      vertex -10.7596 2.28703 11
    endloop
  endfacet
  facet normal -0.994522 0.104528 0
    outer loop
      vertex -10.7596 2.28703 11
      vertex -11 0 12.5
      vertex -10.7596 2.28703 12.5
    endloop
  endfacet
  facet normal -0.994522 -0.104528 0
    outer loop
      vertex -11 0 11
      vertex -10.7596 -2.28703 11
      vertex -11 0 12.5
    endloop
  endfacet
  facet normal -0.994522 -0.104528 0
    outer loop
      vertex -11 0 12.5
      vertex -10.7596 -2.28703 11
      vertex -10.7596 -2.28703 12.5
    endloop
  endfacet
  facet normal -0.951056 0.309017 0
    outer loop
      vertex -10.7596 2.28703 11
      vertex -10.7596 2.28703 12.5
      vertex -10.049 4.4741 11
    endloop
  endfacet
  facet normal -0.951056 0.309017 0
    outer loop
      vertex -10.049 4.4741 11
      vertex -10.7596 2.28703 12.5
      vertex -10.049 4.4741 12.5
    endloop
  endfacet
  facet normal -0.951056 -0.309017 0
    outer loop
      vertex -10.7596 -2.28703 11
      vertex -10.049 -4.4741 11
      vertex -10.7596 -2.28703 12.5
    endloop
  endfacet
  facet normal -0.951056 -0.309017 0
    outer loop
      vertex -10.7596 -2.28703 12.5
      vertex -10.049 -4.4741 11
      vertex -10.049 -4.4741 12.5
    endloop
  endfacet
  facet normal -0.866025 -0.5 0
    outer loop
      vertex -10.049 -4.4741 11
      vertex -8.89919 -6.46564 11
      vertex -10.049 -4.4741 12.5
    endloop
  endfacet
  facet normal -0.866025 -0.5 0
    outer loop
      vertex -10.049 -4.4741 12.5
      vertex -8.89919 -6.46564 11
      vertex -8.89919 -6.46564 12.5
    endloop
  endfacet
  facet normal -0.743145 -0.669131 0
    outer loop
      vertex -8.89919 -6.46564 11
      vertex -7.36044 -8.17459 11
      vertex -8.89919 -6.46564 12.5
    endloop
  endfacet
  facet normal -0.743145 -0.669131 0
    outer loop
      vertex -8.89919 -6.46564 12.5
      vertex -7.36044 -8.17459 11
      vertex -7.36044 -8.17459 12.5
    endloop
  endfacet
  facet normal -0.587785 -0.809017 0
    outer loop
      vertex -7.36044 -8.17459 12.5
      vertex -7.36044 -8.17459 11
      vertex -5.5 -9.52628 11
    endloop
  endfacet
  facet normal -0.587785 -0.809017 0
    outer loop
      vertex -5.5 -9.52628 12.5
      vertex -7.36044 -8.17459 12.5
      vertex -5.5 -9.52628 11
    endloop
  endfacet
  facet normal -0.406737 -0.913545 0
    outer loop
      vertex -5.5 -9.52628 12.5
      vertex -5.5 -9.52628 11
      vertex -3.39919 -10.4616 11
    endloop
  endfacet
  facet normal -0.406737 -0.913545 0
    outer loop
      vertex -3.39919 -10.4616 12.5
      vertex -5.5 -9.52628 12.5
      vertex -3.39919 -10.4616 11
    endloop
  endfacet
  facet normal -0.207912 -0.978148 0
    outer loop
      vertex -3.39919 -10.4616 12.5
      vertex -3.39919 -10.4616 11
      vertex -1.14981 -10.9397 11
    endloop
  endfacet
  facet normal -0.207912 -0.978148 0
    outer loop
      vertex -1.14981 -10.9397 12.5
      vertex -3.39919 -10.4616 12.5
      vertex -1.14981 -10.9397 11
    endloop
  endfacet
  facet normal 0 -1 0
    outer loop
      vertex -1.14981 -10.9397 12.5
      vertex -1.14981 -10.9397 11
      vertex 1.14981 -10.9397 11
    endloop
  endfacet
  facet normal 0 -1 0
    outer loop
      vertex 1.14981 -10.9397 12.5
      vertex -1.14981 -10.9397 12.5
      vertex 1.14981 -10.9397 11
    endloop
  endfacet
  facet normal 0.207912 -0.978148 0
    outer loop
      vertex 1.14981 -10.9397 12.5
      vertex 1.14981 -10.9397 11
      vertex 3.39919 -10.4616 11
    endloop
  endfacet
  facet normal 0.207912 -0.978148 0
    outer loop
      vertex 3.39919 -10.4616 12.5
      vertex 1.14981 -10.9397 12.5
      vertex 3.39919 -10.4616 11
    endloop
  endfacet
  facet normal 0.406737 -0.913545 0
    outer loop
      vertex 3.39919 -10.4616 12.5
      vertex 3.39919 -10.4616 11
      vertex 5.5 -9.52628 11
    endloop
  endfacet
  facet normal 0.406737 -0.913545 0
    outer loop
      vertex 5.5 -9.52628 12.5
      vertex 3.39919 -10.4616 12.5
      vertex 5.5 -9.52628 11
    endloop
  endfacet
  facet normal 0.587785 -0.809017 0
    outer loop
      vertex 5.5 -9.52628 12.5
      vertex 5.5 -9.52628 11
      vertex 7.36044 -8.17459 11
    endloop
  endfacet
  facet normal 0.587785 -0.809017 0
    outer loop
      vertex 7.36044 -8.17459 12.5
      vertex 5.5 -9.52628 12.5
      vertex 7.36044 -8.17459 11
    endloop
  endfacet
  facet normal 0.743145 -0.669131 0
    outer loop
      vertex 7.36044 -8.17459 12.5
      vertex 7.36044 -8.17459 11
      vertex 8.89919 -6.46564 11
    endloop
  endfacet
  facet normal 0.743145 -0.669131 0
    outer loop
      vertex 8.89919 -6.46564 12.5
      vertex 7.36044 -8.17459 12.5
      vertex 8.89919 -6.46564 11
    endloop
  endfacet
  facet normal 0.866025 -0.5 0
    outer loop
      vertex 8.89919 -6.46564 12.5
      vertex 8.89919 -6.46564 11
      vertex 10.049 -4.4741 11
    endloop
  endfacet
  facet normal 0.866025 -0.5 0
    outer loop
      vertex 10.049 -4.4741 12.5
      vertex 8.89919 -6.46564 12.5
      vertex 10.049 -4.4741 11
    endloop
  endfacet
  facet normal 0.951056 -0.309017 0
    outer loop
      vertex 10.049 -4.4741 12.5
      vertex 10.049 -4.4741 11
      vertex 10.7596 -2.28703 11
    endloop
  endfacet
  facet normal 0.951056 -0.309017 0
    outer loop
      vertex 10.7596 -2.28703 12.5
      vertex 10.049 -4.4741 12.5
      vertex 10.7596 -2.28703 11
    endloop
  endfacet
  facet normal 0.994522 -0.104528 0
    outer loop
      vertex 10.7596 -2.28703 12.5
      vertex 10.7596 -2.28703 11
      vertex 11 0 11
    endloop
  endfacet
  facet normal 0.994522 -0.104528 0
    outer loop
      vertex 11 0 12.5
      vertex 10.7596 -2.28703 12.5
      vertex 11 0 11
    endloop
  endfacet
  facet normal 0.994522 0.104528 0
    outer loop
      vertex 11 0 11
      vertex 10.7596 2.28703 11
      vertex 10.7596 2.28703 12.5
    endloop
  endfacet
  facet normal 0.994522 0.104528 0
    outer loop
      vertex 11 0 12.5
      vertex 11 0 11
      vertex 10.7596 2.28703 12.5
    endloop
  endfacet
  facet normal 0 0 1
    outer loop
      vertex 5.5 9.52628 11
      vertex 7.36044 8.17459 11
      vertex 0 269.06 11
    endloop
  endfacet
  facet normal 0 0 1
    outer loop
      vertex 0 269.06 11
      vertex 0 10.9397 11
      vertex 1.14981 10.9397 11
    endloop
  endfacet
  facet normal 0 0 1
    outer loop
      vertex 7.36044 8.17459 11
      vertex 8.89919 6.46564 11
      vertex 0 269.06 11
    endloop
  endfacet
  facet normal 0 0 1
    outer loop
      vertex 3.39919 10.4616 11
      vertex 0 269.06 11
      vertex 1.14981 10.9397 11
    endloop
  endfacet
  facet normal 0 0 1
    outer loop
      vertex 3.39919 10.4616 11
      vertex 5.5 9.52628 11
      vertex 0 269.06 11
    endloop
  endfacet
  facet normal 0 0 1
    outer loop
      vertex 8.89919 6.46564 11
      vertex 10.049 4.4741 11
      vertex 0 269.06 11
    endloop
  endfacet
  facet normal 0 0 1
    outer loop
      vertex 10.049 4.4741 11
      vertex 10.7596 2.28703 11
      vertex 0 269.06 11
    endloop
  endfacet
  facet normal 0 0 1
    outer loop
      vertex 10.7596 2.28703 11
      vertex 11 0 11
      vertex 0 269.06 11
    endloop
  endfacet
  facet normal 0 0 1
    outer loop
      vertex 269.24 2.28703 11
      vertex 269.951 4.4741 11
      vertex 0 269.06 11
    endloop
  endfacet
  facet normal 0 0 1
    outer loop
      vertex 11 0 11
      vertex 269 0 11
      vertex 0 269.06 11
    endloop
  endfacet
  facet normal 0 0 1
    outer loop
      vertex 269 0 11
      vertex 269.24 2.28703 11
      vertex 0 269.06 11
    endloop
  endfacet
  facet normal 0 0 1
    outer loop
      vertex 269.951 4.4741 11
      vertex 271.101 6.46564 11
      vertex 0 269.06 11
    endloop
  endfacet
  facet normal 0 0 1
    outer loop
      vertex 271.101 6.46564 11
      vertex 272.64 8.17459 11
      vertex 0 269.06 11
    endloop
  endfacet
  facet normal 0 0 1
    outer loop
      vertex 272.64 8.17459 11
      vertex 274.5 9.52628 11
      vertex 0 269.06 11
    endloop
  endfacet
  facet normal 0 0 1
    outer loop
      vertex 274.5 9.52628 11
      vertex 276.601 10.4616 11
      vertex 0 269.06 11
    endloop
  endfacet
  facet normal 0 0 1
    outer loop
      vertex 276.601 10.4616 11
      vertex 278.85 10.9397 11
      vertex 0 269.06 11
    endloop
  endfacet
  facet normal 0 0 1
    outer loop
      vertex 278.85 10.9397 11
      vertex 280 10.9397 11
      vertex 0 269.06 11
    endloop
  endfacet
  facet normal 0 0 1
    outer loop
      vertex 280 10.9397 11
      vertex 278.85 269.06 11
      vertex 1.14981 269.06 11
    endloop
  endfacet
  facet normal 0 0 1
    outer loop
      vertex 280 10.9397 11
      vertex 280 269.06 11
      vertex 278.85 269.06 11
    endloop
  endfacet
  facet normal 0 0 1
    outer loop
      vertex 10.7596 277.713 11
      vertex 269 280 11
      vertex 11 280 11
    endloop
  endfacet
  facet normal 0 0 1
    outer loop
      vertex 10.049 275.526 11
      vertex 269 280 11
      vertex 10.7596 277.713 11
    endloop
  endfacet
  facet normal 0 0 1
    outer loop
      vertex 8.89919 273.534 11
      vertex 269 280 11
      vertex 10.049 275.526 11
    endloop
  endfacet
  facet normal 0 0 1
    outer loop
      vertex 7.36044 271.825 11
      vertex 269 280 11
      vertex 8.89919 273.534 11
    endloop
  endfacet
  facet normal 0 0 1
    outer loop
      vertex 5.5 270.474 11
      vertex 269 280 11
      vertex 7.36044 271.825 11
    endloop
  endfacet
  facet normal 0 0 1
    outer loop
      vertex 3.39919 269.538 11
      vertex 269 280 11
      vertex 5.5 270.474 11
    endloop
  endfacet
  facet normal 0 0 1
    outer loop
      vertex 280 10.9397 11
      vertex 1.14981 269.06 11
      vertex 0 269.06 11
    endloop
  endfacet
  facet normal 0 0 1
    outer loop
      vertex 278.85 269.06 11
      vertex 276.601 269.538 11
      vertex 1.14981 269.06 11
    endloop
  endfacet
  facet normal 0 0 1
    outer loop
      vertex 3.39919 269.538 11
      vertex 269.24 277.713 11
      vertex 269 280 11
    endloop
  endfacet
  facet normal 0 0 1
    outer loop
      vertex 3.39919 269.538 11
      vertex 269.951 275.526 11
      vertex 269.24 277.713 11
    endloop
  endfacet
  facet normal 0 0 1
    outer loop
      vertex 3.39919 269.538 11
      vertex 271.101 273.534 11
      vertex 269.951 275.526 11
    endloop
  endfacet
  facet normal 0 0 1
    outer loop
      vertex 3.39919 269.538 11
      vertex 272.64 271.825 11
      vertex 271.101 273.534 11
    endloop
  endfacet
  facet normal 0 0 1
    outer loop
      vertex 3.39919 269.538 11
      vertex 274.5 270.474 11
      vertex 272.64 271.825 11
    endloop
  endfacet
  facet normal 0 0 1
    outer loop
      vertex 3.39919 269.538 11
      vertex 276.601 269.538 11
      vertex 274.5 270.474 11
    endloop
  endfacet
  facet normal 0 0 1
    outer loop
      vertex 3.39919 269.538 11
      vertex 1.14981 269.06 11
      vertex 276.601 269.538 11
    endloop
  endfacet
  facet normal 0 -1 0
    outer loop
      vertex 0 0 11
      vertex 0 0 0
      vertex 280 0 0
    endloop
  endfacet
  facet normal 0 -1 0
    outer loop
      vertex 11 0 11
      vertex 0 0 11
      vertex 280 0 0
    endloop
  endfacet
  facet normal 0 -1 0
    outer loop
      vertex 280 0 11
      vertex 269 0 11
      vertex 280 0 0
    endloop
  endfacet
  facet normal 0 -1 0
    outer loop
      vertex 269 0 11
      vertex 11 0 11
      vertex 280 0 0
    endloop
  endfacet
  facet normal -1 0 0
    outer loop
      vertex 0 0 0
      vertex 0 0 11
      vertex 0 280 0
    endloop
  endfacet
  facet normal -1 0 0
    outer loop
      vertex 0 280 0
      vertex 0 0 11
      vertex 0 10.9397 11
    endloop
  endfacet
  facet normal -1 0 0
    outer loop
      vertex 0 280 0
      vertex 0 10.9397 11
      vertex 0 269.06 11
    endloop
  endfacet
  facet normal -1 0 0
    outer loop
      vertex 0 280 0
      vertex 0 269.06 11
      vertex 0 280 11
    endloop
  endfacet
  facet normal 0 1 0
    outer loop
      vertex -1.14981 10.9397 11
      vertex -1.14981 10.9397 12.5
      vertex 0 10.9397 11
    endloop
  endfacet
  facet normal 0 1 0
    outer loop
      vertex 0 10.9397 11
      vertex -1.14981 10.9397 12.5
      vertex 1.14981 10.9397 12.5
    endloop
  endfacet
  facet normal 0 1 0
    outer loop
      vertex 0 10.9397 11
      vertex 1.14981 10.9397 12.5
      vertex 1.14981 10.9397 11
    endloop
  endfacet
  facet normal -0.207912 0.978148 0
    outer loop
      vertex -3.39919 10.4616 11
      vertex -3.39919 10.4616 12.5
      vertex -1.14981 10.9397 11
    endloop
  endfacet
  facet normal -0.207912 0.978148 0
    outer loop
      vertex -1.14981 10.9397 11
      vertex -3.39919 10.4616 12.5
      vertex -1.14981 10.9397 12.5
    endloop
  endfacet
  facet normal -0.406737 0.913545 0
    outer loop
      vertex -5.5 9.52628 11
      vertex -5.5 9.52628 12.5
      vertex -3.39919 10.4616 11
    endloop
  endfacet
  facet normal -0.406737 0.913545 0
    outer loop
      vertex -3.39919 10.4616 11
      vertex -5.5 9.52628 12.5
      vertex -3.39919 10.4616 12.5
    endloop
  endfacet
  facet normal -0.587785 0.809017 0
    outer loop
      vertex -7.36044 8.17459 11
      vertex -7.36044 8.17459 12.5
      vertex -5.5 9.52628 11
    endloop
  endfacet
  facet normal -0.587785 0.809017 0
    outer loop
      vertex -5.5 9.52628 11
      vertex -7.36044 8.17459 12.5
      vertex -5.5 9.52628 12.5
    endloop
  endfacet
  facet normal -0.743145 0.669131 0
    outer loop
      vertex -8.89919 6.46564 11
      vertex -8.89919 6.46564 12.5
      vertex -7.36044 8.17459 11
    endloop
  endfacet
  facet normal -0.743145 0.669131 0
    outer loop
      vertex -7.36044 8.17459 11
      vertex -8.89919 6.46564 12.5
      vertex -7.36044 8.17459 12.5
    endloop
  endfacet
  facet normal -0.866025 0.5 0
    outer loop
      vertex -10.049 4.4741 11
      vertex -10.049 4.4741 12.5
      vertex -8.89919 6.46564 11
    endloop
  endfacet
  facet normal -0.866025 0.5 0
    outer loop
      vertex -8.89919 6.46564 11
      vertex -10.049 4.4741 12.5
      vertex -8.89919 6.46564 12.5
    endloop
  endfacet
  facet normal 0 0 1
    outer loop
      vertex -10.7596 2.28703 12.5
      vertex -11 0 12.5
      vertex -10.7596 -2.28703 12.5
    endloop
  endfacet
  facet normal 0 0 1
    outer loop
      vertex -8.89919 -6.46564 12.5
      vertex -10.7596 2.28703 12.5
      vertex -10.049 -4.4741 12.5
    endloop
  endfacet
  facet normal 0 0 1
    outer loop
      vertex -10.049 -4.4741 12.5
      vertex -10.7596 2.28703 12.5
      vertex -10.7596 -2.28703 12.5
    endloop
  endfacet
  facet normal 0 0 1
    outer loop
      vertex -7.36044 -8.17459 12.5
      vertex -10.7596 2.28703 12.5
      vertex -8.89919 -6.46564 12.5
    endloop
  endfacet
  facet normal 0 0 1
    outer loop
      vertex -5.5 -9.52628 12.5
      vertex -10.7596 2.28703 12.5
      vertex -7.36044 -8.17459 12.5
    endloop
  endfacet
  facet normal 0 0 1
    outer loop
      vertex -3.39919 -10.4616 12.5
      vertex -10.7596 2.28703 12.5
      vertex -5.5 -9.52628 12.5
    endloop
  endfacet
  facet normal 0 0 1
    outer loop
      vertex -1.14981 -10.9397 12.5
      vertex -10.7596 2.28703 12.5
      vertex -3.39919 -10.4616 12.5
    endloop
  endfacet
  facet normal 0 0 1
    outer loop
      vertex 1.14981 -10.9397 12.5
      vertex -10.7596 2.28703 12.5
      vertex -1.14981 -10.9397 12.5
    endloop
  endfacet
  facet normal 0 0 1
    outer loop
      vertex 3.39919 -10.4616 12.5
      vertex -10.7596 2.28703 12.5
      vertex 1.14981 -10.9397 12.5
    endloop
  endfacet
  facet normal 0 0 1
    outer loop
      vertex 5.5 -9.52628 12.5
      vertex -10.7596 2.28703 12.5
      vertex 3.39919 -10.4616 12.5
    endloop
  endfacet
  facet normal 0 0 1
    outer loop
      vertex 7.36044 -8.17459 12.5
      vertex -10.7596 2.28703 12.5
      vertex 5.5 -9.52628 12.5
    endloop
  endfacet
  facet normal 0 0 1
    outer loop
      vertex 8.89919 -6.46564 12.5
      vertex -10.7596 2.28703 12.5
      vertex 7.36044 -8.17459 12.5
    endloop
  endfacet
  facet normal 0 0 1
    outer loop
      vertex 10.049 -4.4741 12.5
      vertex -10.7596 2.28703 12.5
      vertex 8.89919 -6.46564 12.5
    endloop
  endfacet
  facet normal 0 0 1
    outer loop
      vertex 10.7596 -2.28703 12.5
      vertex -10.7596 2.28703 12.5
      vertex 10.049 -4.4741 12.5
    endloop
  endfacet
  facet normal 0 0 1
    outer loop
      vertex 11 0 12.5
      vertex -10.7596 2.28703 12.5
      vertex 10.7596 -2.28703 12.5
    endloop
  endfacet
  facet normal 0 0 1
    outer loop
      vertex 10.7596 2.28703 12.5
      vertex -10.7596 2.28703 12.5
      vertex 11 0 12.5
    endloop
  endfacet
  facet normal 0 0 1
    outer loop
      vertex 10.049 4.4741 12.5
      vertex -10.7596 2.28703 12.5
      vertex 10.7596 2.28703 12.5
    endloop
  endfacet
  facet normal 0 0 1
    outer loop
      vertex 8.89919 6.46564 12.5
      vertex -10.7596 2.28703 12.5
      vertex 10.049 4.4741 12.5
    endloop
  endfacet
  facet normal 0 0 1
    outer loop
      vertex 7.36044 8.17459 12.5
      vertex -10.7596 2.28703 12.5
      vertex 8.89919 6.46564 12.5
    endloop
  endfacet
  facet normal 0 0 1
    outer loop
      vertex 5.5 9.52628 12.5
      vertex -10.7596 2.28703 12.5
      vertex 7.36044 8.17459 12.5
    endloop
  endfacet
  facet normal 0 0 1
    outer loop
      vertex 3.39919 10.4616 12.5
      vertex -10.7596 2.28703 12.5
      vertex 5.5 9.52628 12.5
    endloop
  endfacet
  facet normal 0 0 1
    outer loop
      vertex 1.14981 10.9397 12.5
      vertex -10.7596 2.28703 12.5
      vertex 3.39919 10.4616 12.5
    endloop
  endfacet
  facet normal 0 0 1
    outer loop
      vertex -1.14981 10.9397 12.5
      vertex -10.7596 2.28703 12.5
      vertex 1.14981 10.9397 12.5
    endloop
  endfacet
  facet normal 0 0 1
    outer loop
      vertex -3.39919 10.4616 12.5
      vertex -10.7596 2.28703 12.5
      vertex -1.14981 10.9397 12.5
    endloop
  endfacet
  facet normal 0 0 1
    outer loop
      vertex -5.5 9.52628 12.5
      vertex -10.7596 2.28703 12.5
      vertex -3.39919 10.4616 12.5
    endloop
  endfacet
  facet normal 0 0 1
    outer loop
      vertex -7.36044 8.17459 12.5
      vertex -10.7596 2.28703 12.5
      vertex -5.5 9.52628 12.5
    endloop
  endfacet
  facet normal 0 0 1
    outer loop
      vertex -8.89919 6.46564 12.5
      vertex -10.7596 2.28703 12.5
      vertex -7.36044 8.17459 12.5
    endloop
  endfacet
  facet normal 0 0 1
    outer loop
      vertex -10.049 4.4741 12.5
      vertex -10.7596 2.28703 12.5
      vertex -8.89919 6.46564 12.5
    endloop
  endfacet
  facet normal 0.951056 0.309017 0
    outer loop
      vertex 10.7596 2.28703 11
      vertex 10.049 4.4741 11
      vertex 10.049 4.4741 12.5
    endloop
  endfacet
  facet normal 0.951056 0.309017 0
    outer loop
      vertex 10.7596 2.28703 12.5
      vertex 10.7596 2.28703 11
      vertex 10.049 4.4741 12.5
    endloop
  endfacet
  facet normal 0 0 -1
    outer loop
      vertex -10.049 284.474 11
      vertex -8.89919 286.466 11
      vertex -10.7596 282.287 11
    endloop
  endfacet
  facet normal 0 0 -1
    outer loop
      vertex -10.7596 282.287 11
      vertex -8.89919 286.466 11
      vertex -7.36044 288.175 11
    endloop
  endfacet
  facet normal 0 0 -1
    outer loop
      vertex -10.7596 282.287 11
      vertex -7.36044 288.175 11
      vertex -5.5 289.526 11
    endloop
  endfacet
  facet normal 0 0 -1
    outer loop
      vertex -10.7596 282.287 11
      vertex -5.5 289.526 11
      vertex -3.39919 290.462 11
    endloop
  endfacet
  facet normal 0 0 -1
    outer loop
      vertex -10.7596 282.287 11
      vertex -3.39919 290.462 11
      vertex -1.14981 290.94 11
    endloop
  endfacet
  facet normal 0 0 -1
    outer loop
      vertex -10.7596 282.287 11
      vertex -1.14981 290.94 11
      vertex 1.14981 290.94 11
    endloop
  endfacet
  facet normal 0 0 -1
    outer loop
      vertex -10.7596 282.287 11
      vertex 1.14981 290.94 11
      vertex 3.39919 290.462 11
    endloop
  endfacet
  facet normal 0 0 -1
    outer loop
      vertex -10.7596 282.287 11
      vertex 3.39919 290.462 11
      vertex 5.5 289.526 11
    endloop
  endfacet
  facet normal 0 0 -1
    outer loop
      vertex -10.7596 282.287 11
      vertex 5.5 289.526 11
      vertex 7.36044 288.175 11
    endloop
  endfacet
  facet normal 0 0 -1
    outer loop
      vertex -10.7596 282.287 11
      vertex 7.36044 288.175 11
      vertex 8.89919 286.466 11
    endloop
  endfacet
  facet normal 0 0 -1
    outer loop
      vertex -10.7596 282.287 11
      vertex 8.89919 286.466 11
      vertex 10.049 284.474 11
    endloop
  endfacet
  facet normal 0 0 -1
    outer loop
      vertex -10.7596 282.287 11
      vertex 10.049 284.474 11
      vertex 10.7596 282.287 11
    endloop
  endfacet
  facet normal 0 0 -1
    outer loop
      vertex -10.7596 282.287 11
      vertex 10.7596 282.287 11
      vertex 11 280 11
    endloop
  endfacet
  facet normal 0 0 -1
    outer loop
      vertex -10.7596 282.287 11
      vertex 11 280 11
      vertex 0 280 11
    endloop
  endfacet
  facet normal 0 0 -1
    outer loop
      vertex -10.7596 282.287 11
      vertex 0 280 11
      vertex 0 269.06 11
    endloop
  endfacet
  facet normal 0 0 -1
    outer loop
      vertex -10.7596 282.287 11
      vertex 0 269.06 11
      vertex -1.14981 269.06 11
    endloop
  endfacet
  facet normal 0 0 -1
    outer loop
      vertex -10.7596 282.287 11
      vertex -1.14981 269.06 11
      vertex -3.39919 269.538 11
    endloop
  endfacet
  facet normal 0 0 -1
    outer loop
      vertex -10.7596 282.287 11
      vertex -3.39919 269.538 11
      vertex -5.5 270.474 11
    endloop
  endfacet
  facet normal 0 0 -1
    outer loop
      vertex -10.7596 282.287 11
      vertex -5.5 270.474 11
      vertex -7.36044 271.825 11
    endloop
  endfacet
  facet normal 0 0 -1
    outer loop
      vertex -10.7596 282.287 11
      vertex -7.36044 271.825 11
      vertex -8.89919 273.534 11
    endloop
  endfacet
  facet normal 0 0 -1
    outer loop
      vertex -10.7596 282.287 11
      vertex -8.89919 273.534 11
      vertex -10.049 275.526 11
    endloop
  endfacet
  facet normal 0 0 -1
    outer loop
      vertex -10.7596 282.287 11
      vertex -10.049 275.526 11
      vertex -10.7596 277.713 11
    endloop
  endfacet
  facet normal 0 0 -1
    outer loop
      vertex -10.7596 282.287 11
      vertex -10.7596 277.713 11
      vertex -11 280 11
    endloop
  endfacet
  facet normal 0 -1 0
    outer loop
      vertex -1.14981 269.06 12.5
      vertex -1.14981 269.06 11
      vertex 0 269.06 11
    endloop
  endfacet
  facet normal 0 -1 0
    outer loop
      vertex 1.14981 269.06 12.5
      vertex -1.14981 269.06 12.5
      vertex 1.14981 269.06 11
    endloop
  endfacet
  facet normal 0 -1 0
    outer loop
      vertex 1.14981 269.06 11
      vertex -1.14981 269.06 12.5
      vertex 0 269.06 11
    endloop
  endfacet
  facet normal 0.207912 -0.978148 0
    outer loop
      vertex 1.14981 269.06 12.5
      vertex 1.14981 269.06 11
      vertex 3.39919 269.538 11
    endloop
  endfacet
  facet normal 0.207912 -0.978148 0
    outer loop
      vertex 3.39919 269.538 12.5
      vertex 1.14981 269.06 12.5
      vertex 3.39919 269.538 11
    endloop
  endfacet
  facet normal 0.406737 -0.913545 0
    outer loop
      vertex 3.39919 269.538 12.5
      vertex 3.39919 269.538 11
      vertex 5.5 270.474 11
    endloop
  endfacet
  facet normal 0.406737 -0.913545 0
    outer loop
      vertex 5.5 270.474 12.5
      vertex 3.39919 269.538 12.5
      vertex 5.5 270.474 11
    endloop
  endfacet
  facet normal 0.587785 -0.809017 0
    outer loop
      vertex 5.5 270.474 12.5
      vertex 5.5 270.474 11
      vertex 7.36044 271.825 11
    endloop
  endfacet
  facet normal 0.587785 -0.809017 0
    outer loop
      vertex 7.36044 271.825 12.5
      vertex 5.5 270.474 12.5
      vertex 7.36044 271.825 11
    endloop
  endfacet
  facet normal 0.743145 -0.669131 0
    outer loop
      vertex 7.36044 271.825 12.5
      vertex 7.36044 271.825 11
      vertex 8.89919 273.534 11
    endloop
  endfacet
  facet normal 0.743145 -0.669131 0
    outer loop
      vertex 8.89919 273.534 12.5
      vertex 7.36044 271.825 12.5
      vertex 8.89919 273.534 11
    endloop
  endfacet
  facet normal 0.866025 -0.5 0
    outer loop
      vertex 8.89919 273.534 12.5
      vertex 8.89919 273.534 11
      vertex 10.049 275.526 11
    endloop
  endfacet
  facet normal 0.866025 -0.5 0
    outer loop
      vertex 10.049 275.526 12.5
      vertex 8.89919 273.534 12.5
      vertex 10.049 275.526 11
    endloop
  endfacet
  facet normal 0.951056 -0.309017 0
    outer loop
      vertex 10.049 275.526 12.5
      vertex 10.049 275.526 11
      vertex 10.7596 277.713 11
    endloop
  endfacet
  facet normal 0.951056 -0.309017 0
    outer loop
      vertex 10.7596 277.713 12.5
      vertex 10.049 275.526 12.5
      vertex 10.7596 277.713 11
    endloop
  endfacet
  facet normal 0.994522 -0.104528 0
    outer loop
      vertex 10.7596 277.713 12.5
      vertex 10.7596 277.713 11
      vertex 11 280 11
    endloop
  endfacet
  facet normal 0.994522 -0.104528 0
    outer loop
      vertex 11 280 12.5
      vertex 10.7596 277.713 12.5
      vertex 11 280 11
    endloop
  endfacet
  facet normal 0.994522 0.104528 0
    outer loop
      vertex 11 280 11
      vertex 10.7596 282.287 11
      vertex 10.7596 282.287 12.5
    endloop
  endfacet
  facet normal 0.994522 0.104528 0
    outer loop
      vertex 11 280 12.5
      vertex 11 280 11
      vertex 10.7596 282.287 12.5
    endloop
  endfacet
  facet normal 0 1 0
    outer loop
      vertex 0 280 0
      vertex 0 280 11
      vertex 280 280 0
    endloop
  endfacet
  facet normal 0 1 0
    outer loop
      vertex 280 280 0
      vertex 0 280 11
      vertex 11 280 11
    endloop
  endfacet
  facet normal 0 1 0
    outer loop
      vertex 280 280 0
      vertex 11 280 11
      vertex 269 280 11
    endloop
  endfacet
  facet normal 0 1 0
    outer loop
      vertex 280 280 0
      vertex 269 280 11
      vertex 280 280 11
    endloop
  endfacet
  facet normal 0 0 -1
    outer loop
      vertex 269.951 284.474 11
      vertex 271.101 286.466 11
      vertex 269.24 282.287 11
    endloop
  endfacet
  facet normal 0 0 -1
    outer loop
      vertex 269.24 282.287 11
      vertex 271.101 286.466 11
      vertex 272.64 288.175 11
    endloop
  endfacet
  facet normal 0 0 -1
    outer loop
      vertex 269.24 282.287 11
      vertex 272.64 288.175 11
      vertex 274.5 289.526 11
    endloop
  endfacet
  facet normal 0 0 -1
    outer loop
      vertex 269.24 282.287 11
      vertex 274.5 289.526 11
      vertex 276.601 290.462 11
    endloop
  endfacet
  facet normal 0 0 -1
    outer loop
      vertex 269.24 282.287 11
      vertex 276.601 290.462 11
      vertex 278.85 290.94 11
    endloop
  endfacet
  facet normal 0 0 -1
    outer loop
      vertex 269.24 282.287 11
      vertex 278.85 290.94 11
      vertex 281.15 290.94 11
    endloop
  endfacet
  facet normal 0 0 -1
    outer loop
      vertex 269.24 282.287 11
      vertex 281.15 290.94 11
      vertex 283.399 290.462 11
    endloop
  endfacet
  facet normal 0 0 -1
    outer loop
      vertex 269.24 282.287 11
      vertex 283.399 290.462 11
      vertex 285.5 289.526 11
    endloop
  endfacet
  facet normal 0 0 -1
    outer loop
      vertex 269.24 282.287 11
      vertex 285.5 289.526 11
      vertex 287.36 288.175 11
    endloop
  endfacet
  facet normal 0 0 -1
    outer loop
      vertex 269.24 282.287 11
      vertex 287.36 288.175 11
      vertex 288.899 286.466 11
    endloop
  endfacet
  facet normal 0 0 -1
    outer loop
      vertex 269.24 282.287 11
      vertex 288.899 286.466 11
      vertex 290.049 284.474 11
    endloop
  endfacet
  facet normal 0 0 -1
    outer loop
      vertex 269.24 282.287 11
      vertex 290.049 284.474 11
      vertex 290.76 282.287 11
    endloop
  endfacet
  facet normal 0 0 -1
    outer loop
      vertex 269.24 282.287 11
      vertex 290.76 282.287 11
      vertex 291 280 11
    endloop
  endfacet
  facet normal 0 0 -1
    outer loop
      vertex 269.24 282.287 11
      vertex 291 280 11
      vertex 280 280 11
    endloop
  endfacet
  facet normal 0 0 -1
    outer loop
      vertex 280 280 11
      vertex 290.76 277.713 11
      vertex 290.049 275.526 11
    endloop
  endfacet
  facet normal 0 0 -1
    outer loop
      vertex 291 280 11
      vertex 290.76 277.713 11
      vertex 280 280 11
    endloop
  endfacet
  facet normal 0 0 -1
    outer loop
      vertex 269 280 11
      vertex 269.24 282.287 11
      vertex 280 280 11
    endloop
  endfacet
  facet normal 0 0 -1
    outer loop
      vertex 280 280 11
      vertex 290.049 275.526 11
      vertex 288.899 273.534 11
    endloop
  endfacet
  facet normal 0 0 -1
    outer loop
      vertex 280 280 11
      vertex 288.899 273.534 11
      vertex 287.36 271.825 11
    endloop
  endfacet
  facet normal 0 0 -1
    outer loop
      vertex 280 280 11
      vertex 287.36 271.825 11
      vertex 285.5 270.474 11
    endloop
  endfacet
  facet normal 0 0 -1
    outer loop
      vertex 280 280 11
      vertex 285.5 270.474 11
      vertex 283.399 269.538 11
    endloop
  endfacet
  facet normal 0 0 -1
    outer loop
      vertex 280 280 11
      vertex 283.399 269.538 11
      vertex 281.15 269.06 11
    endloop
  endfacet
  facet normal 0 0 -1
    outer loop
      vertex 280 280 11
      vertex 281.15 269.06 11
      vertex 280 269.06 11
    endloop
  endfacet
  facet normal -0.994522 0.104528 0
    outer loop
      vertex 269 280 11
      vertex 269 280 12.5
      vertex 269.24 282.287 11
    endloop
  endfacet
  facet normal -0.994522 0.104528 0
    outer loop
      vertex 269.24 282.287 11
      vertex 269 280 12.5
      vertex 269.24 282.287 12.5
    endloop
  endfacet
  facet normal -0.994522 -0.104528 0
    outer loop
      vertex 269 280 11
      vertex 269.24 277.713 11
      vertex 269 280 12.5
    endloop
  endfacet
  facet normal -0.994522 -0.104528 0
    outer loop
      vertex 269 280 12.5
      vertex 269.24 277.713 11
      vertex 269.24 277.713 12.5
    endloop
  endfacet
  facet normal -0.951056 -0.309017 0
    outer loop
      vertex 269.24 277.713 11
      vertex 269.951 275.526 11
      vertex 269.24 277.713 12.5
    endloop
  endfacet
  facet normal -0.951056 -0.309017 0
    outer loop
      vertex 269.24 277.713 12.5
      vertex 269.951 275.526 11
      vertex 269.951 275.526 12.5
    endloop
  endfacet
  facet normal -0.866025 -0.5 0
    outer loop
      vertex 269.951 275.526 11
      vertex 271.101 273.534 11
      vertex 269.951 275.526 12.5
    endloop
  endfacet
  facet normal -0.866025 -0.5 0
    outer loop
      vertex 269.951 275.526 12.5
      vertex 271.101 273.534 11
      vertex 271.101 273.534 12.5
    endloop
  endfacet
  facet normal -0.743145 -0.669131 0
    outer loop
      vertex 271.101 273.534 11
      vertex 272.64 271.825 11
      vertex 271.101 273.534 12.5
    endloop
  endfacet
  facet normal -0.743145 -0.669131 0
    outer loop
      vertex 271.101 273.534 12.5
      vertex 272.64 271.825 11
      vertex 272.64 271.825 12.5
    endloop
  endfacet
  facet normal -0.587785 -0.809017 0
    outer loop
      vertex 272.64 271.825 12.5
      vertex 272.64 271.825 11
      vertex 274.5 270.474 11
    endloop
  endfacet
  facet normal -0.587785 -0.809017 0
    outer loop
      vertex 274.5 270.474 12.5
      vertex 272.64 271.825 12.5
      vertex 274.5 270.474 11
    endloop
  endfacet
  facet normal -0.406737 -0.913545 0
    outer loop
      vertex 274.5 270.474 12.5
      vertex 274.5 270.474 11
      vertex 276.601 269.538 11
    endloop
  endfacet
  facet normal -0.406737 -0.913545 0
    outer loop
      vertex 276.601 269.538 12.5
      vertex 274.5 270.474 12.5
      vertex 276.601 269.538 11
    endloop
  endfacet
  facet normal -0.207912 -0.978148 0
    outer loop
      vertex 276.601 269.538 12.5
      vertex 276.601 269.538 11
      vertex 278.85 269.06 11
    endloop
  endfacet
  facet normal -0.207912 -0.978148 0
    outer loop
      vertex 278.85 269.06 12.5
      vertex 276.601 269.538 12.5
      vertex 278.85 269.06 11
    endloop
  endfacet
  facet normal 0 -1 0
    outer loop
      vertex 278.85 269.06 12.5
      vertex 278.85 269.06 11
      vertex 280 269.06 11
    endloop
  endfacet
  facet normal 0 -1 0
    outer loop
      vertex 281.15 269.06 12.5
      vertex 278.85 269.06 12.5
      vertex 281.15 269.06 11
    endloop
  endfacet
  facet normal 0 -1 0
    outer loop
      vertex 281.15 269.06 11
      vertex 278.85 269.06 12.5
      vertex 280 269.06 11
    endloop
  endfacet
  facet normal 1 0 0
    outer loop
      vertex 280 0 11
      vertex 280 0 0
      vertex 280 280 0
    endloop
  endfacet
  facet normal 1 0 0
    outer loop
      vertex 280 10.9397 11
      vertex 280 0 11
      vertex 280 280 0
    endloop
  endfacet
  facet normal 1 0 0
    outer loop
      vertex 280 280 11
      vertex 280 269.06 11
      vertex 280 280 0
    endloop
  endfacet
  facet normal 1 0 0
    outer loop
      vertex 280 269.06 11
      vertex 280 10.9397 11
      vertex 280 280 0
    endloop
  endfacet
  facet normal 0 0 -1
    outer loop
      vertex 280 10.9397 11
      vertex 281.15 10.9397 11
      vertex 280 0 11
    endloop
  endfacet
  facet normal 0 0 -1
    outer loop
      vertex 280 0 11
      vertex 281.15 10.9397 11
      vertex 283.399 10.4616 11
    endloop
  endfacet
  facet normal 0 0 -1
    outer loop
      vertex 280 0 11
      vertex 283.399 10.4616 11
      vertex 285.5 9.52628 11
    endloop
  endfacet
  facet normal 0 0 -1
    outer loop
      vertex 280 0 11
      vertex 285.5 9.52628 11
      vertex 287.36 8.17459 11
    endloop
  endfacet
  facet normal 0 0 -1
    outer loop
      vertex 280 0 11
      vertex 287.36 8.17459 11
      vertex 288.899 6.46564 11
    endloop
  endfacet
  facet normal 0 0 -1
    outer loop
      vertex 280 0 11
      vertex 288.899 6.46564 11
      vertex 290.049 4.4741 11
    endloop
  endfacet
  facet normal 0 0 -1
    outer loop
      vertex 280 0 11
      vertex 290.049 4.4741 11
      vertex 290.76 2.28703 11
    endloop
  endfacet
  facet normal 0 0 -1
    outer loop
      vertex 280 0 11
      vertex 290.76 2.28703 11
      vertex 291 0 11
    endloop
  endfacet
  facet normal 0 0 -1
    outer loop
      vertex 280 0 11
      vertex 291 0 11
      vertex 290.76 -2.28703 11
    endloop
  endfacet
  facet normal 0 0 -1
    outer loop
      vertex 280 0 11
      vertex 290.76 -2.28703 11
      vertex 290.049 -4.4741 11
    endloop
  endfacet
  facet normal 0 0 -1
    outer loop
      vertex 280 0 11
      vertex 290.049 -4.4741 11
      vertex 288.899 -6.46564 11
    endloop
  endfacet
  facet normal 0 0 -1
    outer loop
      vertex 280 0 11
      vertex 288.899 -6.46564 11
      vertex 287.36 -8.17459 11
    endloop
  endfacet
  facet normal 0 0 -1
    outer loop
      vertex 280 0 11
      vertex 287.36 -8.17459 11
      vertex 285.5 -9.52628 11
    endloop
  endfacet
  facet normal 0 0 -1
    outer loop
      vertex 280 0 11
      vertex 285.5 -9.52628 11
      vertex 283.399 -10.4616 11
    endloop
  endfacet
  facet normal 0 0 -1
    outer loop
      vertex 280 0 11
      vertex 283.399 -10.4616 11
      vertex 281.15 -10.9397 11
    endloop
  endfacet
  facet normal 0 0 -1
    outer loop
      vertex 280 0 11
      vertex 281.15 -10.9397 11
      vertex 278.85 -10.9397 11
    endloop
  endfacet
  facet normal 0 0 -1
    outer loop
      vertex 280 0 11
      vertex 278.85 -10.9397 11
      vertex 276.601 -10.4616 11
    endloop
  endfacet
  facet normal 0 0 -1
    outer loop
      vertex 280 0 11
      vertex 276.601 -10.4616 11
      vertex 274.5 -9.52628 11
    endloop
  endfacet
  facet normal 0 0 -1
    outer loop
      vertex 280 0 11
      vertex 274.5 -9.52628 11
      vertex 272.64 -8.17459 11
    endloop
  endfacet
  facet normal 0 0 -1
    outer loop
      vertex 280 0 11
      vertex 272.64 -8.17459 11
      vertex 271.101 -6.46564 11
    endloop
  endfacet
  facet normal 0 0 -1
    outer loop
      vertex 280 0 11
      vertex 271.101 -6.46564 11
      vertex 269.951 -4.4741 11
    endloop
  endfacet
  facet normal 0 0 -1
    outer loop
      vertex 280 0 11
      vertex 269.951 -4.4741 11
      vertex 269.24 -2.28703 11
    endloop
  endfacet
  facet normal 0 0 -1
    outer loop
      vertex 280 0 11
      vertex 269.24 -2.28703 11
      vertex 269 0 11
    endloop
  endfacet
  facet normal 0 1 0
    outer loop
      vertex 278.85 10.9397 11
      vertex 278.85 10.9397 12.5
      vertex 280 10.9397 11
    endloop
  endfacet
  facet normal 0 1 0
    outer loop
      vertex 280 10.9397 11
      vertex 278.85 10.9397 12.5
      vertex 281.15 10.9397 12.5
    endloop
  endfacet
  facet normal 0 1 0
    outer loop
      vertex 280 10.9397 11
      vertex 281.15 10.9397 12.5
      vertex 281.15 10.9397 11
    endloop
  endfacet
  facet normal -0.207912 0.978148 0
    outer loop
      vertex 276.601 10.4616 11
      vertex 276.601 10.4616 12.5
      vertex 278.85 10.9397 11
    endloop
  endfacet
  facet normal -0.207912 0.978148 0
    outer loop
      vertex 278.85 10.9397 11
      vertex 276.601 10.4616 12.5
      vertex 278.85 10.9397 12.5
    endloop
  endfacet
  facet normal -0.406737 0.913545 0
    outer loop
      vertex 274.5 9.52628 11
      vertex 274.5 9.52628 12.5
      vertex 276.601 10.4616 11
    endloop
  endfacet
  facet normal -0.406737 0.913545 0
    outer loop
      vertex 276.601 10.4616 11
      vertex 274.5 9.52628 12.5
      vertex 276.601 10.4616 12.5
    endloop
  endfacet
  facet normal -0.587785 0.809017 0
    outer loop
      vertex 272.64 8.17459 11
      vertex 272.64 8.17459 12.5
      vertex 274.5 9.52628 11
    endloop
  endfacet
  facet normal -0.587785 0.809017 0
    outer loop
      vertex 274.5 9.52628 11
      vertex 272.64 8.17459 12.5
      vertex 274.5 9.52628 12.5
    endloop
  endfacet
  facet normal -0.743145 0.669131 0
    outer loop
      vertex 271.101 6.46564 11
      vertex 271.101 6.46564 12.5
      vertex 272.64 8.17459 11
    endloop
  endfacet
  facet normal -0.743145 0.669131 0
    outer loop
      vertex 272.64 8.17459 11
      vertex 271.101 6.46564 12.5
      vertex 272.64 8.17459 12.5
    endloop
  endfacet
  facet normal -0.866025 0.5 0
    outer loop
      vertex 269.951 4.4741 11
      vertex 269.951 4.4741 12.5
      vertex 271.101 6.46564 11
    endloop
  endfacet
  facet normal -0.866025 0.5 0
    outer loop
      vertex 271.101 6.46564 11
      vertex 269.951 4.4741 12.5
      vertex 271.101 6.46564 12.5
    endloop
  endfacet
  facet normal -0.951056 0.309017 0
    outer loop
      vertex 269.24 2.28703 11
      vertex 269.24 2.28703 12.5
      vertex 269.951 4.4741 11
    endloop
  endfacet
  facet normal -0.951056 0.309017 0
    outer loop
      vertex 269.951 4.4741 11
      vertex 269.24 2.28703 12.5
      vertex 269.951 4.4741 12.5
    endloop
  endfacet
  facet normal -0.994522 0.104528 0
    outer loop
      vertex 269 0 11
      vertex 269 0 12.5
      vertex 269.24 2.28703 11
    endloop
  endfacet
  facet normal -0.994522 0.104528 0
    outer loop
      vertex 269.24 2.28703 11
      vertex 269 0 12.5
      vertex 269.24 2.28703 12.5
    endloop
  endfacet
  facet normal -0.994522 -0.104528 0
    outer loop
      vertex 269 0 11
      vertex 269.24 -2.28703 11
      vertex 269 0 12.5
    endloop
  endfacet
  facet normal -0.994522 -0.104528 0
    outer loop
      vertex 269 0 12.5
      vertex 269.24 -2.28703 11
      vertex 269.24 -2.28703 12.5
    endloop
  endfacet
  facet normal 0.866025 0.5 0
    outer loop
      vertex 10.049 4.4741 11
      vertex 8.89919 6.46564 11
      vertex 8.89919 6.46564 12.5
    endloop
  endfacet
  facet normal 0.866025 0.5 0
    outer loop
      vertex 10.049 4.4741 12.5
      vertex 10.049 4.4741 11
      vertex 8.89919 6.46564 12.5
    endloop
  endfacet
  facet normal 0.743145 0.669131 0
    outer loop
      vertex 8.89919 6.46564 11
      vertex 7.36044 8.17459 11
      vertex 7.36044 8.17459 12.5
    endloop
  endfacet
  facet normal 0.743145 0.669131 0
    outer loop
      vertex 8.89919 6.46564 12.5
      vertex 8.89919 6.46564 11
      vertex 7.36044 8.17459 12.5
    endloop
  endfacet
  facet normal 0.587785 0.809017 0
    outer loop
      vertex 5.5 9.52628 11
      vertex 5.5 9.52628 12.5
      vertex 7.36044 8.17459 11
    endloop
  endfacet
  facet normal 0.587785 0.809017 0
    outer loop
      vertex 7.36044 8.17459 11
      vertex 5.5 9.52628 12.5
      vertex 7.36044 8.17459 12.5
    endloop
  endfacet
  facet normal 0.406737 0.913545 0
    outer loop
      vertex 3.39919 10.4616 11
      vertex 3.39919 10.4616 12.5
      vertex 5.5 9.52628 11
    endloop
  endfacet
  facet normal 0.406737 0.913545 0
    outer loop
      vertex 5.5 9.52628 11
      vertex 3.39919 10.4616 12.5
      vertex 5.5 9.52628 12.5
    endloop
  endfacet
  facet normal 0.207912 0.978148 0
    outer loop
      vertex 1.14981 10.9397 11
      vertex 1.14981 10.9397 12.5
      vertex 3.39919 10.4616 11
    endloop
  endfacet
  facet normal 0.207912 0.978148 0
    outer loop
      vertex 3.39919 10.4616 11
      vertex 1.14981 10.9397 12.5
      vertex 3.39919 10.4616 12.5
    endloop
  endfacet
  facet normal 0 0 -1
    outer loop
      vertex 0 0 0
      vertex 0 280 0
      vertex 280 0 0
    endloop
  endfacet
  facet normal 0 0 -1
    outer loop
      vertex 280 0 0
      vertex 0 280 0
      vertex 280 280 0
    endloop
  endfacet
  facet normal -0.951056 0.309017 0
    outer loop
      vertex -10.7596 282.287 11
      vertex -10.7596 282.287 12.5
      vertex -10.049 284.474 11
    endloop
  endfacet
  facet normal -0.951056 0.309017 0
    outer loop
      vertex -10.049 284.474 11
      vertex -10.7596 282.287 12.5
      vertex -10.049 284.474 12.5
    endloop
  endfacet
  facet normal -0.994522 0.104528 0
    outer loop
      vertex -11 280 11
      vertex -11 280 12.5
      vertex -10.7596 282.287 11
    endloop
  endfacet
  facet normal -0.994522 0.104528 0
    outer loop
      vertex -10.7596 282.287 11
      vertex -11 280 12.5
      vertex -10.7596 282.287 12.5
    endloop
  endfacet
  facet normal -0.994522 -0.104528 0
    outer loop
      vertex -11 280 11
      vertex -10.7596 277.713 11
      vertex -11 280 12.5
    endloop
  endfacet
  facet normal -0.994522 -0.104528 0
    outer loop
      vertex -11 280 12.5
      vertex -10.7596 277.713 11
      vertex -10.7596 277.713 12.5
    endloop
  endfacet
  facet normal -0.951056 -0.309017 0
    outer loop
      vertex -10.7596 277.713 11
      vertex -10.049 275.526 11
      vertex -10.7596 277.713 12.5
    endloop
  endfacet
  facet normal -0.951056 -0.309017 0
    outer loop
      vertex -10.7596 277.713 12.5
      vertex -10.049 275.526 11
      vertex -10.049 275.526 12.5
    endloop
  endfacet
  facet normal -0.866025 -0.5 0
    outer loop
      vertex -10.049 275.526 11
      vertex -8.89919 273.534 11
      vertex -10.049 275.526 12.5
    endloop
  endfacet
  facet normal -0.866025 -0.5 0
    outer loop
      vertex -10.049 275.526 12.5
      vertex -8.89919 273.534 11
      vertex -8.89919 273.534 12.5
    endloop
  endfacet
  facet normal -0.743145 -0.669131 0
    outer loop
      vertex -8.89919 273.534 11
      vertex -7.36044 271.825 11
      vertex -8.89919 273.534 12.5
    endloop
  endfacet
  facet normal -0.743145 -0.669131 0
    outer loop
      vertex -8.89919 273.534 12.5
      vertex -7.36044 271.825 11
      vertex -7.36044 271.825 12.5
    endloop
  endfacet
  facet normal -0.587785 -0.809017 0
    outer loop
      vertex -7.36044 271.825 12.5
      vertex -7.36044 271.825 11
      vertex -5.5 270.474 11
    endloop
  endfacet
  facet normal -0.587785 -0.809017 0
    outer loop
      vertex -5.5 270.474 12.5
      vertex -7.36044 271.825 12.5
      vertex -5.5 270.474 11
    endloop
  endfacet
  facet normal -0.406737 -0.913545 0
    outer loop
      vertex -5.5 270.474 12.5
      vertex -5.5 270.474 11
      vertex -3.39919 269.538 11
    endloop
  endfacet
  facet normal -0.406737 -0.913545 0
    outer loop
      vertex -3.39919 269.538 12.5
      vertex -5.5 270.474 12.5
      vertex -3.39919 269.538 11
    endloop
  endfacet
  facet normal -0.207912 -0.978148 0
    outer loop
      vertex -3.39919 269.538 12.5
      vertex -3.39919 269.538 11
      vertex -1.14981 269.06 11
    endloop
  endfacet
  facet normal -0.207912 -0.978148 0
    outer loop
      vertex -1.14981 269.06 12.5
      vertex -3.39919 269.538 12.5
      vertex -1.14981 269.06 11
    endloop
  endfacet
  facet normal 0.951056 0.309017 0
    outer loop
      vertex 10.7596 282.287 11
      vertex 10.049 284.474 11
      vertex 10.049 284.474 12.5
    endloop
  endfacet
  facet normal 0.951056 0.309017 0
    outer loop
      vertex 10.7596 282.287 12.5
      vertex 10.7596 282.287 11
      vertex 10.049 284.474 12.5
    endloop
  endfacet
  facet normal 0.866025 0.5 0
    outer loop
      vertex 10.049 284.474 11
      vertex 8.89919 286.466 11
      vertex 8.89919 286.466 12.5
    endloop
  endfacet
  facet normal 0.866025 0.5 0
    outer loop
      vertex 10.049 284.474 12.5
      vertex 10.049 284.474 11
      vertex 8.89919 286.466 12.5
    endloop
  endfacet
  facet normal 0.743145 0.669131 0
    outer loop
      vertex 8.89919 286.466 11
      vertex 7.36044 288.175 11
      vertex 7.36044 288.175 12.5
    endloop
  endfacet
  facet normal 0.743145 0.669131 0
    outer loop
      vertex 8.89919 286.466 12.5
      vertex 8.89919 286.466 11
      vertex 7.36044 288.175 12.5
    endloop
  endfacet
  facet normal 0.587785 0.809017 0
    outer loop
      vertex 5.5 289.526 11
      vertex 5.5 289.526 12.5
      vertex 7.36044 288.175 11
    endloop
  endfacet
  facet normal 0.587785 0.809017 0
    outer loop
      vertex 7.36044 288.175 11
      vertex 5.5 289.526 12.5
      vertex 7.36044 288.175 12.5
    endloop
  endfacet
  facet normal 0.406737 0.913545 0
    outer loop
      vertex 3.39919 290.462 11
      vertex 3.39919 290.462 12.5
      vertex 5.5 289.526 11
    endloop
  endfacet
  facet normal 0.406737 0.913545 0
    outer loop
      vertex 5.5 289.526 11
      vertex 3.39919 290.462 12.5
      vertex 5.5 289.526 12.5
    endloop
  endfacet
  facet normal 0.207912 0.978148 0
    outer loop
      vertex 1.14981 290.94 11
      vertex 1.14981 290.94 12.5
      vertex 3.39919 290.462 11
    endloop
  endfacet
  facet normal 0.207912 0.978148 0
    outer loop
      vertex 3.39919 290.462 11
      vertex 1.14981 290.94 12.5
      vertex 3.39919 290.462 12.5
    endloop
  endfacet
  facet normal 0 1 0
    outer loop
      vertex -1.14981 290.94 11
      vertex -1.14981 290.94 12.5
      vertex 1.14981 290.94 11
    endloop
  endfacet
  facet normal 0 1 0
    outer loop
      vertex 1.14981 290.94 11
      vertex -1.14981 290.94 12.5
      vertex 1.14981 290.94 12.5
    endloop
  endfacet
  facet normal -0.207912 0.978148 0
    outer loop
      vertex -3.39919 290.462 11
      vertex -3.39919 290.462 12.5
      vertex -1.14981 290.94 11
    endloop
  endfacet
  facet normal -0.207912 0.978148 0
    outer loop
      vertex -1.14981 290.94 11
      vertex -3.39919 290.462 12.5
      vertex -1.14981 290.94 12.5
    endloop
  endfacet
  facet normal -0.406737 0.913545 0
    outer loop
      vertex -5.5 289.526 11
      vertex -5.5 289.526 12.5
      vertex -3.39919 290.462 11
    endloop
  endfacet
  facet normal -0.406737 0.913545 0
    outer loop
      vertex -3.39919 290.462 11
      vertex -5.5 289.526 12.5
      vertex -3.39919 290.462 12.5
    endloop
  endfacet
  facet normal -0.587785 0.809017 0
    outer loop
      vertex -7.36044 288.175 11
      vertex -7.36044 288.175 12.5
      vertex -5.5 289.526 11
    endloop
  endfacet
  facet normal -0.587785 0.809017 0
    outer loop
      vertex -5.5 289.526 11
      vertex -7.36044 288.175 12.5
      vertex -5.5 289.526 12.5
    endloop
  endfacet
  facet normal -0.743145 0.669131 0
    outer loop
      vertex -8.89919 286.466 11
      vertex -8.89919 286.466 12.5
      vertex -7.36044 288.175 11
    endloop
  endfacet
  facet normal -0.743145 0.669131 0
    outer loop
      vertex -7.36044 288.175 11
      vertex -8.89919 286.466 12.5
      vertex -7.36044 288.175 12.5
    endloop
  endfacet
  facet normal -0.866025 0.5 0
    outer loop
      vertex -10.049 284.474 11
      vertex -10.049 284.474 12.5
      vertex -8.89919 286.466 11
    endloop
  endfacet
  facet normal -0.866025 0.5 0
    outer loop
      vertex -8.89919 286.466 11
      vertex -10.049 284.474 12.5
      vertex -8.89919 286.466 12.5
    endloop
  endfacet
  facet normal 0 0 1
    outer loop
      vertex -10.7596 282.287 12.5
      vertex -11 280 12.5
      vertex -10.7596 277.713 12.5
    endloop
  endfacet
  facet normal 0 0 1
    outer loop
      vertex -8.89919 273.534 12.5
      vertex -10.7596 282.287 12.5
      vertex -10.049 275.526 12.5
    endloop
  endfacet
  facet normal 0 0 1
    outer loop
      vertex -10.049 275.526 12.5
      vertex -10.7596 282.287 12.5
      vertex -10.7596 277.713 12.5
    endloop
  endfacet
  facet normal 0 0 1
    outer loop
      vertex -7.36044 271.825 12.5
      vertex -10.7596 282.287 12.5
      vertex -8.89919 273.534 12.5
    endloop
  endfacet
  facet normal 0 0 1
    outer loop
      vertex -5.5 270.474 12.5
      vertex -10.7596 282.287 12.5
      vertex -7.36044 271.825 12.5
    endloop
  endfacet
  facet normal 0 0 1
    outer loop
      vertex -3.39919 269.538 12.5
      vertex -10.7596 282.287 12.5
      vertex -5.5 270.474 12.5
    endloop
  endfacet
  facet normal 0 0 1
    outer loop
      vertex -1.14981 269.06 12.5
      vertex -10.7596 282.287 12.5
      vertex -3.39919 269.538 12.5
    endloop
  endfacet
  facet normal 0 0 1
    outer loop
      vertex 1.14981 269.06 12.5
      vertex -10.7596 282.287 12.5
      vertex -1.14981 269.06 12.5
    endloop
  endfacet
  facet normal 0 0 1
    outer loop
      vertex 3.39919 269.538 12.5
      vertex -10.7596 282.287 12.5
      vertex 1.14981 269.06 12.5
    endloop
  endfacet
  facet normal 0 0 1
    outer loop
      vertex 5.5 270.474 12.5
      vertex -10.7596 282.287 12.5
      vertex 3.39919 269.538 12.5
    endloop
  endfacet
  facet normal 0 0 1
    outer loop
      vertex 7.36044 271.825 12.5
      vertex -10.7596 282.287 12.5
      vertex 5.5 270.474 12.5
    endloop
  endfacet
  facet normal 0 0 1
    outer loop
      vertex 8.89919 273.534 12.5
      vertex -10.7596 282.287 12.5
      vertex 7.36044 271.825 12.5
    endloop
  endfacet
  facet normal 0 0 1
    outer loop
      vertex 10.049 275.526 12.5
      vertex -10.7596 282.287 12.5
      vertex 8.89919 273.534 12.5
    endloop
  endfacet
  facet normal 0 0 1
    outer loop
      vertex 10.7596 277.713 12.5
      vertex -10.7596 282.287 12.5
      vertex 10.049 275.526 12.5
    endloop
  endfacet
  facet normal 0 0 1
    outer loop
      vertex 11 280 12.5
      vertex -10.7596 282.287 12.5
      vertex 10.7596 277.713 12.5
    endloop
  endfacet
  facet normal 0 0 1
    outer loop
      vertex 10.7596 282.287 12.5
      vertex -10.7596 282.287 12.5
      vertex 11 280 12.5
    endloop
  endfacet
  facet normal 0 0 1
    outer loop
      vertex 10.049 284.474 12.5
      vertex -10.7596 282.287 12.5
      vertex 10.7596 282.287 12.5
    endloop
  endfacet
  facet normal 0 0 1
    outer loop
      vertex 8.89919 286.466 12.5
      vertex -10.7596 282.287 12.5
      vertex 10.049 284.474 12.5
    endloop
  endfacet
  facet normal 0 0 1
    outer loop
      vertex 7.36044 288.175 12.5
      vertex -10.7596 282.287 12.5
      vertex 8.89919 286.466 12.5
    endloop
  endfacet
  facet normal 0 0 1
    outer loop
      vertex 5.5 289.526 12.5
      vertex -10.7596 282.287 12.5
      vertex 7.36044 288.175 12.5
    endloop
  endfacet
  facet normal 0 0 1
    outer loop
      vertex 3.39919 290.462 12.5
      vertex -10.7596 282.287 12.5
      vertex 5.5 289.526 12.5
    endloop
  endfacet
  facet normal 0 0 1
    outer loop
      vertex 1.14981 290.94 12.5
      vertex -10.7596 282.287 12.5
      vertex 3.39919 290.462 12.5
    endloop
  endfacet
  facet normal 0 0 1
    outer loop
      vertex -1.14981 290.94 12.5
      vertex -10.7596 282.287 12.5
      vertex 1.14981 290.94 12.5
    endloop
  endfacet
  facet normal 0 0 1
    outer loop
      vertex -3.39919 290.462 12.5
      vertex -10.7596 282.287 12.5
      vertex -1.14981 290.94 12.5
    endloop
  endfacet
  facet normal 0 0 1
    outer loop
      vertex -5.5 289.526 12.5
      vertex -10.7596 282.287 12.5
      vertex -3.39919 290.462 12.5
    endloop
  endfacet
  facet normal 0 0 1
    outer loop
      vertex -7.36044 288.175 12.5
      vertex -10.7596 282.287 12.5
      vertex -5.5 289.526 12.5
    endloop
  endfacet
  facet normal 0 0 1
    outer loop
      vertex -8.89919 286.466 12.5
      vertex -10.7596 282.287 12.5
      vertex -7.36044 288.175 12.5
    endloop
  endfacet
  facet normal 0 0 1
    outer loop
      vertex -10.049 284.474 12.5
      vertex -10.7596 282.287 12.5
      vertex -8.89919 286.466 12.5
    endloop
  endfacet
  facet normal -0.951056 0.309017 0
    outer loop
      vertex 269.24 282.287 11
      vertex 269.24 282.287 12.5
      vertex 269.951 284.474 11
    endloop
  endfacet
  facet normal -0.951056 0.309017 0
    outer loop
      vertex 269.951 284.474 11
      vertex 269.24 282.287 12.5
      vertex 269.951 284.474 12.5
    endloop
  endfacet
  facet normal 0.207912 -0.978148 0
    outer loop
      vertex 281.15 269.06 12.5
      vertex 281.15 269.06 11
      vertex 283.399 269.538 11
    endloop
  endfacet
  facet normal 0.207912 -0.978148 0
    outer loop
      vertex 283.399 269.538 12.5
      vertex 281.15 269.06 12.5
      vertex 283.399 269.538 11
    endloop
  endfacet
  facet normal 0.406737 -0.913545 0
    outer loop
      vertex 283.399 269.538 12.5
      vertex 283.399 269.538 11
      vertex 285.5 270.474 11
    endloop
  endfacet
  facet normal 0.406737 -0.913545 0
    outer loop
      vertex 285.5 270.474 12.5
      vertex 283.399 269.538 12.5
      vertex 285.5 270.474 11
    endloop
  endfacet
  facet normal 0.587785 -0.809017 0
    outer loop
      vertex 285.5 270.474 12.5
      vertex 285.5 270.474 11
      vertex 287.36 271.825 11
    endloop
  endfacet
  facet normal 0.587785 -0.809017 0
    outer loop
      vertex 287.36 271.825 12.5
      vertex 285.5 270.474 12.5
      vertex 287.36 271.825 11
    endloop
  endfacet
  facet normal 0.743145 -0.669131 0
    outer loop
      vertex 287.36 271.825 12.5
      vertex 287.36 271.825 11
      vertex 288.899 273.534 11
    endloop
  endfacet
  facet normal 0.743145 -0.669131 0
    outer loop
      vertex 288.899 273.534 12.5
      vertex 287.36 271.825 12.5
      vertex 288.899 273.534 11
    endloop
  endfacet
  facet normal 0.866025 -0.5 0
    outer loop
      vertex 288.899 273.534 12.5
      vertex 288.899 273.534 11
      vertex 290.049 275.526 11
    endloop
  endfacet
  facet normal 0.866025 -0.5 0
    outer loop
      vertex 290.049 275.526 12.5
      vertex 288.899 273.534 12.5
      vertex 290.049 275.526 11
    endloop
  endfacet
  facet normal 0.951056 -0.309017 0
    outer loop
      vertex 290.049 275.526 12.5
      vertex 290.049 275.526 11
      vertex 290.76 277.713 11
    endloop
  endfacet
  facet normal 0.951056 -0.309017 0
    outer loop
      vertex 290.76 277.713 12.5
      vertex 290.049 275.526 12.5
      vertex 290.76 277.713 11
    endloop
  endfacet
  facet normal 0.994522 -0.104528 0
    outer loop
      vertex 290.76 277.713 12.5
      vertex 290.76 277.713 11
      vertex 291 280 11
    endloop
  endfacet
  facet normal 0.994522 -0.104528 0
    outer loop
      vertex 291 280 12.5
      vertex 290.76 277.713 12.5
      vertex 291 280 11
    endloop
  endfacet
  facet normal 0.994522 0.104528 0
    outer loop
      vertex 291 280 11
      vertex 290.76 282.287 11
      vertex 290.76 282.287 12.5
    endloop
  endfacet
  facet normal 0.994522 0.104528 0
    outer loop
      vertex 291 280 12.5
      vertex 291 280 11
      vertex 290.76 282.287 12.5
    endloop
  endfacet
  facet normal 0.951056 0.309017 0
    outer loop
      vertex 290.76 282.287 11
      vertex 290.049 284.474 11
      vertex 290.049 284.474 12.5
    endloop
  endfacet
  facet normal 0.951056 0.309017 0
    outer loop
      vertex 290.76 282.287 12.5
      vertex 290.76 282.287 11
      vertex 290.049 284.474 12.5
    endloop
  endfacet
  facet normal 0.866025 0.5 0
    outer loop
      vertex 290.049 284.474 11
      vertex 288.899 286.466 11
      vertex 288.899 286.466 12.5
    endloop
  endfacet
  facet normal 0.866025 0.5 0
    outer loop
      vertex 290.049 284.474 12.5
      vertex 290.049 284.474 11
      vertex 288.899 286.466 12.5
    endloop
  endfacet
  facet normal 0.743145 0.669131 0
    outer loop
      vertex 288.899 286.466 11
      vertex 287.36 288.175 11
      vertex 287.36 288.175 12.5
    endloop
  endfacet
  facet normal 0.743145 0.669131 0
    outer loop
      vertex 288.899 286.466 12.5
      vertex 288.899 286.466 11
      vertex 287.36 288.175 12.5
    endloop
  endfacet
  facet normal 0.587785 0.809017 0
    outer loop
      vertex 285.5 289.526 11
      vertex 285.5 289.526 12.5
      vertex 287.36 288.175 11
    endloop
  endfacet
  facet normal 0.587785 0.809017 0
    outer loop
      vertex 287.36 288.175 11
      vertex 285.5 289.526 12.5
      vertex 287.36 288.175 12.5
    endloop
  endfacet
  facet normal 0.406737 0.913545 0
    outer loop
      vertex 283.399 290.462 11
      vertex 283.399 290.462 12.5
      vertex 285.5 289.526 11
    endloop
  endfacet
  facet normal 0.406737 0.913545 0
    outer loop
      vertex 285.5 289.526 11
      vertex 283.399 290.462 12.5
      vertex 285.5 289.526 12.5
    endloop
  endfacet
  facet normal 0.207912 0.978148 0
    outer loop
      vertex 281.15 290.94 11
      vertex 281.15 290.94 12.5
      vertex 283.399 290.462 11
    endloop
  endfacet
  facet normal 0.207912 0.978148 0
    outer loop
      vertex 283.399 290.462 11
      vertex 281.15 290.94 12.5
      vertex 283.399 290.462 12.5
    endloop
  endfacet
  facet normal 0 1 0
    outer loop
      vertex 278.85 290.94 11
      vertex 278.85 290.94 12.5
      vertex 281.15 290.94 11
    endloop
  endfacet
  facet normal 0 1 0
    outer loop
      vertex 281.15 290.94 11
      vertex 278.85 290.94 12.5
      vertex 281.15 290.94 12.5
    endloop
  endfacet
  facet normal -0.207912 0.978148 0
    outer loop
      vertex 276.601 290.462 11
      vertex 276.601 290.462 12.5
      vertex 278.85 290.94 11
    endloop
  endfacet
  facet normal -0.207912 0.978148 0
    outer loop
      vertex 278.85 290.94 11
      vertex 276.601 290.462 12.5
      vertex 278.85 290.94 12.5
    endloop
  endfacet
  facet normal -0.406737 0.913545 0
    outer loop
      vertex 274.5 289.526 11
      vertex 274.5 289.526 12.5
      vertex 276.601 290.462 11
    endloop
  endfacet
  facet normal -0.406737 0.913545 0
    outer loop
      vertex 276.601 290.462 11
      vertex 274.5 289.526 12.5
      vertex 276.601 290.462 12.5
    endloop
  endfacet
  facet normal -0.587785 0.809017 0
    outer loop
      vertex 272.64 288.175 11
      vertex 272.64 288.175 12.5
      vertex 274.5 289.526 11
    endloop
  endfacet
  facet normal -0.587785 0.809017 0
    outer loop
      vertex 274.5 289.526 11
      vertex 272.64 288.175 12.5
      vertex 274.5 289.526 12.5
    endloop
  endfacet
  facet normal -0.743145 0.669131 0
    outer loop
      vertex 271.101 286.466 11
      vertex 271.101 286.466 12.5
      vertex 272.64 288.175 11
    endloop
  endfacet
  facet normal -0.743145 0.669131 0
    outer loop
      vertex 272.64 288.175 11
      vertex 271.101 286.466 12.5
      vertex 272.64 288.175 12.5
    endloop
  endfacet
  facet normal -0.866025 0.5 0
    outer loop
      vertex 269.951 284.474 11
      vertex 269.951 284.474 12.5
      vertex 271.101 286.466 11
    endloop
  endfacet
  facet normal -0.866025 0.5 0
    outer loop
      vertex 271.101 286.466 11
      vertex 269.951 284.474 12.5
      vertex 271.101 286.466 12.5
    endloop
  endfacet
  facet normal 0 0 1
    outer loop
      vertex 269.24 282.287 12.5
      vertex 269 280 12.5
      vertex 269.24 277.713 12.5
    endloop
  endfacet
  facet normal 0 0 1
    outer loop
      vertex 271.101 273.534 12.5
      vertex 269.24 282.287 12.5
      vertex 269.951 275.526 12.5
    endloop
  endfacet
  facet normal 0 0 1
    outer loop
      vertex 269.951 275.526 12.5
      vertex 269.24 282.287 12.5
      vertex 269.24 277.713 12.5
    endloop
  endfacet
  facet normal 0 0 1
    outer loop
      vertex 272.64 271.825 12.5
      vertex 269.24 282.287 12.5
      vertex 271.101 273.534 12.5
    endloop
  endfacet
  facet normal 0 0 1
    outer loop
      vertex 274.5 270.474 12.5
      vertex 269.24 282.287 12.5
      vertex 272.64 271.825 12.5
    endloop
  endfacet
  facet normal 0 0 1
    outer loop
      vertex 276.601 269.538 12.5
      vertex 269.24 282.287 12.5
      vertex 274.5 270.474 12.5
    endloop
  endfacet
  facet normal 0 0 1
    outer loop
      vertex 278.85 269.06 12.5
      vertex 269.24 282.287 12.5
      vertex 276.601 269.538 12.5
    endloop
  endfacet
  facet normal 0 0 1
    outer loop
      vertex 281.15 269.06 12.5
      vertex 269.24 282.287 12.5
      vertex 278.85 269.06 12.5
    endloop
  endfacet
  facet normal 0 0 1
    outer loop
      vertex 283.399 269.538 12.5
      vertex 269.24 282.287 12.5
      vertex 281.15 269.06 12.5
    endloop
  endfacet
  facet normal 0 0 1
    outer loop
      vertex 285.5 270.474 12.5
      vertex 269.24 282.287 12.5
      vertex 283.399 269.538 12.5
    endloop
  endfacet
  facet normal 0 0 1
    outer loop
      vertex 287.36 271.825 12.5
      vertex 269.24 282.287 12.5
      vertex 285.5 270.474 12.5
    endloop
  endfacet
  facet normal 0 0 1
    outer loop
      vertex 288.899 273.534 12.5
      vertex 269.24 282.287 12.5
      vertex 287.36 271.825 12.5
    endloop
  endfacet
  facet normal 0 0 1
    outer loop
      vertex 290.049 275.526 12.5
      vertex 269.24 282.287 12.5
      vertex 288.899 273.534 12.5
    endloop
  endfacet
  facet normal 0 0 1
    outer loop
      vertex 290.76 277.713 12.5
      vertex 269.24 282.287 12.5
      vertex 290.049 275.526 12.5
    endloop
  endfacet
  facet normal 0 0 1
    outer loop
      vertex 291 280 12.5
      vertex 269.24 282.287 12.5
      vertex 290.76 277.713 12.5
    endloop
  endfacet
  facet normal 0 0 1
    outer loop
      vertex 290.76 282.287 12.5
      vertex 269.24 282.287 12.5
      vertex 291 280 12.5
    endloop
  endfacet
  facet normal 0 0 1
    outer loop
      vertex 290.049 284.474 12.5
      vertex 269.24 282.287 12.5
      vertex 290.76 282.287 12.5
    endloop
  endfacet
  facet normal 0 0 1
    outer loop
      vertex 288.899 286.466 12.5
      vertex 269.24 282.287 12.5
      vertex 290.049 284.474 12.5
    endloop
  endfacet
  facet normal 0 0 1
    outer loop
      vertex 287.36 288.175 12.5
      vertex 269.24 282.287 12.5
      vertex 288.899 286.466 12.5
    endloop
  endfacet
  facet normal 0 0 1
    outer loop
      vertex 285.5 289.526 12.5
      vertex 269.24 282.287 12.5
      vertex 287.36 288.175 12.5
    endloop
  endfacet
  facet normal 0 0 1
    outer loop
      vertex 283.399 290.462 12.5
      vertex 269.24 282.287 12.5
      vertex 285.5 289.526 12.5
    endloop
  endfacet
  facet normal 0 0 1
    outer loop
      vertex 281.15 290.94 12.5
      vertex 269.24 282.287 12.5
      vertex 283.399 290.462 12.5
    endloop
  endfacet
  facet normal 0 0 1
    outer loop
      vertex 278.85 290.94 12.5
      vertex 269.24 282.287 12.5
      vertex 281.15 290.94 12.5
    endloop
  endfacet
  facet normal 0 0 1
    outer loop
      vertex 276.601 290.462 12.5
      vertex 269.24 282.287 12.5
      vertex 278.85 290.94 12.5
    endloop
  endfacet
  facet normal 0 0 1
    outer loop
      vertex 274.5 289.526 12.5
      vertex 269.24 282.287 12.5
      vertex 276.601 290.462 12.5
    endloop
  endfacet
  facet normal 0 0 1
    outer loop
      vertex 272.64 288.175 12.5
      vertex 269.24 282.287 12.5
      vertex 274.5 289.526 12.5
    endloop
  endfacet
  facet normal 0 0 1
    outer loop
      vertex 271.101 286.466 12.5
      vertex 269.24 282.287 12.5
      vertex 272.64 288.175 12.5
    endloop
  endfacet
  facet normal 0 0 1
    outer loop
      vertex 269.951 284.474 12.5
      vertex 269.24 282.287 12.5
      vertex 271.101 286.466 12.5
    endloop
  endfacet
  facet normal -0.951056 -0.309017 0
    outer loop
      vertex 269.24 -2.28703 11
      vertex 269.951 -4.4741 11
      vertex 269.24 -2.28703 12.5
    endloop
  endfacet
  facet normal -0.951056 -0.309017 0
    outer loop
      vertex 269.24 -2.28703 12.5
      vertex 269.951 -4.4741 11
      vertex 269.951 -4.4741 12.5
    endloop
  endfacet
  facet normal -0.866025 -0.5 0
    outer loop
      vertex 269.951 -4.4741 11
      vertex 271.101 -6.46564 11
      vertex 269.951 -4.4741 12.5
    endloop
  endfacet
  facet normal -0.866025 -0.5 0
    outer loop
      vertex 269.951 -4.4741 12.5
      vertex 271.101 -6.46564 11
      vertex 271.101 -6.46564 12.5
    endloop
  endfacet
  facet normal -0.743145 -0.669131 0
    outer loop
      vertex 271.101 -6.46564 11
      vertex 272.64 -8.17459 11
      vertex 271.101 -6.46564 12.5
    endloop
  endfacet
  facet normal -0.743145 -0.669131 0
    outer loop
      vertex 271.101 -6.46564 12.5
      vertex 272.64 -8.17459 11
      vertex 272.64 -8.17459 12.5
    endloop
  endfacet
  facet normal -0.587785 -0.809017 0
    outer loop
      vertex 272.64 -8.17459 12.5
      vertex 272.64 -8.17459 11
      vertex 274.5 -9.52628 11
    endloop
  endfacet
  facet normal -0.587785 -0.809017 0
    outer loop
      vertex 274.5 -9.52628 12.5
      vertex 272.64 -8.17459 12.5
      vertex 274.5 -9.52628 11
    endloop
  endfacet
  facet normal -0.406737 -0.913545 0
    outer loop
      vertex 274.5 -9.52628 12.5
      vertex 274.5 -9.52628 11
      vertex 276.601 -10.4616 11
    endloop
  endfacet
  facet normal -0.406737 -0.913545 0
    outer loop
      vertex 276.601 -10.4616 12.5
      vertex 274.5 -9.52628 12.5
      vertex 276.601 -10.4616 11
    endloop
  endfacet
  facet normal -0.207912 -0.978148 0
    outer loop
      vertex 276.601 -10.4616 12.5
      vertex 276.601 -10.4616 11
      vertex 278.85 -10.9397 11
    endloop
  endfacet
  facet normal -0.207912 -0.978148 0
    outer loop
      vertex 278.85 -10.9397 12.5
      vertex 276.601 -10.4616 12.5
      vertex 278.85 -10.9397 11
    endloop
  endfacet
  facet normal 0 -1 0
    outer loop
      vertex 278.85 -10.9397 12.5
      vertex 278.85 -10.9397 11
      vertex 281.15 -10.9397 11
    endloop
  endfacet
  facet normal 0 -1 0
    outer loop
      vertex 281.15 -10.9397 12.5
      vertex 278.85 -10.9397 12.5
      vertex 281.15 -10.9397 11
    endloop
  endfacet
  facet normal 0.207912 -0.978148 0
    outer loop
      vertex 281.15 -10.9397 12.5
      vertex 281.15 -10.9397 11
      vertex 283.399 -10.4616 11
    endloop
  endfacet
  facet normal 0.207912 -0.978148 0
    outer loop
      vertex 283.399 -10.4616 12.5
      vertex 281.15 -10.9397 12.5
      vertex 283.399 -10.4616 11
    endloop
  endfacet
  facet normal 0.406737 -0.913545 0
    outer loop
      vertex 283.399 -10.4616 12.5
      vertex 283.399 -10.4616 11
      vertex 285.5 -9.52628 11
    endloop
  endfacet
  facet normal 0.406737 -0.913545 0
    outer loop
      vertex 285.5 -9.52628 12.5
      vertex 283.399 -10.4616 12.5
      vertex 285.5 -9.52628 11
    endloop
  endfacet
  facet normal 0.587785 -0.809017 0
    outer loop
      vertex 285.5 -9.52628 12.5
      vertex 285.5 -9.52628 11
      vertex 287.36 -8.17459 11
    endloop
  endfacet
  facet normal 0.587785 -0.809017 0
    outer loop
      vertex 287.36 -8.17459 12.5
      vertex 285.5 -9.52628 12.5
      vertex 287.36 -8.17459 11
    endloop
  endfacet
  facet normal 0.743145 -0.669131 0
    outer loop
      vertex 287.36 -8.17459 12.5
      vertex 287.36 -8.17459 11
      vertex 288.899 -6.46564 11
    endloop
  endfacet
  facet normal 0.743145 -0.669131 0
    outer loop
      vertex 288.899 -6.46564 12.5
      vertex 287.36 -8.17459 12.5
      vertex 288.899 -6.46564 11
    endloop
  endfacet
  facet normal 0.866025 -0.5 0
    outer loop
      vertex 288.899 -6.46564 12.5
      vertex 288.899 -6.46564 11
      vertex 290.049 -4.4741 11
    endloop
  endfacet
  facet normal 0.866025 -0.5 0
    outer loop
      vertex 290.049 -4.4741 12.5
      vertex 288.899 -6.46564 12.5
      vertex 290.049 -4.4741 11
    endloop
  endfacet
  facet normal 0.951056 -0.309017 0
    outer loop
      vertex 290.049 -4.4741 12.5
      vertex 290.049 -4.4741 11
      vertex 290.76 -2.28703 11
    endloop
  endfacet
  facet normal 0.951056 -0.309017 0
    outer loop
      vertex 290.76 -2.28703 12.5
      vertex 290.049 -4.4741 12.5
      vertex 290.76 -2.28703 11
    endloop
  endfacet
  facet normal 0.994522 -0.104528 0
    outer loop
      vertex 290.76 -2.28703 12.5
      vertex 290.76 -2.28703 11
      vertex 291 0 11
    endloop
  endfacet
  facet normal 0.994522 -0.104528 0
    outer loop
      vertex 291 0 12.5
      vertex 290.76 -2.28703 12.5
      vertex 291 0 11
    endloop
  endfacet
  facet normal 0.994522 0.104528 0
    outer loop
      vertex 291 0 11
      vertex 290.76 2.28703 11
      vertex 290.76 2.28703 12.5
    endloop
  endfacet
  facet normal 0.994522 0.104528 0
    outer loop
      vertex 291 0 12.5
      vertex 291 0 11
      vertex 290.76 2.28703 12.5
    endloop
  endfacet
  facet normal 0.951056 0.309017 0
    outer loop
      vertex 290.76 2.28703 11
      vertex 290.049 4.4741 11
      vertex 290.049 4.4741 12.5
    endloop
  endfacet
  facet normal 0.951056 0.309017 0
    outer loop
      vertex 290.76 2.28703 12.5
      vertex 290.76 2.28703 11
      vertex 290.049 4.4741 12.5
    endloop
  endfacet
  facet normal 0.866025 0.5 0
    outer loop
      vertex 290.049 4.4741 11
      vertex 288.899 6.46564 11
      vertex 288.899 6.46564 12.5
    endloop
  endfacet
  facet normal 0.866025 0.5 0
    outer loop
      vertex 290.049 4.4741 12.5
      vertex 290.049 4.4741 11
      vertex 288.899 6.46564 12.5
    endloop
  endfacet
  facet normal 0.743145 0.669131 0
    outer loop
      vertex 288.899 6.46564 11
      vertex 287.36 8.17459 11
      vertex 287.36 8.17459 12.5
    endloop
  endfacet
  facet normal 0.743145 0.669131 0
    outer loop
      vertex 288.899 6.46564 12.5
      vertex 288.899 6.46564 11
      vertex 287.36 8.17459 12.5
    endloop
  endfacet
  facet normal 0.587785 0.809017 0
    outer loop
      vertex 285.5 9.52628 11
      vertex 285.5 9.52628 12.5
      vertex 287.36 8.17459 11
    endloop
  endfacet
  facet normal 0.587785 0.809017 0
    outer loop
      vertex 287.36 8.17459 11
      vertex 285.5 9.52628 12.5
      vertex 287.36 8.17459 12.5
    endloop
  endfacet
  facet normal 0.406737 0.913545 0
    outer loop
      vertex 283.399 10.4616 11
      vertex 283.399 10.4616 12.5
      vertex 285.5 9.52628 11
    endloop
  endfacet
  facet normal 0.406737 0.913545 0
    outer loop
      vertex 285.5 9.52628 11
      vertex 283.399 10.4616 12.5
      vertex 285.5 9.52628 12.5
    endloop
  endfacet
  facet normal 0.207912 0.978148 0
    outer loop
      vertex 281.15 10.9397 11
      vertex 281.15 10.9397 12.5
      vertex 283.399 10.4616 11
    endloop
  endfacet
  facet normal 0.207912 0.978148 0
    outer loop
      vertex 283.399 10.4616 11
      vertex 281.15 10.9397 12.5
      vertex 283.399 10.4616 12.5
    endloop
  endfacet
  facet normal 0 0 1
    outer loop
      vertex 269.24 2.28703 12.5
      vertex 269 0 12.5
      vertex 269.24 -2.28703 12.5
    endloop
  endfacet
  facet normal 0 0 1
    outer loop
      vertex 271.101 -6.46564 12.5
      vertex 269.24 2.28703 12.5
      vertex 269.951 -4.4741 12.5
    endloop
  endfacet
  facet normal 0 0 1
    outer loop
      vertex 269.951 -4.4741 12.5
      vertex 269.24 2.28703 12.5
      vertex 269.24 -2.28703 12.5
    endloop
  endfacet
  facet normal 0 0 1
    outer loop
      vertex 272.64 -8.17459 12.5
      vertex 269.24 2.28703 12.5
      vertex 271.101 -6.46564 12.5
    endloop
  endfacet
  facet normal 0 0 1
    outer loop
      vertex 274.5 -9.52628 12.5
      vertex 269.24 2.28703 12.5
      vertex 272.64 -8.17459 12.5
    endloop
  endfacet
  facet normal 0 0 1
    outer loop
      vertex 276.601 -10.4616 12.5
      vertex 269.24 2.28703 12.5
      vertex 274.5 -9.52628 12.5
    endloop
  endfacet
  facet normal 0 0 1
    outer loop
      vertex 278.85 -10.9397 12.5
      vertex 269.24 2.28703 12.5
      vertex 276.601 -10.4616 12.5
    endloop
  endfacet
  facet normal 0 0 1
    outer loop
      vertex 281.15 -10.9397 12.5
      vertex 269.24 2.28703 12.5
      vertex 278.85 -10.9397 12.5
    endloop
  endfacet
  facet normal 0 0 1
    outer loop
      vertex 283.399 -10.4616 12.5
      vertex 269.24 2.28703 12.5
      vertex 281.15 -10.9397 12.5
    endloop
  endfacet
  facet normal 0 0 1
    outer loop
      vertex 285.5 -9.52628 12.5
      vertex 269.24 2.28703 12.5
      vertex 283.399 -10.4616 12.5
    endloop
  endfacet
  facet normal 0 0 1
    outer loop
      vertex 287.36 -8.17459 12.5
      vertex 269.24 2.28703 12.5
      vertex 285.5 -9.52628 12.5
    endloop
  endfacet
  facet normal 0 0 1
    outer loop
      vertex 288.899 -6.46564 12.5
      vertex 269.24 2.28703 12.5
      vertex 287.36 -8.17459 12.5
    endloop
  endfacet
  facet normal 0 0 1
    outer loop
      vertex 290.049 -4.4741 12.5
      vertex 269.24 2.28703 12.5
      vertex 288.899 -6.46564 12.5
    endloop
  endfacet
  facet normal 0 0 1
    outer loop
      vertex 290.76 -2.28703 12.5
      vertex 269.24 2.28703 12.5
      vertex 290.049 -4.4741 12.5
    endloop
  endfacet
  facet normal 0 0 1
    outer loop
      vertex 291 0 12.5
      vertex 269.24 2.28703 12.5
      vertex 290.76 -2.28703 12.5
    endloop
  endfacet
  facet normal 0 0 1
    outer loop
      vertex 290.76 2.28703 12.5
      vertex 269.24 2.28703 12.5
      vertex 291 0 12.5
    endloop
  endfacet
  facet normal 0 0 1
    outer loop
      vertex 290.049 4.4741 12.5
      vertex 269.24 2.28703 12.5
      vertex 290.76 2.28703 12.5
    endloop
  endfacet
  facet normal 0 0 1
    outer loop
      vertex 288.899 6.46564 12.5
      vertex 269.24 2.28703 12.5
      vertex 290.049 4.4741 12.5
    endloop
  endfacet
  facet normal 0 0 1
    outer loop
      vertex 287.36 8.17459 12.5
      vertex 269.24 2.28703 12.5
      vertex 288.899 6.46564 12.5
    endloop
  endfacet
  facet normal 0 0 1
    outer loop
      vertex 285.5 9.52628 12.5
      vertex 269.24 2.28703 12.5
      vertex 287.36 8.17459 12.5
    endloop
  endfacet
  facet normal 0 0 1
    outer loop
      vertex 283.399 10.4616 12.5
      vertex 269.24 2.28703 12.5
      vertex 285.5 9.52628 12.5
    endloop
  endfacet
  facet normal 0 0 1
    outer loop
      vertex 281.15 10.9397 12.5
      vertex 269.24 2.28703 12.5
      vertex 283.399 10.4616 12.5
    endloop
  endfacet
  facet normal 0 0 1
    outer loop
      vertex 278.85 10.9397 12.5
      vertex 269.24 2.28703 12.5
      vertex 281.15 10.9397 12.5
    endloop
  endfacet
  facet normal 0 0 1
    outer loop
      vertex 276.601 10.4616 12.5
      vertex 269.24 2.28703 12.5
      vertex 278.85 10.9397 12.5
    endloop
  endfacet
  facet normal 0 0 1
    outer loop
      vertex 274.5 9.52628 12.5
      vertex 269.24 2.28703 12.5
      vertex 276.601 10.4616 12.5
    endloop
  endfacet
  facet normal 0 0 1
    outer loop
      vertex 272.64 8.17459 12.5
      vertex 269.24 2.28703 12.5
      vertex 274.5 9.52628 12.5
    endloop
  endfacet
  facet normal 0 0 1
    outer loop
      vertex 271.101 6.46564 12.5
      vertex 269.24 2.28703 12.5
      vertex 272.64 8.17459 12.5
    endloop
  endfacet
  facet normal 0 0 1
    outer loop
      vertex 269.951 4.4741 12.5
      vertex 269.24 2.28703 12.5
      vertex 271.101 6.46564 12.5
    endloop
  endfacet
endsolid OpenSCAD_Model
