solid OpenSCAD_Model
  facet normal -1 0 0
    outer loop
      vertex 0 0 11
      vertex 0 280 11
      vertex 0 0 7
    endloop
  endfacet
  facet normal -1 0 0
    outer loop
      vertex 0 0 7
      vertex 0 280 11
      vertex 0 280 7
    endloop
  endfacet
  facet normal 0 0 1
    outer loop
      vertex 0 0 11
      vertex 280 0 11
      vertex 280 280 11
    endloop
  endfacet
  facet normal 0 0 1
    outer loop
      vertex 0 280 11
      vertex 0 0 11
      vertex 280 280 11
    endloop
  endfacet
  facet normal 0 -1 0
    outer loop
      vertex 0 0 7
      vertex 280 0 7
      vertex 280 0 11
    endloop
  endfacet
  facet normal 0 -1 0
    outer loop
      vertex 0 0 11
      vertex 0 0 7
      vertex 280 0 11
    endloop
  endfacet
  facet normal 0 0 -1
    outer loop
      vertex 0 280 7
      vertex 280 280 7
      vertex 0 0 7
    endloop
  endfacet
  facet normal 0 0 -1
    outer loop
      vertex 0 0 7
      vertex 280 280 7
      vertex 280 0 7
    endloop
  endfacet
  facet normal 0 1 0
    outer loop
      vertex 0 280 11
      vertex 280 280 11
      vertex 0 280 7
    endloop
  endfacet
  facet normal 0 1 0
    outer loop
      vertex 0 280 7
      vertex 280 280 11
      vertex 280 280 7
    endloop
  endfacet
  facet normal 1 0 0
    outer loop
      vertex 280 0 7
      vertex 280 280 7
      vertex 280 280 11
    endloop
  endfacet
  facet normal 1 0 0
    outer loop
      vertex 280 0 11
      vertex 280 0 7
      vertex 280 280 11
    endloop
  endfacet
endsolid OpenSCAD_Model
