<?xml version="1.0" encoding="UTF-8" standalone="no"?>
<svg
   height="100"
   width="615"
   version="1.1"
   id="svg3"
   sodipodi:docname="logo.svg"
   inkscape:version="1.4.2 (ebf0e940d0, 2025-05-08)"
   xmlns:inkscape="http://www.inkscape.org/namespaces/inkscape"
   xmlns:sodipodi="http://sodipodi.sourceforge.net/DTD/sodipodi-0.dtd"
   xmlns="http://www.w3.org/2000/svg"
   xmlns:svg="http://www.w3.org/2000/svg">
  <sodipodi:namedview
     id="namedview3"
     pagecolor="#505050"
     bordercolor="#eeeeee"
     borderopacity="1"
     inkscape:showpageshadow="0"
     inkscape:pageopacity="0"
     inkscape:pagecheckerboard="0"
     inkscape:deskcolor="#505050"
     inkscape:zoom="2.004878"
     inkscape:cx="307.74939"
     inkscape:cy="50.127737"
     inkscape:window-width="1920"
     inkscape:window-height="943"
     inkscape:window-x="0"
     inkscape:window-y="0"
     inkscape:window-maximized="1"
     inkscape:current-layer="svg3" />
  <defs
     id="defs1">
    <filter
       id="prefix__a"
       color-interpolation-filters="sRGB"
       x="-0.0090800406"
       y="-0.035744605"
       width="1.0181601"
       height="1.0714892">
      <feGaussianBlur
         result="blur"
         stdDeviation="1 1"
         id="feGaussianBlur1" />
    </filter>
  </defs>
  <g
     style="line-height:125%"
     font-weight="700"
     font-size="99.274"
     font-family="Outage"
     letter-spacing="0"
     word-spacing="0"
     fill="#c1d82f"
     stroke="#000"
     stroke-width="1.976"
     id="g3">
    <path
       style="-inkscape-font-specification:'Outage Bold';stroke:#c1d82f;stroke-opacity:1;fill:none;fill-opacity:1;stroke-dasharray:none;stroke-dashoffset:0;stroke-width:4"
       d="M33.225 28.567q-.964 0-1.688.603-.603.603-.603 1.568v39.075q0 .965.603 1.689.724.603 1.688.603H71.94q.965 0 1.568.603.723.603.723 1.567v15.92q0 .965-.723 1.688-.603.603-1.568.603H25.989q-.964 0-2.17-.24-1.207-.242-2.05-.725L10.672 80.426q-.483-.844-.724-2.05t-.241-2.171V24.346q0-.965.241-2.17.241-1.207.724-2.051L21.768 9.029q.844-.361 1.689-.603.965-.361 1.447-.361h47.035q.965 0 1.568.723.723.603.723 1.568v15.92q0 .964-.723 1.688-.603.603-1.568.603zM161.957 8.065q.965 0 1.568.723.724.603.724 1.568V76.567h-.121q0 .965-.241 2.05t-.603 1.81L152.188 91.52q-.844.483-2.17.724-1.207.241-2.171.241h-38.231q-.965 0-2.171-.24-1.206-.242-2.05-.725L94.299 80.426q-.482-.844-.723-2.05-.242-1.206-.242-2.171V10.356q0-.965.603-1.568.724-.723 1.689-.723h16.643q.965 0 1.568.723.723.603.723 1.568v59.457q0 .965.603 1.689.724.603 1.689.603h23.88q.964 0 1.567-.603.603-.724.603-1.689V10.356q0-.965.603-1.568.724-.723 1.688-.723h16.764zM255.797 90.557q.483.844.12 1.447-.361.482-1.326.482h-19.176q-.964 0-1.93-.482-.964-.603-1.447-1.447l-13.507-22.915q-.241-.482-.844-.482h-13.628q-.603 0-.603.603v22.432q0 2.291-2.292 2.291h-16.643q-2.291 0-2.291-2.291V10.356q0-.965.603-1.568.723-.723 1.688-.723h52.221q.965 0 2.17.361 1.327.242 2.172.603l11.095 11.096q.362.844.603 2.05.362 1.206.362 2.171v26.291q0 .724-.362 1.81-.362.964-.844 1.808l-11.096 11.337 14.955 24.965zm-24-62.834h-29.186v20.502h29.186V33.03zM341.215 20.004q.362.845.603 2.171.362 1.206.362 2.171v65.849q0 .965-.724 1.568-.603.603-1.568.603h-16.763q-.965 0-1.568-.603-.603-.603-.603-1.568V68.486q0-.964-.724-1.567-.603-.603-1.568-.603h-23.879q-.965 0-1.688.603-.603.603-.603 1.567v21.709q0 .965-.603 1.568-.603.603-1.568.603h-16.764q-.965 0-1.688-.603-.603-.603-.603-1.568V23.984q.12-.965.361-2.05.242-1.085.603-1.93L283.326 8.91q.844-.362 2.05-.603 1.206-.362 2.17-.362h38.232q.965 0 2.17.362 1.327.241 2.172.603zm-20.261 6.875h-28.462v21.346h28.462z"
       stroke-width="2.40052384"
       id="path2" />
  </g>
  <path
     style="line-height:1.25;-inkscape-font-specification:'Outage, Bold';font-variant-ligatures:normal;font-variant-caps:normal;font-variant-numeric:normal;font-feature-settings:normal;text-align:start;fill:#f5f5f5;fill-opacity:1"
     d="M360.703 7.337c-.69 0-1.035.346-1.035 1.037v36.082c0 .69.344 1.034 1.035 1.034h23.548c.29 0 .526-.09.708-.272.182-.218.272-.472.272-.762V37.26c0-.29-.09-.527-.272-.709a.88.88 0 00-.708-.328h-13.956c-.29 0-.544-.09-.762-.272-.182-.182-.272-.418-.272-.709V8.373c0-.69-.345-1.036-1.035-1.036zm30.819 0c-.29 0-.547.108-.765.326-.182.182-.272.42-.272.71v29.761c0 .29.037.617.11.98.073.363.18.672.326.927l5.016 5.013c.254.145.563.256.926.328.364.073.69.108.98.108h17.278c.291 0 .617-.035.98-.108.4-.072.73-.183.984-.328l5.013-5.013c.109-.218.2-.492.272-.819.073-.327.11-.636.11-.927h.054V8.374a.882.882 0 00-.326-.71.878.878 0 00-.708-.327h-7.577c-.291 0-.545.108-.763.326-.182.182-.272.42-.272.71v26.87c0 .291-.093.547-.274.765-.182.182-.418.272-.709.272h-10.79c-.292 0-.545-.09-.763-.272a1.162 1.162 0 01-.275-.765V8.374a.882.882 0 00-.326-.71.878.878 0 00-.708-.327zm40.613 0c-.69 0-1.036.346-1.036 1.037v36.082c0 .69.346 1.034 1.036 1.034h23.546c.29 0 .527-.09.708-.272.182-.218.273-.472.273-.762V37.26c0-.29-.09-.527-.273-.709a.88.88 0 00-.708-.328h-13.953c-.29 0-.545-.09-.763-.272-.181-.182-.272-.418-.272-.709V8.373c0-.69-.346-1.036-1.037-1.036zm31.09 0c-.291 0-.545.108-.763.326-.182.182-.272.42-.272.71v6.485c0 .29.09.547.272.765.218.181.472.272.762.272h17.388l-18.096 19.949c-.182.218-.345.51-.49.873a2.93 2.93 0 00-.162.926v6.813c0 .69.344 1.034 1.034 1.034h27.09c.291 0 .527-.09.709-.272.218-.218.326-.472.326-.762v-6.487a.878.878 0 00-.326-.708.88.88 0 00-.709-.329h-17.387l17.713-19.946c.182-.219.345-.492.49-.82.146-.326.219-.635.219-.926V8.374a.882.882 0 00-.326-.71.878.878 0 00-.709-.327zm37.467 0c-.291 0-.545.108-.763.326-.182.182-.272.42-.272.71v36.083c0 .69.344 1.034 1.035 1.034h23.601c.291 0 .618-.035.98-.108.4-.072.73-.183.984-.328l5.013-5.013c.109-.255.2-.564.272-.927a3.45 3.45 0 00.164-.98V31.7c0-.29-.073-.6-.218-.926a3.244 3.244 0 00-.49-.873l-2.236-2.726c-.181-.182-.29-.435-.326-.762 0-.327.09-.599.272-.817l2.344-2.998c.181-.218.327-.491.436-.818.145-.364.218-.69.218-.981V14.749c0-.29-.055-.616-.164-.98a4.645 4.645 0 00-.272-.98l-5.013-5.016a4.668 4.668 0 00-.983-.272 3.452 3.452 0 00-.98-.164h-.109zm46.668 0c-.29 0-.617.055-.98.164a4.727 4.727 0 00-.927.272l-5.016 5.016a3.08 3.08 0 00-.326.926c-.073.364-.11.69-.11.981v23.438c0 .29.037.617.11.98.073.363.18.672.326.927l5.016 5.013c.254.145.563.256.926.328.364.073.69.108.98.108h17.278c.29 0 .62-.035.983-.108.4-.072.726-.183.98-.328l5.014-5.013c.109-.255.201-.564.274-.927.11-.363.162-.69.162-.98V14.696c0-.29-.053-.617-.162-.98a4.721 4.721 0 00-.274-.927L566.6 7.773c-.255-.109-.581-.2-.981-.272a3.466 3.466 0 00-.983-.164h-14.934zm32.058 0c-.69 0-1.035.346-1.035 1.037v7.195c0 .29.09.544.273.762.218.182.471.272.762.272h7.741c.291 0 .527.09.709.272.181.182.272.418.272.709v26.872c0 .29.09.544.272.762.218.182.472.272.762.272h7.578c.29 0 .526-.09.708-.272.182-.218.272-.472.272-.762V17.584c0-.29.09-.527.272-.709a1.16 1.16 0 01.765-.272h7.74c.29 0 .526-.09.708-.272.218-.218.328-.472.328-.762V8.374c0-.29-.11-.53-.328-.71a.878.878 0 00-.709-.327H587.16zm-71.095 8.286h14.661v6.812h-14.661zm41.272.98h12.809V36.28h-12.809zM508.323 29.74h14.661v7.41h-14.661zM367.605 52.253c-.311 0-.661.059-1.05.176-.39.077-.72.173-.992.29l-5.366 5.368a3.296 3.296 0 00-.351.992 5.41 5.41 0 00-.117 1.05v25.089c0 .31.04.661.117 1.05.078.389.195.72.35.992l5.367 5.366c.272.156.603.273.992.351.389.078.739.117 1.05.117h22.23c.311 0 .563-.098.758-.292a1.12 1.12 0 00.35-.817v-7.294a.94.94 0 00-.35-.757.94.94 0 00-.758-.351h-19.547c-.194 0-.29-.096-.29-.29V76.99c0-.195.096-.293.29-.293h16.63c.739 0 1.109-.37 1.109-1.109v-5.834a.94.94 0 00-.351-.758.94.94 0 00-.758-.35h-16.63c-.194 0-.29-.076-.29-.232v-6.36c0-.195.096-.293.29-.293h19.547c.311 0 .563-.095.758-.29a.945.945 0 00.35-.76v-7.35a.94.94 0 00-.35-.758.94.94 0 00-.758-.35h-20.829zm33.747 0a1.12 1.12 0 00-.816.351c-.194.194-.292.447-.292.758v38.624c0 .738.37 1.108 1.108 1.108h25.262c.311 0 .661-.04 1.05-.117.428-.078.778-.195 1.05-.35l5.37-5.367c.116-.272.214-.603.292-.992.116-.389.173-.74.173-1.05V60.129c0-.31-.057-.661-.173-1.05a5.056 5.056 0 00-.293-.992l-5.368-5.368a4.984 4.984 0 00-1.05-.29 3.698 3.698 0 00-1.051-.176h-21.645zm43.417 0c-.74 0-1.11.37-1.11 1.109v38.623c0 .74.37 1.109 1.11 1.109h8.051c.74 0 1.107-.37 1.107-1.109V53.362c0-.74-.368-1.109-1.107-1.109zm17.15 0c-.738 0-1.108.37-1.108 1.109v7.7c0 .312.098.584.293.817.233.195.505.293.816.293h8.285c.312 0 .564.097.758.292.195.194.293.447.293.758v28.763c0 .311.095.583.29.817.233.194.507.292.819.292h8.107c.312 0 .566-.098.76-.292.195-.234.29-.506.29-.817V63.222c0-.311.099-.564.293-.758.234-.195.505-.292.817-.292h8.285c.311 0 .564-.098.758-.293a1.12 1.12 0 00.35-.816v-7.701a.94.94 0 00-.35-.758.94.94 0 00-.758-.35h-20.712zm38.23 0c-.738 0-1.108.37-1.108 1.109v38.623c0 .74.37 1.109 1.109 1.109h8.051c.74 0 1.107-.37 1.107-1.109V53.362c0-.74-.368-1.109-1.107-1.109zm26.137 0c-.311 0-.661.059-1.05.176-.39.077-.72.173-.992.29l-5.369 5.368c-.155.273-.27.603-.348.992-.078.389-.117.74-.117 1.05v25.089c0 .31.039.661.117 1.05.078.389.193.72.348.992l5.369 5.366c.272.156.603.273.992.351.389.078.739.117 1.05.117h18.494c.311 0 .661-.04 1.05-.117.428-.078.778-.195 1.05-.35l5.37-5.367c.116-.272.214-.603.292-.992.116-.389.173-.74.173-1.05V60.129a3.69 3.69 0 00-.173-1.05 5.063 5.063 0 00-.293-.992l-5.368-5.368a4.984 4.984 0 00-1.05-.29 3.698 3.698 0 00-1.05-.176h-15.987zm36.65 0c-.738 0-1.108.37-1.108 1.109v38.623c0 .74.37 1.109 1.109 1.109h8.052c.739 0 1.108-.37 1.108-1.109V68.356l12.894 23.805c.156.272.389.505.7.7.31.155.622.233.933.233H595.026c.312 0 .564-.098.758-.292a1.12 1.12 0 00.351-.817V53.362a.94.94 0 00-.35-.758.94.94 0 00-.758-.35h-8.11a1.12 1.12 0 00-.817.35c-.194.194-.292.447-.292.758v23.687l-12.953-23.862a1.604 1.604 0 00-.7-.641c-.31-.195-.621-.293-.933-.293zm-152.425 9.919h13.712V83.234h-13.712V68.123zm118.168 0h13.71v21.062h-13.71z"
     font-weight="700"
     font-size="47.333"
     font-family="Outage"
     letter-spacing="0"
     word-spacing="0"
     id="path3" />
</svg>
