<?xml version="1.0" encoding="UTF-8" standalone="no"?>
<svg
   xmlns:dc="http://purl.org/dc/elements/1.1/"
   xmlns:cc="http://creativecommons.org/ns#"
   xmlns:rdf="http://www.w3.org/1999/02/22-rdf-syntax-ns#"
   xmlns:svg="http://www.w3.org/2000/svg"
   xmlns="http://www.w3.org/2000/svg"
   version="1.1"
   id="svg2"
   viewBox="0 0 30 30">
  <metadata
     id="metadata16">
    <rdf:RDF>
      <cc:Work
         rdf:about="">
        <dc:format>image/svg+xml</dc:format>
        <dc:type
           rdf:resource="http://purl.org/dc/dcmitype/StillImage" />
        <dc:title></dc:title>
      </cc:Work>
    </rdf:RDF>
  </metadata>
  <defs
     id="defs14" />
  <g
     transform="matrix(0.39836651,0,0,0.39836651,-404.19956,-23.203483)"
     id="g43287">
    <g
       id="g43291"
       transform="translate(140.29418,-30.229133)">
      <path
         id="path43293"
         transform="matrix(4.9271778,0,0,4.9271778,836.99587,50.961294)"
         d="m 16.46875,8.6953125 -0.08789,0.027344 -8.1074215,2.4804685 0,2.570313 -0.00195,0 0.00195,0.203124 0,0.203126 L 8.25,14.1875 c 0.1827567,-0.09138 4.298303,0.977684 4.511719,1.033203 l 0.0293,3.494141 -0.002,0.002 3.417969,1.220703 -2.951172,0.724609 2.525391,0.400391 6.228516,-1.039062 0,-7.660157 -5.541016,-3.6679685 z m -0.0625,0.4238281 5.216797,3.4511714 0,0.300782 -5.228516,-3.1601565 0,0.5097655 5.228516,3.160156 0,0.304688 -5.228516,-3 0,0.503906 5.228516,3 0,0.283203 -5.228516,-2.833984 0,0.496094 5.228516,2.833984 0,0.326172 -5.228516,-2.648438 0,0.488282 5.228516,2.65039 0,0.367188 -5.228516,-2.494141 0,0.484375 5.228516,2.492188 0,0.40039 -5.228516,-2.310547 0,0.476563 5.228516,2.308594 0,0.439453 -5.228516,-2.148438 0,0.470703 5.228516,2.148438 0,0.429687 -5.228516,-2.02539 0,0.46875 5.228516,2.02539 0,0.376953 -5.238281,-1.824218 c 0,0 -1.678639,0.358411 -3.195313,0.6875 l -0.05664,-6.046875 -4.4355464,1.15039 -0.039063,-2.173828 7.7480464,-2.3691404 z"
         style="color:#000000;font-style:normal;font-variant:normal;font-weight:normal;font-stretch:normal;font-size:medium;line-height:normal;font-family:sans-serif;text-indent:0;text-align:start;text-decoration:none;text-decoration-line:none;text-decoration-style:solid;text-decoration-color:#000000;letter-spacing:normal;word-spacing:normal;text-transform:none;direction:ltr;block-progression:tb;writing-mode:lr-tb;baseline-shift:baseline;text-anchor:start;white-space:normal;clip-rule:nonzero;display:inline;overflow:visible;visibility:visible;opacity:1;isolation:auto;mix-blend-mode:normal;color-interpolation:sRGB;color-interpolation-filters:linearRGB;solid-color:#000000;solid-opacity:1;fill:#000000;fill-opacity:1;fill-rule:nonzero;stroke:none;stroke-width:1;stroke-linecap:butt;stroke-linejoin:miter;stroke-miterlimit:10;stroke-dasharray:none;stroke-dashoffset:0;stroke-opacity:1;color-rendering:auto;image-rendering:auto;shape-rendering:auto;text-rendering:auto;enable-background:accumulate" />
    </g>
  </g>
  <path
     id="path12601"
     d="m 7.3935054,12.013657 0.084368,10.205145 0.011587,-0.004 6.7893742,2.311683 1.272767,-0.276023 -7.283911,-2.587705 -0.030672,-9.863952 z m -2.9135659,0.644052 0,10.519503 0.019184,-0.0076 -0.00761,0.01923 6.5095193,2.231179 1.326438,-0.345027 -7.0653941,-2.453529 0,-10.208979 z m -3.0669098,0.736058 0,10.922035 0.015328,-0.004 -0.011504,0.01923 L 7.3206565,26.33989 8.677763,25.933525 2.1950819,23.763684 2.164412,13.271017 Z"
     style="color:#000000;font-style:normal;font-variant:normal;font-weight:normal;font-stretch:normal;font-size:medium;line-height:normal;font-family:sans-serif;text-indent:0;text-align:start;text-decoration:none;text-decoration-line:none;text-decoration-style:solid;text-decoration-color:#000000;letter-spacing:normal;word-spacing:normal;text-transform:none;direction:ltr;block-progression:tb;writing-mode:lr-tb;baseline-shift:baseline;text-anchor:start;white-space:normal;clip-rule:nonzero;display:inline;overflow:visible;visibility:visible;opacity:1;isolation:auto;mix-blend-mode:normal;color-interpolation:sRGB;color-interpolation-filters:linearRGB;solid-color:#000000;solid-opacity:1;fill:#000000;fill-opacity:1;fill-rule:nonzero;stroke:none;stroke-width:0.40000001;stroke-linecap:butt;stroke-linejoin:miter;stroke-miterlimit:10;stroke-dasharray:none;stroke-dashoffset:825.36413574;stroke-opacity:1;color-rendering:auto;image-rendering:auto;shape-rendering:auto;text-rendering:auto;enable-background:accumulate" />
</svg>
