<?xml version="1.0" encoding="UTF-8" standalone="no"?>
<svg
   xmlns:dc="http://purl.org/dc/elements/1.1/"
   xmlns:cc="http://creativecommons.org/ns#"
   xmlns:rdf="http://www.w3.org/1999/02/22-rdf-syntax-ns#"
   xmlns:svg="http://www.w3.org/2000/svg"
   xmlns="http://www.w3.org/2000/svg"
   version="1.1"
   id="svg2"
   viewBox="0 0 30 30">
  <metadata
     id="metadata16">
    <rdf:RDF>
      <cc:Work
         rdf:about="">
        <dc:format>image/svg+xml</dc:format>
        <dc:type
           rdf:resource="http://purl.org/dc/dcmitype/StillImage" />
        <dc:title></dc:title>
      </cc:Work>
    </rdf:RDF>
  </metadata>
  <defs
     id="defs14" />
  <g
     transform="matrix(1.1211489,0,0,1.1211489,-1.654145,-1.8555063)"
     id="g12631">
    <g
       id="g43287"
       transform="matrix(0.2944548,0,0,0.2944548,-294.76186,-12.596797)">
      <g
         transform="translate(140.29418,-30.229133)"
         id="g43291">
        <path
           style="color:#000000;font-style:normal;font-variant:normal;font-weight:normal;font-stretch:normal;font-size:medium;line-height:normal;font-family:sans-serif;text-indent:0;text-align:start;text-decoration:none;text-decoration-line:none;text-decoration-style:solid;text-decoration-color:#000000;letter-spacing:normal;word-spacing:normal;text-transform:none;direction:ltr;block-progression:tb;writing-mode:lr-tb;baseline-shift:baseline;text-anchor:start;white-space:normal;clip-rule:nonzero;display:inline;overflow:visible;visibility:visible;opacity:1;isolation:auto;mix-blend-mode:normal;color-interpolation:sRGB;color-interpolation-filters:linearRGB;solid-color:#000000;solid-opacity:1;fill:#000000;fill-opacity:1;fill-rule:nonzero;stroke:none;stroke-width:1;stroke-linecap:butt;stroke-linejoin:miter;stroke-miterlimit:10;stroke-dasharray:none;stroke-dashoffset:0;stroke-opacity:1;color-rendering:auto;image-rendering:auto;shape-rendering:auto;text-rendering:auto;enable-background:accumulate"
           d="m 16.964844,6.8886719 -0.121094,0.037109 -11.2050781,3.4277351 0,11.976562 10.3750001,1.648438 8.609375,-1.435547 0,-10.585938 -7.658203,-5.0683594 z m -0.08594,0.5859375 7.208985,4.7695316 0,0.414062 -7.226563,-4.3671874 0,0.7050782 7.226563,4.3671872 0,0.421875 -7.226563,-4.1464841 0,0.6953121 7.226563,4.146485 0,0.392578 -7.226563,-3.916016 0,0.685547 7.226563,3.916016 0,0.451172 -7.226563,-3.66211 0,0.675782 7.226563,3.662109 0,0.507812 -7.226563,-3.445312 0,0.667969 7.226563,3.445312 0,0.550781 -7.226563,-3.191406 0,0.658203 7.226563,3.191406 0,0.605469 -7.226563,-2.96875 0,0.652344 7.226563,2.966797 0,0.59375 -7.226563,-2.798828 0,0.648437 7.226563,2.798828 0,0.521485 -7.238282,-2.521485 c 0,0 -9.8433171,2.154574 -10.677734,2.300782 l 0,-11.121094 10.707031,-3.2734376 z"
           transform="matrix(3.5654744,0,0,3.5654744,857.65275,69.243905)"
           id="path43293" />
      </g>
    </g>
    <path
       style="color:#000000;font-style:normal;font-variant:normal;font-weight:normal;font-stretch:normal;font-size:medium;line-height:normal;font-family:sans-serif;text-indent:0;text-align:start;text-decoration:none;text-decoration-line:none;text-decoration-style:solid;text-decoration-color:#000000;letter-spacing:normal;word-spacing:normal;text-transform:none;direction:ltr;block-progression:tb;writing-mode:lr-tb;baseline-shift:baseline;text-anchor:start;white-space:normal;clip-rule:nonzero;display:inline;overflow:visible;visibility:visible;opacity:1;isolation:auto;mix-blend-mode:normal;color-interpolation:sRGB;color-interpolation-filters:linearRGB;solid-color:#000000;solid-opacity:1;fill:#000000;fill-opacity:1;fill-rule:nonzero;stroke:none;stroke-width:0.80000001;stroke-linecap:butt;stroke-linejoin:miter;stroke-miterlimit:10;stroke-dasharray:none;stroke-dashoffset:825.36413574;stroke-opacity:1;color-rendering:auto;image-rendering:auto;shape-rendering:auto;text-rendering:auto;enable-background:accumulate"
       d="m 6.1428891,6.8866679 -4.3942846,1.5645539 0,14.0153692 0.8407172,-0.161694 0,-13.2610722 3.5616602,-1.2848054 z"
       id="path12621" />
    <path
       style="color:#000000;font-style:normal;font-variant:normal;font-weight:normal;font-stretch:normal;font-size:medium;line-height:normal;font-family:sans-serif;text-indent:0;text-align:start;text-decoration:none;text-decoration-line:none;text-decoration-style:solid;text-decoration-color:#000000;letter-spacing:normal;word-spacing:normal;text-transform:none;direction:ltr;block-progression:tb;writing-mode:lr-tb;baseline-shift:baseline;text-anchor:start;white-space:normal;clip-rule:nonzero;display:inline;overflow:visible;visibility:visible;opacity:1;isolation:auto;mix-blend-mode:normal;color-interpolation:sRGB;color-interpolation-filters:linearRGB;solid-color:#000000;solid-opacity:1;fill:#000000;fill-opacity:1;fill-rule:nonzero;stroke:none;stroke-width:0.80000001;stroke-linecap:butt;stroke-linejoin:miter;stroke-miterlimit:10;stroke-dasharray:none;stroke-dashoffset:825.36413574;stroke-opacity:1;color-rendering:auto;image-rendering:auto;shape-rendering:auto;text-rendering:auto;enable-background:accumulate"
       d="m 23.882324,7.4767798 -0.01018,1.0859193 3.30128,2.1375129 0,11.550376 0.840717,0.320139 0,-12.31753 z"
       id="path12623" />
  </g>
</svg>
